<?xml version="1.0" encoding="us-ascii" standalone="no"?><svg xmlns="http://www.w3.org/2000/svg" xmlns:xlink="http://www.w3.org/1999/xlink" contentStyleType="text/css" height="1613px" preserveAspectRatio="none" style="width:2544px;height:1613px;background:#FEFEFE;" version="1.1" viewBox="0 0 2544 1613" width="2544px" zoomAndPan="magnify"><defs/><g><rect fill="#FEFEFE" height="1613" style="stroke:none;stroke-width:1.0;" width="2544" x="0" y="0"/><!--cluster dominio--><g id="cluster_dominio"><path d="M13.5,6 L66.5,6 A11.25,11.25 0 0 1 74,13.5 L81,28.2969 L2528.5,28.2969 A7.5,7.5 0 0 1 2536,35.7969 L2536,1597.5 A7.5,7.5 0 0 1 2528.5,1605 L13.5,1605 A7.5,7.5 0 0 1 6,1597.5 L6,13.5 A7.5,7.5 0 0 1 13.5,6 " fill="none" style="stroke:#000000;stroke-width:1.5;"/><line style="stroke:#000000;stroke-width:1.5;" x1="6" x2="81" y1="28.2969" y2="28.2969"/><text fill="#000000" font-family="sans-serif" font-size="14" font-weight="bold" lengthAdjust="spacing" textLength="62" x="10" y="20.9951">dominio</text></g><!--cluster usuario--><g id="cluster_usuario"><path d="M833,343 L883,343 A11.25,11.25 0 0 1 890.5,350.5 L897.5,365.2969 L1358.5,365.2969 A7.5,7.5 0 0 1 1366,372.7969 L1366,442.5 A7.5,7.5 0 0 1 1358.5,450 L833,450 A7.5,7.5 0 0 1 825.5,442.5 L825.5,350.5 A7.5,7.5 0 0 1 833,343 " fill="none" style="stroke:#000000;stroke-width:1.5;"/><line style="stroke:#000000;stroke-width:1.5;" x1="825.5" x2="897.5" y1="365.2969" y2="365.2969"/><text fill="#000000" font-family="sans-serif" font-size="14" font-weight="bold" lengthAdjust="spacing" textLength="59" x="829.5" y="357.9951">usuario</text></g><!--cluster empleado--><g id="cluster_empleado"><path d="M1251,1013 L1319,1013 A11.25,11.25 0 0 1 1326.5,1020.5 L1333.5,1035.2969 L2159.5,1035.2969 A7.5,7.5 0 0 1 2167,1042.7969 L2167,1523.5 A7.5,7.5 0 0 1 2159.5,1531 L1251,1531 A7.5,7.5 0 0 1 1243.5,1523.5 L1243.5,1020.5 A7.5,7.5 0 0 1 1251,1013 " fill="none" style="stroke:#000000;stroke-width:1.5;"/><line style="stroke:#000000;stroke-width:1.5;" x1="1243.5" x2="1333.5" y1="1035.2969" y2="1035.2969"/><text fill="#000000" font-family="sans-serif" font-size="14" font-weight="bold" lengthAdjust="spacing" textLength="77" x="1247.5" y="1027.9951">empleado</text></g><!--cluster elementoparque--><g id="cluster_elementoparque"><path d="M1228.5,627 L1349.5,627 A11.25,11.25 0 0 1 1357,634.5 L1364,649.2969 L2485,649.2969 A7.5,7.5 0 0 1 2492.5,656.7969 L2492.5,884.5 A7.5,7.5 0 0 1 2485,892 L1228.5,892 A7.5,7.5 0 0 1 1221,884.5 L1221,634.5 A7.5,7.5 0 0 1 1228.5,627 " fill="none" style="stroke:#000000;stroke-width:1.5;"/><line style="stroke:#000000;stroke-width:1.5;" x1="1221" x2="1364" y1="649.2969" y2="649.2969"/><text fill="#000000" font-family="sans-serif" font-size="14" font-weight="bold" lengthAdjust="spacing" textLength="130" x="1225" y="641.9951">elementoparque</text></g><!--cluster trabajo--><g id="cluster_trabajo"><path d="M50.5,558 L96.5,558 A11.25,11.25 0 0 1 104,565.5 L111,580.2969 L943.5,580.2969 A7.5,7.5 0 0 1 951,587.7969 L951,815.5 A7.5,7.5 0 0 1 943.5,823 L50.5,823 A7.5,7.5 0 0 1 43,815.5 L43,565.5 A7.5,7.5 0 0 1 50.5,558 " fill="none" style="stroke:#000000;stroke-width:1.5;"/><line style="stroke:#000000;stroke-width:1.5;" x1="43" x2="111" y1="580.2969" y2="580.2969"/><text fill="#000000" font-family="sans-serif" font-size="14" font-weight="bold" lengthAdjust="spacing" textLength="55" x="47" y="572.9951">trabajo</text></g><!--cluster util--><g id="cluster_util"><path d="M2001.5,421 L2016.5,421 A11.25,11.25 0 0 1 2024,428.5 L2031,443.2969 L2180.5,443.2969 A7.5,7.5 0 0 1 2188,450.7969 L2188,595.5 A7.5,7.5 0 0 1 2180.5,603 L2001.5,603 A7.5,7.5 0 0 1 1994,595.5 L1994,428.5 A7.5,7.5 0 0 1 2001.5,421 " fill="none" style="stroke:#000000;stroke-width:1.5;"/><line style="stroke:#000000;stroke-width:1.5;" x1="1994" x2="2031" y1="443.2969" y2="443.2969"/><text fill="#000000" font-family="sans-serif" font-size="14" font-weight="bold" lengthAdjust="spacing" textLength="24" x="1998" y="435.9951">util</text></g><!--cluster tiquete--><g id="cluster_tiquete"><path d="M1647,49 L1694,49 A11.25,11.25 0 0 1 1701.5,56.5 L1708.5,71.2969 L2504.5,71.2969 A7.5,7.5 0 0 1 2512,78.7969 L2512,389.5 A7.5,7.5 0 0 1 2504.5,397 L1647,397 A7.5,7.5 0 0 1 1639.5,389.5 L1639.5,56.5 A7.5,7.5 0 0 1 1647,49 " fill="none" style="stroke:#000000;stroke-width:1.5;"/><line style="stroke:#000000;stroke-width:1.5;" x1="1639.5" x2="1708.5" y1="71.2969" y2="71.2969"/><text fill="#000000" font-family="sans-serif" font-size="14" font-weight="bold" lengthAdjust="spacing" textLength="56" x="1643.5" y="63.9951">tiquete</text></g><!--cluster excepciones--><g id="cluster_excepciones"><path d="M37.5,984 L128.5,984 A11.25,11.25 0 0 1 136,991.5 L143,1006.2969 L1030.5,1006.2969 A7.5,7.5 0 0 1 1038,1013.7969 L1038,1573.5 A7.5,7.5 0 0 1 1030.5,1581 L37.5,1581 A7.5,7.5 0 0 1 30,1573.5 L30,991.5 A7.5,7.5 0 0 1 37.5,984 " fill="none" style="stroke:#000000;stroke-width:1.5;"/><line style="stroke:#000000;stroke-width:1.5;" x1="30" x2="143" y1="1006.2969" y2="1006.2969"/><text fill="#000000" font-family="sans-serif" font-size="14" font-weight="bold" lengthAdjust="spacing" textLength="100" x="34" y="998.9951">excepciones</text></g><!--class Usuario--><g id="elem_Usuario"><rect codeLine="25" fill="#E9ECF5" height="56.2656" id="Usuario" rx="7.5" ry="7.5" style="stroke:#7D8BA1;stroke-width:0.5;" width="94" x="841.5" y="378"/><ellipse cx="856.5" cy="398.1328" fill="#A9DCDF" rx="11" ry="11" style="stroke:#181818;stroke-width:1.0;"/><path d="M856.6094,393.4766 L855.4531,398.5547 L857.7813,398.5547 L856.6094,393.4766 Z M855.125,391.2422 L858.1094,391.2422 L861.4688,403.6328 L859.0156,403.6328 L858.25,400.5703 L854.9688,400.5703 L854.2188,403.6328 L851.7813,403.6328 L855.125,391.2422 Z " fill="#000000"/><text fill="#000000" font-family="sans-serif" font-size="12" font-style="italic" lengthAdjust="spacing" textLength="66" x="868.5" y="394.1387">&#171;Abstract&#187;</text><text fill="#000000" font-family="sans-serif" font-size="14" font-style="italic" lengthAdjust="spacing" textLength="51" x="876" y="409.9639">Usuario</text><line style="stroke:#7D8BA1;stroke-width:0.5;" x1="842.5" x2="934.5" y1="418.2656" y2="418.2656"/><line style="stroke:#7D8BA1;stroke-width:0.5;" x1="842.5" x2="934.5" y1="426.2656" y2="426.2656"/></g><!--class Cliente--><g id="elem_Cliente"><rect codeLine="26" fill="#F6F8FF" height="48" id="Cliente" rx="7.5" ry="7.5" style="stroke:#2F4858;stroke-width:0.5;" width="80" x="1270" y="379"/><ellipse cx="1285" cy="395" fill="#ADD1B2" rx="11" ry="11" style="stroke:#181818;stroke-width:1.0;"/><path d="M1287.9688,400.6406 Q1287.3906,400.9375 1286.75,401.0781 Q1286.1094,401.2344 1285.4063,401.2344 Q1282.9063,401.2344 1281.5781,399.5938 Q1280.2656,397.9375 1280.2656,394.8125 Q1280.2656,391.6875 1281.5781,390.0313 Q1282.9063,388.375 1285.4063,388.375 Q1286.1094,388.375 1286.75,388.5313 Q1287.4063,388.6875 1287.9688,388.9844 L1287.9688,391.7031 Q1287.3438,391.125 1286.75,390.8594 Q1286.1563,390.5781 1285.5313,390.5781 Q1284.1875,390.5781 1283.5,391.6563 Q1282.8125,392.7188 1282.8125,394.8125 Q1282.8125,396.9063 1283.5,397.9844 Q1284.1875,399.0469 1285.5313,399.0469 Q1286.1563,399.0469 1286.75,398.7813 Q1287.3438,398.5 1287.9688,397.9219 L1287.9688,400.6406 Z " fill="#000000"/><text fill="#000000" font-family="sans-serif" font-size="14" lengthAdjust="spacing" textLength="48" x="1299" y="399.8467">Cliente</text><line style="stroke:#2F4858;stroke-width:0.5;" x1="1271" x2="1349" y1="411" y2="411"/><line style="stroke:#2F4858;stroke-width:0.5;" x1="1271" x2="1349" y1="419" y2="419"/></g><!--class Empleado--><g id="elem_Empleado"><rect codeLine="30" fill="#E9ECF5" height="56.2656" id="Empleado" rx="7.5" ry="7.5" style="stroke:#7D8BA1;stroke-width:0.5;" width="101" x="1259.5" y="1048"/><ellipse cx="1274.5" cy="1068.1328" fill="#A9DCDF" rx="11" ry="11" style="stroke:#181818;stroke-width:1.0;"/><path d="M1274.6094,1063.4766 L1273.4531,1068.5547 L1275.7813,1068.5547 L1274.6094,1063.4766 Z M1273.125,1061.2422 L1276.1094,1061.2422 L1279.4688,1073.6328 L1277.0156,1073.6328 L1276.25,1070.5703 L1272.9688,1070.5703 L1272.2188,1073.6328 L1269.7813,1073.6328 L1273.125,1061.2422 Z " fill="#000000"/><text fill="#000000" font-family="sans-serif" font-size="12" font-style="italic" lengthAdjust="spacing" textLength="66" x="1290" y="1064.1387">&#171;Abstract&#187;</text><text fill="#000000" font-family="sans-serif" font-size="14" font-style="italic" lengthAdjust="spacing" textLength="69" x="1288.5" y="1079.9639">Empleado</text><line style="stroke:#7D8BA1;stroke-width:0.5;" x1="1260.5" x2="1359.5" y1="1088.2656" y2="1088.2656"/><line style="stroke:#7D8BA1;stroke-width:0.5;" x1="1260.5" x2="1359.5" y1="1096.2656" y2="1096.2656"/></g><!--class Capacitacion--><g id="elem_Capacitacion"><rect codeLine="31" fill="#F6F8FF" height="48" id="Capacitacion" rx="7.5" ry="7.5" style="stroke:#2F4858;stroke-width:0.5;" width="120" x="2031" y="1456"/><ellipse cx="2046" cy="1472" fill="#EB937F" rx="11" ry="11" style="stroke:#181818;stroke-width:1.0;"/><path d="M2050.1094,1478 L2042.3906,1478 L2042.3906,1465.6094 L2050.1094,1465.6094 L2050.1094,1467.7656 L2044.8438,1467.7656 L2044.8438,1470.4375 L2049.6094,1470.4375 L2049.6094,1472.5938 L2044.8438,1472.5938 L2044.8438,1475.8438 L2050.1094,1475.8438 L2050.1094,1478 Z " fill="#000000"/><text fill="#000000" font-family="sans-serif" font-size="14" lengthAdjust="spacing" textLength="88" x="2060" y="1476.8467">Capacitacion</text><line style="stroke:#2F4858;stroke-width:0.5;" x1="2032" x2="2150" y1="1488" y2="1488"/><line style="stroke:#2F4858;stroke-width:0.5;" x1="2032" x2="2150" y1="1496" y2="1496"/></g><!--class Administrador--><g id="elem_Administrador"><rect codeLine="32" fill="#F6F8FF" height="48" id="Administrador" rx="7.5" ry="7.5" style="stroke:#2F4858;stroke-width:0.5;" width="127" x="1639" y="1467"/><ellipse cx="1654" cy="1483" fill="#ADD1B2" rx="11" ry="11" style="stroke:#181818;stroke-width:1.0;"/><path d="M1656.9688,1488.6406 Q1656.3906,1488.9375 1655.75,1489.0781 Q1655.1094,1489.2344 1654.4063,1489.2344 Q1651.9063,1489.2344 1650.5781,1487.5938 Q1649.2656,1485.9375 1649.2656,1482.8125 Q1649.2656,1479.6875 1650.5781,1478.0313 Q1651.9063,1476.375 1654.4063,1476.375 Q1655.1094,1476.375 1655.75,1476.5313 Q1656.4063,1476.6875 1656.9688,1476.9844 L1656.9688,1479.7031 Q1656.3438,1479.125 1655.75,1478.8594 Q1655.1563,1478.5781 1654.5313,1478.5781 Q1653.1875,1478.5781 1652.5,1479.6563 Q1651.8125,1480.7188 1651.8125,1482.8125 Q1651.8125,1484.9063 1652.5,1485.9844 Q1653.1875,1487.0469 1654.5313,1487.0469 Q1655.1563,1487.0469 1655.75,1486.7813 Q1656.3438,1486.5 1656.9688,1485.9219 L1656.9688,1488.6406 Z " fill="#000000"/><text fill="#000000" font-family="sans-serif" font-size="14" lengthAdjust="spacing" textLength="95" x="1668" y="1487.8467">Administrador</text><line style="stroke:#2F4858;stroke-width:0.5;" x1="1640" x2="1765" y1="1499" y2="1499"/><line style="stroke:#2F4858;stroke-width:0.5;" x1="1640" x2="1765" y1="1507" y2="1507"/></g><!--class Cajero--><g id="elem_Cajero"><rect codeLine="33" fill="#F6F8FF" height="48" id="Cajero" rx="7.5" ry="7.5" style="stroke:#2F4858;stroke-width:0.5;" width="76" x="1664.5" y="1048"/><ellipse cx="1679.5" cy="1064" fill="#ADD1B2" rx="11" ry="11" style="stroke:#181818;stroke-width:1.0;"/><path d="M1682.4688,1069.6406 Q1681.8906,1069.9375 1681.25,1070.0781 Q1680.6094,1070.2344 1679.9063,1070.2344 Q1677.4063,1070.2344 1676.0781,1068.5938 Q1674.7656,1066.9375 1674.7656,1063.8125 Q1674.7656,1060.6875 1676.0781,1059.0313 Q1677.4063,1057.375 1679.9063,1057.375 Q1680.6094,1057.375 1681.25,1057.5313 Q1681.9063,1057.6875 1682.4688,1057.9844 L1682.4688,1060.7031 Q1681.8438,1060.125 1681.25,1059.8594 Q1680.6563,1059.5781 1680.0313,1059.5781 Q1678.6875,1059.5781 1678,1060.6563 Q1677.3125,1061.7188 1677.3125,1063.8125 Q1677.3125,1065.9063 1678,1066.9844 Q1678.6875,1068.0469 1680.0313,1068.0469 Q1680.6563,1068.0469 1681.25,1067.7813 Q1681.8438,1067.5 1682.4688,1066.9219 L1682.4688,1069.6406 Z " fill="#000000"/><text fill="#000000" font-family="sans-serif" font-size="14" lengthAdjust="spacing" textLength="44" x="1693.5" y="1068.8467">Cajero</text><line style="stroke:#2F4858;stroke-width:0.5;" x1="1665.5" x2="1739.5" y1="1080" y2="1080"/><line style="stroke:#2F4858;stroke-width:0.5;" x1="1665.5" x2="1739.5" y1="1088" y2="1088"/></g><!--class Cocinero--><g id="elem_Cocinero"><rect codeLine="34" fill="#F6F8FF" height="48" id="Cocinero" rx="7.5" ry="7.5" style="stroke:#2F4858;stroke-width:0.5;" width="94" x="1655.5" y="1297"/><ellipse cx="1670.5" cy="1313" fill="#ADD1B2" rx="11" ry="11" style="stroke:#181818;stroke-width:1.0;"/><path d="M1673.4688,1318.6406 Q1672.8906,1318.9375 1672.25,1319.0781 Q1671.6094,1319.2344 1670.9063,1319.2344 Q1668.4063,1319.2344 1667.0781,1317.5938 Q1665.7656,1315.9375 1665.7656,1312.8125 Q1665.7656,1309.6875 1667.0781,1308.0313 Q1668.4063,1306.375 1670.9063,1306.375 Q1671.6094,1306.375 1672.25,1306.5313 Q1672.9063,1306.6875 1673.4688,1306.9844 L1673.4688,1309.7031 Q1672.8438,1309.125 1672.25,1308.8594 Q1671.6563,1308.5781 1671.0313,1308.5781 Q1669.6875,1308.5781 1669,1309.6563 Q1668.3125,1310.7188 1668.3125,1312.8125 Q1668.3125,1314.9063 1669,1315.9844 Q1669.6875,1317.0469 1671.0313,1317.0469 Q1671.6563,1317.0469 1672.25,1316.7813 Q1672.8438,1316.5 1673.4688,1315.9219 L1673.4688,1318.6406 Z " fill="#000000"/><text fill="#000000" font-family="sans-serif" font-size="14" lengthAdjust="spacing" textLength="62" x="1684.5" y="1317.8467">Cocinero</text><line style="stroke:#2F4858;stroke-width:0.5;" x1="1656.5" x2="1748.5" y1="1329" y2="1329"/><line style="stroke:#2F4858;stroke-width:0.5;" x1="1656.5" x2="1748.5" y1="1337" y2="1337"/></g><!--class OperarioAtraccion--><g id="elem_OperarioAtraccion"><rect codeLine="35" fill="#F6F8FF" height="48" id="OperarioAtraccion" rx="7.5" ry="7.5" style="stroke:#2F4858;stroke-width:0.5;" width="155" x="1625" y="1214"/><ellipse cx="1640" cy="1230" fill="#ADD1B2" rx="11" ry="11" style="stroke:#181818;stroke-width:1.0;"/><path d="M1642.9688,1235.6406 Q1642.3906,1235.9375 1641.75,1236.0781 Q1641.1094,1236.2344 1640.4063,1236.2344 Q1637.9063,1236.2344 1636.5781,1234.5938 Q1635.2656,1232.9375 1635.2656,1229.8125 Q1635.2656,1226.6875 1636.5781,1225.0313 Q1637.9063,1223.375 1640.4063,1223.375 Q1641.1094,1223.375 1641.75,1223.5313 Q1642.4063,1223.6875 1642.9688,1223.9844 L1642.9688,1226.7031 Q1642.3438,1226.125 1641.75,1225.8594 Q1641.1563,1225.5781 1640.5313,1225.5781 Q1639.1875,1225.5781 1638.5,1226.6563 Q1637.8125,1227.7188 1637.8125,1229.8125 Q1637.8125,1231.9063 1638.5,1232.9844 Q1639.1875,1234.0469 1640.5313,1234.0469 Q1641.1563,1234.0469 1641.75,1233.7813 Q1642.3438,1233.5 1642.9688,1232.9219 L1642.9688,1235.6406 Z " fill="#000000"/><text fill="#000000" font-family="sans-serif" font-size="14" lengthAdjust="spacing" textLength="123" x="1654" y="1234.8467">OperarioAtraccion</text><line style="stroke:#2F4858;stroke-width:0.5;" x1="1626" x2="1779" y1="1246" y2="1246"/><line style="stroke:#2F4858;stroke-width:0.5;" x1="1626" x2="1779" y1="1254" y2="1254"/></g><!--class ServicioGeneral--><g id="elem_ServicioGeneral"><rect codeLine="36" fill="#F6F8FF" height="48" id="ServicioGeneral" rx="7.5" ry="7.5" style="stroke:#2F4858;stroke-width:0.5;" width="139" x="1633" y="1131"/><ellipse cx="1648" cy="1147" fill="#ADD1B2" rx="11" ry="11" style="stroke:#181818;stroke-width:1.0;"/><path d="M1650.9688,1152.6406 Q1650.3906,1152.9375 1649.75,1153.0781 Q1649.1094,1153.2344 1648.4063,1153.2344 Q1645.9063,1153.2344 1644.5781,1151.5938 Q1643.2656,1149.9375 1643.2656,1146.8125 Q1643.2656,1143.6875 1644.5781,1142.0313 Q1645.9063,1140.375 1648.4063,1140.375 Q1649.1094,1140.375 1649.75,1140.5313 Q1650.4063,1140.6875 1650.9688,1140.9844 L1650.9688,1143.7031 Q1650.3438,1143.125 1649.75,1142.8594 Q1649.1563,1142.5781 1648.5313,1142.5781 Q1647.1875,1142.5781 1646.5,1143.6563 Q1645.8125,1144.7188 1645.8125,1146.8125 Q1645.8125,1148.9063 1646.5,1149.9844 Q1647.1875,1151.0469 1648.5313,1151.0469 Q1649.1563,1151.0469 1649.75,1150.7813 Q1650.3438,1150.5 1650.9688,1149.9219 L1650.9688,1152.6406 Z " fill="#000000"/><text fill="#000000" font-family="sans-serif" font-size="14" lengthAdjust="spacing" textLength="107" x="1662" y="1151.8467">ServicioGeneral</text><line style="stroke:#2F4858;stroke-width:0.5;" x1="1634" x2="1771" y1="1163" y2="1163"/><line style="stroke:#2F4858;stroke-width:0.5;" x1="1634" x2="1771" y1="1171" y2="1171"/></g><!--class ElementoParque--><g id="elem_ElementoParque"><rect codeLine="44" fill="#E9ECF5" height="56.2656" id="ElementoParque" rx="7.5" ry="7.5" style="stroke:#7D8BA1;stroke-width:0.5;" width="146" x="1237" y="662"/><ellipse cx="1252" cy="682.1328" fill="#A9DCDF" rx="11" ry="11" style="stroke:#181818;stroke-width:1.0;"/><path d="M1252.1094,677.4766 L1250.9531,682.5547 L1253.2813,682.5547 L1252.1094,677.4766 Z M1250.625,675.2422 L1253.6094,675.2422 L1256.9688,687.6328 L1254.5156,687.6328 L1253.75,684.5703 L1250.4688,684.5703 L1249.7188,687.6328 L1247.2813,687.6328 L1250.625,675.2422 Z " fill="#000000"/><text fill="#000000" font-family="sans-serif" font-size="12" font-style="italic" lengthAdjust="spacing" textLength="66" x="1290" y="678.1387">&#171;Abstract&#187;</text><text fill="#000000" font-family="sans-serif" font-size="14" font-style="italic" lengthAdjust="spacing" textLength="114" x="1266" y="693.9639">ElementoParque</text><line style="stroke:#7D8BA1;stroke-width:0.5;" x1="1238" x2="1382" y1="702.2656" y2="702.2656"/><line style="stroke:#7D8BA1;stroke-width:0.5;" x1="1238" x2="1382" y1="710.2656" y2="710.2656"/></g><!--class Atraccion--><g id="elem_Atraccion"><rect codeLine="45" fill="#E9ECF5" height="56.2656" id="Atraccion" rx="7.5" ry="7.5" style="stroke:#7D8BA1;stroke-width:0.5;" width="97" x="1654" y="820"/><ellipse cx="1669" cy="840.1328" fill="#A9DCDF" rx="11" ry="11" style="stroke:#181818;stroke-width:1.0;"/><path d="M1669.1094,835.4766 L1667.9531,840.5547 L1670.2813,840.5547 L1669.1094,835.4766 Z M1667.625,833.2422 L1670.6094,833.2422 L1673.9688,845.6328 L1671.5156,845.6328 L1670.75,842.5703 L1667.4688,842.5703 L1666.7188,845.6328 L1664.2813,845.6328 L1667.625,833.2422 Z " fill="#000000"/><text fill="#000000" font-family="sans-serif" font-size="12" font-style="italic" lengthAdjust="spacing" textLength="66" x="1682.5" y="836.1387">&#171;Abstract&#187;</text><text fill="#000000" font-family="sans-serif" font-size="14" font-style="italic" lengthAdjust="spacing" textLength="65" x="1683" y="851.9639">Atraccion</text><line style="stroke:#7D8BA1;stroke-width:0.5;" x1="1655" x2="1750" y1="860.2656" y2="860.2656"/><line style="stroke:#7D8BA1;stroke-width:0.5;" x1="1655" x2="1750" y1="868.2656" y2="868.2656"/></g><!--class AtraccionCultural--><g id="elem_AtraccionCultural"><rect codeLine="46" fill="#F6F8FF" height="48" id="AtraccionCultural" rx="7.5" ry="7.5" style="stroke:#2F4858;stroke-width:0.5;" width="148" x="2017" y="828"/><ellipse cx="2032" cy="844" fill="#ADD1B2" rx="11" ry="11" style="stroke:#181818;stroke-width:1.0;"/><path d="M2034.9688,849.6406 Q2034.3906,849.9375 2033.75,850.0781 Q2033.1094,850.2344 2032.4063,850.2344 Q2029.9063,850.2344 2028.5781,848.5938 Q2027.2656,846.9375 2027.2656,843.8125 Q2027.2656,840.6875 2028.5781,839.0313 Q2029.9063,837.375 2032.4063,837.375 Q2033.1094,837.375 2033.75,837.5313 Q2034.4063,837.6875 2034.9688,837.9844 L2034.9688,840.7031 Q2034.3438,840.125 2033.75,839.8594 Q2033.1563,839.5781 2032.5313,839.5781 Q2031.1875,839.5781 2030.5,840.6563 Q2029.8125,841.7188 2029.8125,843.8125 Q2029.8125,845.9063 2030.5,846.9844 Q2031.1875,848.0469 2032.5313,848.0469 Q2033.1563,848.0469 2033.75,847.7813 Q2034.3438,847.5 2034.9688,846.9219 L2034.9688,849.6406 Z " fill="#000000"/><text fill="#000000" font-family="sans-serif" font-size="14" lengthAdjust="spacing" textLength="116" x="2046" y="848.8467">AtraccionCultural</text><line style="stroke:#2F4858;stroke-width:0.5;" x1="2018" x2="2164" y1="860" y2="860"/><line style="stroke:#2F4858;stroke-width:0.5;" x1="2018" x2="2164" y1="868" y2="868"/></g><!--class AtraccionMecanica--><g id="elem_AtraccionMecanica"><rect codeLine="47" fill="#F6F8FF" height="48" id="AtraccionMecanica" rx="7.5" ry="7.5" style="stroke:#2F4858;stroke-width:0.5;" width="161" x="2010.5" y="745"/><ellipse cx="2025.5" cy="761" fill="#ADD1B2" rx="11" ry="11" style="stroke:#181818;stroke-width:1.0;"/><path d="M2028.4688,766.6406 Q2027.8906,766.9375 2027.25,767.0781 Q2026.6094,767.2344 2025.9063,767.2344 Q2023.4063,767.2344 2022.0781,765.5938 Q2020.7656,763.9375 2020.7656,760.8125 Q2020.7656,757.6875 2022.0781,756.0313 Q2023.4063,754.375 2025.9063,754.375 Q2026.6094,754.375 2027.25,754.5313 Q2027.9063,754.6875 2028.4688,754.9844 L2028.4688,757.7031 Q2027.8438,757.125 2027.25,756.8594 Q2026.6563,756.5781 2026.0313,756.5781 Q2024.6875,756.5781 2024,757.6563 Q2023.3125,758.7188 2023.3125,760.8125 Q2023.3125,762.9063 2024,763.9844 Q2024.6875,765.0469 2026.0313,765.0469 Q2026.6563,765.0469 2027.25,764.7813 Q2027.8438,764.5 2028.4688,763.9219 L2028.4688,766.6406 Z " fill="#000000"/><text fill="#000000" font-family="sans-serif" font-size="14" lengthAdjust="spacing" textLength="129" x="2039.5" y="765.8467">AtraccionMecanica</text><line style="stroke:#2F4858;stroke-width:0.5;" x1="2011.5" x2="2170.5" y1="777" y2="777"/><line style="stroke:#2F4858;stroke-width:0.5;" x1="2011.5" x2="2170.5" y1="785" y2="785"/></g><!--class Espectaculo--><g id="elem_Espectaculo"><rect codeLine="48" fill="#F6F8FF" height="48" id="Espectaculo" rx="7.5" ry="7.5" style="stroke:#2F4858;stroke-width:0.5;" width="117" x="1644" y="663"/><ellipse cx="1659" cy="679" fill="#ADD1B2" rx="11" ry="11" style="stroke:#181818;stroke-width:1.0;"/><path d="M1661.9688,684.6406 Q1661.3906,684.9375 1660.75,685.0781 Q1660.1094,685.2344 1659.4063,685.2344 Q1656.9063,685.2344 1655.5781,683.5938 Q1654.2656,681.9375 1654.2656,678.8125 Q1654.2656,675.6875 1655.5781,674.0313 Q1656.9063,672.375 1659.4063,672.375 Q1660.1094,672.375 1660.75,672.5313 Q1661.4063,672.6875 1661.9688,672.9844 L1661.9688,675.7031 Q1661.3438,675.125 1660.75,674.8594 Q1660.1563,674.5781 1659.5313,674.5781 Q1658.1875,674.5781 1657.5,675.6563 Q1656.8125,676.7188 1656.8125,678.8125 Q1656.8125,680.9063 1657.5,681.9844 Q1658.1875,683.0469 1659.5313,683.0469 Q1660.1563,683.0469 1660.75,682.7813 Q1661.3438,682.5 1661.9688,681.9219 L1661.9688,684.6406 Z " fill="#000000"/><text fill="#000000" font-family="sans-serif" font-size="14" lengthAdjust="spacing" textLength="85" x="1673" y="683.8467">Espectaculo</text><line style="stroke:#2F4858;stroke-width:0.5;" x1="1645" x2="1760" y1="695" y2="695"/><line style="stroke:#2F4858;stroke-width:0.5;" x1="1645" x2="1760" y1="703" y2="703"/></g><!--class NivelExclusividad--><g id="elem_NivelExclusividad"><rect codeLine="49" fill="#F6F8FF" height="48" id="NivelExclusividad" rx="7.5" ry="7.5" style="stroke:#2F4858;stroke-width:0.5;" width="147" x="2017.5" y="662"/><ellipse cx="2032.5" cy="678" fill="#EB937F" rx="11" ry="11" style="stroke:#181818;stroke-width:1.0;"/><path d="M2036.6094,684 L2028.8906,684 L2028.8906,671.6094 L2036.6094,671.6094 L2036.6094,673.7656 L2031.3438,673.7656 L2031.3438,676.4375 L2036.1094,676.4375 L2036.1094,678.5938 L2031.3438,678.5938 L2031.3438,681.8438 L2036.6094,681.8438 L2036.6094,684 Z " fill="#000000"/><text fill="#000000" font-family="sans-serif" font-size="14" lengthAdjust="spacing" textLength="115" x="2046.5" y="682.8467">NivelExclusividad</text><line style="stroke:#2F4858;stroke-width:0.5;" x1="2018.5" x2="2163.5" y1="694" y2="694"/><line style="stroke:#2F4858;stroke-width:0.5;" x1="2018.5" x2="2163.5" y1="702" y2="702"/></g><!--class NivelRiesgo--><g id="elem_NivelRiesgo"><rect codeLine="50" fill="#F6F8FF" height="48" id="NivelRiesgo" rx="7.5" ry="7.5" style="stroke:#2F4858;stroke-width:0.5;" width="112" x="2364.5" y="745"/><ellipse cx="2379.5" cy="761" fill="#EB937F" rx="11" ry="11" style="stroke:#181818;stroke-width:1.0;"/><path d="M2383.6094,767 L2375.8906,767 L2375.8906,754.6094 L2383.6094,754.6094 L2383.6094,756.7656 L2378.3438,756.7656 L2378.3438,759.4375 L2383.1094,759.4375 L2383.1094,761.5938 L2378.3438,761.5938 L2378.3438,764.8438 L2383.6094,764.8438 L2383.6094,767 Z " fill="#000000"/><text fill="#000000" font-family="sans-serif" font-size="14" lengthAdjust="spacing" textLength="80" x="2393.5" y="765.8467">NivelRiesgo</text><line style="stroke:#2F4858;stroke-width:0.5;" x1="2365.5" x2="2475.5" y1="777" y2="777"/><line style="stroke:#2F4858;stroke-width:0.5;" x1="2365.5" x2="2475.5" y1="785" y2="785"/></g><!--class LugarTrabajo--><g id="elem_LugarTrabajo"><rect codeLine="76" fill="#F6F8FF" height="56.2656" id="LugarTrabajo" rx="7.5" ry="7.5" style="stroke:#2F4858;stroke-width:0.5;" width="122" x="434" y="693"/><ellipse cx="449" cy="713.1328" fill="#B4A7E5" rx="11" ry="11" style="stroke:#181818;stroke-width:1.0;"/><path d="M444.9219,708.8984 L444.9219,706.7422 L452.3125,706.7422 L452.3125,708.8984 L449.8438,708.8984 L449.8438,716.9766 L452.3125,716.9766 L452.3125,719.1328 L444.9219,719.1328 L444.9219,716.9766 L447.3906,716.9766 L447.3906,708.8984 L444.9219,708.8984 Z " fill="#000000"/><text fill="#000000" font-family="sans-serif" font-size="12" font-style="italic" lengthAdjust="spacing" textLength="71" x="472.5" y="709.1387">&#171;Interface&#187;</text><text fill="#000000" font-family="sans-serif" font-size="14" font-style="italic" lengthAdjust="spacing" textLength="90" x="463" y="724.9639">LugarTrabajo</text><line style="stroke:#2F4858;stroke-width:0.5;" x1="435" x2="555" y1="733.2656" y2="733.2656"/><line style="stroke:#2F4858;stroke-width:0.5;" x1="435" x2="555" y1="741.2656" y2="741.2656"/></g><!--class AsignacionTurno--><g id="elem_AsignacionTurno"><rect codeLine="77" fill="#F6F8FF" height="48" id="AsignacionTurno" rx="7.5" ry="7.5" style="stroke:#2F4858;stroke-width:0.5;" width="148" x="59" y="754"/><ellipse cx="74" cy="770" fill="#ADD1B2" rx="11" ry="11" style="stroke:#181818;stroke-width:1.0;"/><path d="M76.9688,775.6406 Q76.3906,775.9375 75.75,776.0781 Q75.1094,776.2344 74.4063,776.2344 Q71.9063,776.2344 70.5781,774.5938 Q69.2656,772.9375 69.2656,769.8125 Q69.2656,766.6875 70.5781,765.0313 Q71.9063,763.375 74.4063,763.375 Q75.1094,763.375 75.75,763.5313 Q76.4063,763.6875 76.9688,763.9844 L76.9688,766.7031 Q76.3438,766.125 75.75,765.8594 Q75.1563,765.5781 74.5313,765.5781 Q73.1875,765.5781 72.5,766.6563 Q71.8125,767.7188 71.8125,769.8125 Q71.8125,771.9063 72.5,772.9844 Q73.1875,774.0469 74.5313,774.0469 Q75.1563,774.0469 75.75,773.7813 Q76.3438,773.5 76.9688,772.9219 L76.9688,775.6406 Z " fill="#000000"/><text fill="#000000" font-family="sans-serif" font-size="14" lengthAdjust="spacing" textLength="116" x="88" y="774.8467">AsignacionTurno</text><line style="stroke:#2F4858;stroke-width:0.5;" x1="60" x2="206" y1="786" y2="786"/><line style="stroke:#2F4858;stroke-width:0.5;" x1="60" x2="206" y1="794" y2="794"/></g><!--class Cafeteria--><g id="elem_Cafeteria"><rect codeLine="78" fill="#F6F8FF" height="48" id="Cafeteria" rx="7.5" ry="7.5" style="stroke:#2F4858;stroke-width:0.5;" width="93" x="842" y="676"/><ellipse cx="857" cy="692" fill="#ADD1B2" rx="11" ry="11" style="stroke:#181818;stroke-width:1.0;"/><path d="M859.9688,697.6406 Q859.3906,697.9375 858.75,698.0781 Q858.1094,698.2344 857.4063,698.2344 Q854.9063,698.2344 853.5781,696.5938 Q852.2656,694.9375 852.2656,691.8125 Q852.2656,688.6875 853.5781,687.0313 Q854.9063,685.375 857.4063,685.375 Q858.1094,685.375 858.75,685.5313 Q859.4063,685.6875 859.9688,685.9844 L859.9688,688.7031 Q859.3438,688.125 858.75,687.8594 Q858.1563,687.5781 857.5313,687.5781 Q856.1875,687.5781 855.5,688.6563 Q854.8125,689.7188 854.8125,691.8125 Q854.8125,693.9063 855.5,694.9844 Q856.1875,696.0469 857.5313,696.0469 Q858.1563,696.0469 858.75,695.7813 Q859.3438,695.5 859.9688,694.9219 L859.9688,697.6406 Z " fill="#000000"/><text fill="#000000" font-family="sans-serif" font-size="14" lengthAdjust="spacing" textLength="61" x="871" y="696.8467">Cafeteria</text><line style="stroke:#2F4858;stroke-width:0.5;" x1="843" x2="934" y1="708" y2="708"/><line style="stroke:#2F4858;stroke-width:0.5;" x1="843" x2="934" y1="716" y2="716"/></g><!--class Taquilla--><g id="elem_Taquilla"><rect codeLine="79" fill="#F6F8FF" height="48" id="Taquilla" rx="7.5" ry="7.5" style="stroke:#2F4858;stroke-width:0.5;" width="84" x="846.5" y="593"/><ellipse cx="861.5" cy="609" fill="#ADD1B2" rx="11" ry="11" style="stroke:#181818;stroke-width:1.0;"/><path d="M864.4688,614.6406 Q863.8906,614.9375 863.25,615.0781 Q862.6094,615.2344 861.9063,615.2344 Q859.4063,615.2344 858.0781,613.5938 Q856.7656,611.9375 856.7656,608.8125 Q856.7656,605.6875 858.0781,604.0313 Q859.4063,602.375 861.9063,602.375 Q862.6094,602.375 863.25,602.5313 Q863.9063,602.6875 864.4688,602.9844 L864.4688,605.7031 Q863.8438,605.125 863.25,604.8594 Q862.6563,604.5781 862.0313,604.5781 Q860.6875,604.5781 860,605.6563 Q859.3125,606.7188 859.3125,608.8125 Q859.3125,610.9063 860,611.9844 Q860.6875,613.0469 862.0313,613.0469 Q862.6563,613.0469 863.25,612.7813 Q863.8438,612.5 864.4688,611.9219 L864.4688,614.6406 Z " fill="#000000"/><text fill="#000000" font-family="sans-serif" font-size="14" lengthAdjust="spacing" textLength="52" x="875.5" y="613.8467">Taquilla</text><line style="stroke:#2F4858;stroke-width:0.5;" x1="847.5" x2="929.5" y1="625" y2="625"/><line style="stroke:#2F4858;stroke-width:0.5;" x1="847.5" x2="929.5" y1="633" y2="633"/></g><!--class Tienda--><g id="elem_Tienda"><rect codeLine="80" fill="#F6F8FF" height="48" id="Tienda" rx="7.5" ry="7.5" style="stroke:#2F4858;stroke-width:0.5;" width="79" x="849" y="759"/><ellipse cx="864" cy="775" fill="#ADD1B2" rx="11" ry="11" style="stroke:#181818;stroke-width:1.0;"/><path d="M866.9688,780.6406 Q866.3906,780.9375 865.75,781.0781 Q865.1094,781.2344 864.4063,781.2344 Q861.9063,781.2344 860.5781,779.5938 Q859.2656,777.9375 859.2656,774.8125 Q859.2656,771.6875 860.5781,770.0313 Q861.9063,768.375 864.4063,768.375 Q865.1094,768.375 865.75,768.5313 Q866.4063,768.6875 866.9688,768.9844 L866.9688,771.7031 Q866.3438,771.125 865.75,770.8594 Q865.1563,770.5781 864.5313,770.5781 Q863.1875,770.5781 862.5,771.6563 Q861.8125,772.7188 861.8125,774.8125 Q861.8125,776.9063 862.5,777.9844 Q863.1875,779.0469 864.5313,779.0469 Q865.1563,779.0469 865.75,778.7813 Q866.3438,778.5 866.9688,777.9219 L866.9688,780.6406 Z " fill="#000000"/><text fill="#000000" font-family="sans-serif" font-size="14" lengthAdjust="spacing" textLength="47" x="878" y="779.8467">Tienda</text><line style="stroke:#2F4858;stroke-width:0.5;" x1="850" x2="927" y1="791" y2="791"/><line style="stroke:#2F4858;stroke-width:0.5;" x1="850" x2="927" y1="799" y2="799"/></g><!--class Turno--><g id="elem_Turno"><rect codeLine="81" fill="#F6F8FF" height="48" id="Turno" rx="7.5" ry="7.5" style="stroke:#2F4858;stroke-width:0.5;" width="73" x="458.5" y="610"/><ellipse cx="473.5" cy="626" fill="#EB937F" rx="11" ry="11" style="stroke:#181818;stroke-width:1.0;"/><path d="M477.6094,632 L469.8906,632 L469.8906,619.6094 L477.6094,619.6094 L477.6094,621.7656 L472.3438,621.7656 L472.3438,624.4375 L477.1094,624.4375 L477.1094,626.5938 L472.3438,626.5938 L472.3438,629.8438 L477.6094,629.8438 L477.6094,632 Z " fill="#000000"/><text fill="#000000" font-family="sans-serif" font-size="14" lengthAdjust="spacing" textLength="41" x="487.5" y="630.8467">Turno</text><line style="stroke:#2F4858;stroke-width:0.5;" x1="459.5" x2="530.5" y1="642" y2="642"/><line style="stroke:#2F4858;stroke-width:0.5;" x1="459.5" x2="530.5" y1="650" y2="650"/></g><!--class CondicionClimatica--><g id="elem_CondicionClimatica"><rect codeLine="95" fill="#F6F8FF" height="48" id="CondicionClimatica" rx="7.5" ry="7.5" style="stroke:#2F4858;stroke-width:0.5;" width="162" x="2010" y="456"/><ellipse cx="2025" cy="472" fill="#EB937F" rx="11" ry="11" style="stroke:#181818;stroke-width:1.0;"/><path d="M2029.1094,478 L2021.3906,478 L2021.3906,465.6094 L2029.1094,465.6094 L2029.1094,467.7656 L2023.8438,467.7656 L2023.8438,470.4375 L2028.6094,470.4375 L2028.6094,472.5938 L2023.8438,472.5938 L2023.8438,475.8438 L2029.1094,475.8438 L2029.1094,478 Z " fill="#000000"/><text fill="#000000" font-family="sans-serif" font-size="14" lengthAdjust="spacing" textLength="130" x="2039" y="476.8467">CondicionClimatica</text><line style="stroke:#2F4858;stroke-width:0.5;" x1="2011" x2="2171" y1="488" y2="488"/><line style="stroke:#2F4858;stroke-width:0.5;" x1="2011" x2="2171" y1="496" y2="496"/></g><!--class RangoFechaHora--><g id="elem_RangoFechaHora"><rect codeLine="96" fill="#F6F8FF" height="48" id="RangoFechaHora" rx="7.5" ry="7.5" style="stroke:#2F4858;stroke-width:0.5;" width="151" x="2015.5" y="539"/><ellipse cx="2030.5" cy="555" fill="#ADD1B2" rx="11" ry="11" style="stroke:#181818;stroke-width:1.0;"/><path d="M2033.4688,560.6406 Q2032.8906,560.9375 2032.25,561.0781 Q2031.6094,561.2344 2030.9063,561.2344 Q2028.4063,561.2344 2027.0781,559.5938 Q2025.7656,557.9375 2025.7656,554.8125 Q2025.7656,551.6875 2027.0781,550.0313 Q2028.4063,548.375 2030.9063,548.375 Q2031.6094,548.375 2032.25,548.5313 Q2032.9063,548.6875 2033.4688,548.9844 L2033.4688,551.7031 Q2032.8438,551.125 2032.25,550.8594 Q2031.6563,550.5781 2031.0313,550.5781 Q2029.6875,550.5781 2029,551.6563 Q2028.3125,552.7188 2028.3125,554.8125 Q2028.3125,556.9063 2029,557.9844 Q2029.6875,559.0469 2031.0313,559.0469 Q2031.6563,559.0469 2032.25,558.7813 Q2032.8438,558.5 2033.4688,557.9219 L2033.4688,560.6406 Z " fill="#000000"/><text fill="#000000" font-family="sans-serif" font-size="14" lengthAdjust="spacing" textLength="119" x="2044.5" y="559.8467">RangoFechaHora</text><line style="stroke:#2F4858;stroke-width:0.5;" x1="2016.5" x2="2165.5" y1="571" y2="571"/><line style="stroke:#2F4858;stroke-width:0.5;" x1="2016.5" x2="2165.5" y1="579" y2="579"/></g><!--class CategoriaTiquete--><g id="elem_CategoriaTiquete"><rect codeLine="63" fill="#F6F8FF" height="48" id="CategoriaTiquete" rx="7.5" ry="7.5" style="stroke:#2F4858;stroke-width:0.5;" width="151" x="2345" y="167"/><ellipse cx="2360" cy="183" fill="#EB937F" rx="11" ry="11" style="stroke:#181818;stroke-width:1.0;"/><path d="M2364.1094,189 L2356.3906,189 L2356.3906,176.6094 L2364.1094,176.6094 L2364.1094,178.7656 L2358.8438,178.7656 L2358.8438,181.4375 L2363.6094,181.4375 L2363.6094,183.5938 L2358.8438,183.5938 L2358.8438,186.8438 L2364.1094,186.8438 L2364.1094,189 Z " fill="#000000"/><text fill="#000000" font-family="sans-serif" font-size="14" lengthAdjust="spacing" textLength="119" x="2374" y="187.8467">CategoriaTiquete</text><line style="stroke:#2F4858;stroke-width:0.5;" x1="2346" x2="2495" y1="199" y2="199"/><line style="stroke:#2F4858;stroke-width:0.5;" x1="2346" x2="2495" y1="207" y2="207"/></g><!--class Tiquete--><g id="elem_Tiquete"><rect codeLine="62" fill="#E9ECF5" height="56.2656" id="Tiquete" rx="7.5" ry="7.5" style="stroke:#7D8BA1;stroke-width:0.5;" width="94" x="1655.5" y="325"/><ellipse cx="1670.5" cy="345.1328" fill="#A9DCDF" rx="11" ry="11" style="stroke:#181818;stroke-width:1.0;"/><path d="M1670.6094,340.4766 L1669.4531,345.5547 L1671.7813,345.5547 L1670.6094,340.4766 Z M1669.125,338.2422 L1672.1094,338.2422 L1675.4688,350.6328 L1673.0156,350.6328 L1672.25,347.5703 L1668.9688,347.5703 L1668.2188,350.6328 L1665.7813,350.6328 L1669.125,338.2422 Z " fill="#000000"/><text fill="#000000" font-family="sans-serif" font-size="12" font-style="italic" lengthAdjust="spacing" textLength="66" x="1682.5" y="341.1387">&#171;Abstract&#187;</text><text fill="#000000" font-family="sans-serif" font-size="14" font-style="italic" lengthAdjust="spacing" textLength="53" x="1689" y="356.9639">Tiquete</text><line style="stroke:#7D8BA1;stroke-width:0.5;" x1="1656.5" x2="1748.5" y1="365.2656" y2="365.2656"/><line style="stroke:#7D8BA1;stroke-width:0.5;" x1="1656.5" x2="1748.5" y1="373.2656" y2="373.2656"/></g><!--class EntradaIndividual--><g id="elem_EntradaIndividual"><rect codeLine="64" fill="#F6F8FF" height="48" id="EntradaIndividual" rx="7.5" ry="7.5" style="stroke:#2F4858;stroke-width:0.5;" width="148" x="2017" y="333"/><ellipse cx="2032" cy="349" fill="#ADD1B2" rx="11" ry="11" style="stroke:#181818;stroke-width:1.0;"/><path d="M2034.9688,354.6406 Q2034.3906,354.9375 2033.75,355.0781 Q2033.1094,355.2344 2032.4063,355.2344 Q2029.9063,355.2344 2028.5781,353.5938 Q2027.2656,351.9375 2027.2656,348.8125 Q2027.2656,345.6875 2028.5781,344.0313 Q2029.9063,342.375 2032.4063,342.375 Q2033.1094,342.375 2033.75,342.5313 Q2034.4063,342.6875 2034.9688,342.9844 L2034.9688,345.7031 Q2034.3438,345.125 2033.75,344.8594 Q2033.1563,344.5781 2032.5313,344.5781 Q2031.1875,344.5781 2030.5,345.6563 Q2029.8125,346.7188 2029.8125,348.8125 Q2029.8125,350.9063 2030.5,351.9844 Q2031.1875,353.0469 2032.5313,353.0469 Q2033.1563,353.0469 2033.75,352.7813 Q2034.3438,352.5 2034.9688,351.9219 L2034.9688,354.6406 Z " fill="#000000"/><text fill="#000000" font-family="sans-serif" font-size="14" lengthAdjust="spacing" textLength="116" x="2046" y="353.8467">EntradaIndividual</text><line style="stroke:#2F4858;stroke-width:0.5;" x1="2018" x2="2164" y1="365" y2="365"/><line style="stroke:#2F4858;stroke-width:0.5;" x1="2018" x2="2164" y1="373" y2="373"/></g><!--class TiqueteGeneral--><g id="elem_TiqueteGeneral"><rect codeLine="65" fill="#F6F8FF" height="48" id="TiqueteGeneral" rx="7.5" ry="7.5" style="stroke:#2F4858;stroke-width:0.5;" width="139" x="2021.5" y="167"/><ellipse cx="2036.5" cy="183" fill="#ADD1B2" rx="11" ry="11" style="stroke:#181818;stroke-width:1.0;"/><path d="M2039.4688,188.6406 Q2038.8906,188.9375 2038.25,189.0781 Q2037.6094,189.2344 2036.9063,189.2344 Q2034.4063,189.2344 2033.0781,187.5938 Q2031.7656,185.9375 2031.7656,182.8125 Q2031.7656,179.6875 2033.0781,178.0313 Q2034.4063,176.375 2036.9063,176.375 Q2037.6094,176.375 2038.25,176.5313 Q2038.9063,176.6875 2039.4688,176.9844 L2039.4688,179.7031 Q2038.8438,179.125 2038.25,178.8594 Q2037.6563,178.5781 2037.0313,178.5781 Q2035.6875,178.5781 2035,179.6563 Q2034.3125,180.7188 2034.3125,182.8125 Q2034.3125,184.9063 2035,185.9844 Q2035.6875,187.0469 2037.0313,187.0469 Q2037.6563,187.0469 2038.25,186.7813 Q2038.8438,186.5 2039.4688,185.9219 L2039.4688,188.6406 Z " fill="#000000"/><text fill="#000000" font-family="sans-serif" font-size="14" lengthAdjust="spacing" textLength="107" x="2050.5" y="187.8467">TiqueteGeneral</text><line style="stroke:#2F4858;stroke-width:0.5;" x1="2022.5" x2="2159.5" y1="199" y2="199"/><line style="stroke:#2F4858;stroke-width:0.5;" x1="2022.5" x2="2159.5" y1="207" y2="207"/></g><!--class TiqueteTemporada--><g id="elem_TiqueteTemporada"><rect codeLine="66" fill="#F6F8FF" height="48" id="TiqueteTemporada" rx="7.5" ry="7.5" style="stroke:#2F4858;stroke-width:0.5;" width="164" x="2009" y="84"/><ellipse cx="2024" cy="100" fill="#ADD1B2" rx="11" ry="11" style="stroke:#181818;stroke-width:1.0;"/><path d="M2026.9688,105.6406 Q2026.3906,105.9375 2025.75,106.0781 Q2025.1094,106.2344 2024.4063,106.2344 Q2021.9063,106.2344 2020.5781,104.5938 Q2019.2656,102.9375 2019.2656,99.8125 Q2019.2656,96.6875 2020.5781,95.0313 Q2021.9063,93.375 2024.4063,93.375 Q2025.1094,93.375 2025.75,93.5313 Q2026.4063,93.6875 2026.9688,93.9844 L2026.9688,96.7031 Q2026.3438,96.125 2025.75,95.8594 Q2025.1563,95.5781 2024.5313,95.5781 Q2023.1875,95.5781 2022.5,96.6563 Q2021.8125,97.7188 2021.8125,99.8125 Q2021.8125,101.9063 2022.5,102.9844 Q2023.1875,104.0469 2024.5313,104.0469 Q2025.1563,104.0469 2025.75,103.7813 Q2026.3438,103.5 2026.9688,102.9219 L2026.9688,105.6406 Z " fill="#000000"/><text fill="#000000" font-family="sans-serif" font-size="14" lengthAdjust="spacing" textLength="132" x="2038" y="104.8467">TiqueteTemporada</text><line style="stroke:#2F4858;stroke-width:0.5;" x1="2010" x2="2172" y1="116" y2="116"/><line style="stroke:#2F4858;stroke-width:0.5;" x1="2010" x2="2172" y1="124" y2="124"/></g><!--class FastPass--><g id="elem_FastPass"><rect codeLine="67" fill="#F6F8FF" height="48" id="FastPass" rx="7.5" ry="7.5" style="stroke:#2F4858;stroke-width:0.5;" width="94" x="2044" y="250"/><ellipse cx="2059" cy="266" fill="#ADD1B2" rx="11" ry="11" style="stroke:#181818;stroke-width:1.0;"/><path d="M2061.9688,271.6406 Q2061.3906,271.9375 2060.75,272.0781 Q2060.1094,272.2344 2059.4063,272.2344 Q2056.9063,272.2344 2055.5781,270.5938 Q2054.2656,268.9375 2054.2656,265.8125 Q2054.2656,262.6875 2055.5781,261.0313 Q2056.9063,259.375 2059.4063,259.375 Q2060.1094,259.375 2060.75,259.5313 Q2061.4063,259.6875 2061.9688,259.9844 L2061.9688,262.7031 Q2061.3438,262.125 2060.75,261.8594 Q2060.1563,261.5781 2059.5313,261.5781 Q2058.1875,261.5781 2057.5,262.6563 Q2056.8125,263.7188 2056.8125,265.8125 Q2056.8125,267.9063 2057.5,268.9844 Q2058.1875,270.0469 2059.5313,270.0469 Q2060.1563,270.0469 2060.75,269.7813 Q2061.3438,269.5 2061.9688,268.9219 L2061.9688,271.6406 Z " fill="#000000"/><text fill="#000000" font-family="sans-serif" font-size="14" lengthAdjust="spacing" textLength="62" x="2073" y="270.8467">FastPass</text><line style="stroke:#2F4858;stroke-width:0.5;" x1="2045" x2="2137" y1="282" y2="282"/><line style="stroke:#2F4858;stroke-width:0.5;" x1="2045" x2="2137" y1="290" y2="290"/></g><!--class AsignacionInvalidaException--><g id="elem_AsignacionInvalidaException"><rect codeLine="100" fill="#F6F8FF" height="48" id="AsignacionInvalidaException" rx="7.5" ry="7.5" style="stroke:#2F4858;stroke-width:0.5;" width="225" x="382.5" y="1268"/><ellipse cx="397.5" cy="1284" fill="#ADD1B2" rx="11" ry="11" style="stroke:#181818;stroke-width:1.0;"/><path d="M400.4688,1289.6406 Q399.8906,1289.9375 399.25,1290.0781 Q398.6094,1290.2344 397.9063,1290.2344 Q395.4063,1290.2344 394.0781,1288.5938 Q392.7656,1286.9375 392.7656,1283.8125 Q392.7656,1280.6875 394.0781,1279.0313 Q395.4063,1277.375 397.9063,1277.375 Q398.6094,1277.375 399.25,1277.5313 Q399.9063,1277.6875 400.4688,1277.9844 L400.4688,1280.7031 Q399.8438,1280.125 399.25,1279.8594 Q398.6563,1279.5781 398.0313,1279.5781 Q396.6875,1279.5781 396,1280.6563 Q395.3125,1281.7188 395.3125,1283.8125 Q395.3125,1285.9063 396,1286.9844 Q396.6875,1288.0469 398.0313,1288.0469 Q398.6563,1288.0469 399.25,1287.7813 Q399.8438,1287.5 400.4688,1286.9219 L400.4688,1289.6406 Z " fill="#000000"/><text fill="#000000" font-family="sans-serif" font-size="14" lengthAdjust="spacing" textLength="193" x="411.5" y="1288.8467">AsignacionInvalidaException</text><line style="stroke:#2F4858;stroke-width:0.5;" x1="383.5" x2="606.5" y1="1300" y2="1300"/><line style="stroke:#2F4858;stroke-width:0.5;" x1="383.5" x2="606.5" y1="1308" y2="1308"/></g><!--class RuntimeException--><g id="elem_RuntimeException"><rect fill="#F6F8FF" height="48" id="RuntimeException" rx="7.5" ry="7.5" style="stroke:#2F4858;stroke-width:0.5;" width="158" x="54" y="1226"/><ellipse cx="69" cy="1242" fill="#ADD1B2" rx="11" ry="11" style="stroke:#181818;stroke-width:1.0;"/><path d="M71.9688,1247.6406 Q71.3906,1247.9375 70.75,1248.0781 Q70.1094,1248.2344 69.4063,1248.2344 Q66.9063,1248.2344 65.5781,1246.5938 Q64.2656,1244.9375 64.2656,1241.8125 Q64.2656,1238.6875 65.5781,1237.0313 Q66.9063,1235.375 69.4063,1235.375 Q70.1094,1235.375 70.75,1235.5313 Q71.4063,1235.6875 71.9688,1235.9844 L71.9688,1238.7031 Q71.3438,1238.125 70.75,1237.8594 Q70.1563,1237.5781 69.5313,1237.5781 Q68.1875,1237.5781 67.5,1238.6563 Q66.8125,1239.7188 66.8125,1241.8125 Q66.8125,1243.9063 67.5,1244.9844 Q68.1875,1246.0469 69.5313,1246.0469 Q70.1563,1246.0469 70.75,1245.7813 Q71.3438,1245.5 71.9688,1244.9219 L71.9688,1247.6406 Z " fill="#000000"/><text fill="#000000" font-family="sans-serif" font-size="14" lengthAdjust="spacing" textLength="126" x="83" y="1246.8467">RuntimeException</text><line style="stroke:#2F4858;stroke-width:0.5;" x1="55" x2="211" y1="1258" y2="1258"/><line style="stroke:#2F4858;stroke-width:0.5;" x1="55" x2="211" y1="1266" y2="1266"/></g><!--class AtraccionNoEncontradaException--><g id="elem_AtraccionNoEncontradaException"><rect codeLine="101" fill="#F6F8FF" height="48" id="AtraccionNoEncontradaException" rx="7.5" ry="7.5" style="stroke:#2F4858;stroke-width:0.5;" width="262" x="364" y="1185"/><ellipse cx="379" cy="1201" fill="#ADD1B2" rx="11" ry="11" style="stroke:#181818;stroke-width:1.0;"/><path d="M381.9688,1206.6406 Q381.3906,1206.9375 380.75,1207.0781 Q380.1094,1207.2344 379.4063,1207.2344 Q376.9063,1207.2344 375.5781,1205.5938 Q374.2656,1203.9375 374.2656,1200.8125 Q374.2656,1197.6875 375.5781,1196.0313 Q376.9063,1194.375 379.4063,1194.375 Q380.1094,1194.375 380.75,1194.5313 Q381.4063,1194.6875 381.9688,1194.9844 L381.9688,1197.7031 Q381.3438,1197.125 380.75,1196.8594 Q380.1563,1196.5781 379.5313,1196.5781 Q378.1875,1196.5781 377.5,1197.6563 Q376.8125,1198.7188 376.8125,1200.8125 Q376.8125,1202.9063 377.5,1203.9844 Q378.1875,1205.0469 379.5313,1205.0469 Q380.1563,1205.0469 380.75,1204.7813 Q381.3438,1204.5 381.9688,1203.9219 L381.9688,1206.6406 Z " fill="#000000"/><text fill="#000000" font-family="sans-serif" font-size="14" lengthAdjust="spacing" textLength="230" x="393" y="1205.8467">AtraccionNoEncontradaException</text><line style="stroke:#2F4858;stroke-width:0.5;" x1="365" x2="625" y1="1217" y2="1217"/><line style="stroke:#2F4858;stroke-width:0.5;" x1="365" x2="625" y1="1225" y2="1225"/></g><!--class AtraccionNoOperativaException--><g id="elem_AtraccionNoOperativaException"><rect codeLine="102" fill="#F6F8FF" height="48" id="AtraccionNoOperativaException" rx="7.5" ry="7.5" style="stroke:#2F4858;stroke-width:0.5;" width="248" x="371" y="1102"/><ellipse cx="386" cy="1118" fill="#ADD1B2" rx="11" ry="11" style="stroke:#181818;stroke-width:1.0;"/><path d="M388.9688,1123.6406 Q388.3906,1123.9375 387.75,1124.0781 Q387.1094,1124.2344 386.4063,1124.2344 Q383.9063,1124.2344 382.5781,1122.5938 Q381.2656,1120.9375 381.2656,1117.8125 Q381.2656,1114.6875 382.5781,1113.0313 Q383.9063,1111.375 386.4063,1111.375 Q387.1094,1111.375 387.75,1111.5313 Q388.4063,1111.6875 388.9688,1111.9844 L388.9688,1114.7031 Q388.3438,1114.125 387.75,1113.8594 Q387.1563,1113.5781 386.5313,1113.5781 Q385.1875,1113.5781 384.5,1114.6563 Q383.8125,1115.7188 383.8125,1117.8125 Q383.8125,1119.9063 384.5,1120.9844 Q385.1875,1122.0469 386.5313,1122.0469 Q387.1563,1122.0469 387.75,1121.7813 Q388.3438,1121.5 388.9688,1120.9219 L388.9688,1123.6406 Z " fill="#000000"/><text fill="#000000" font-family="sans-serif" font-size="14" lengthAdjust="spacing" textLength="216" x="400" y="1122.8467">AtraccionNoOperativaException</text><line style="stroke:#2F4858;stroke-width:0.5;" x1="372" x2="618" y1="1134" y2="1134"/><line style="stroke:#2F4858;stroke-width:0.5;" x1="372" x2="618" y1="1142" y2="1142"/></g><!--class MotivoNoOperativa--><g id="elem_MotivoNoOperativa"><rect codeLine="103" fill="#F6F8FF" height="48" id="MotivoNoOperativa" rx="7.5" ry="7.5" style="stroke:#2F4858;stroke-width:0.5;" width="161" x="52.5" y="1354"/><ellipse cx="67.5" cy="1370" fill="#EB937F" rx="11" ry="11" style="stroke:#181818;stroke-width:1.0;"/><path d="M71.6094,1376 L63.8906,1376 L63.8906,1363.6094 L71.6094,1363.6094 L71.6094,1365.7656 L66.3438,1365.7656 L66.3438,1368.4375 L71.1094,1368.4375 L71.1094,1370.5938 L66.3438,1370.5938 L66.3438,1373.8438 L71.6094,1373.8438 L71.6094,1376 Z " fill="#000000"/><text fill="#000000" font-family="sans-serif" font-size="14" lengthAdjust="spacing" textLength="129" x="81.5" y="1374.8467">MotivoNoOperativa</text><line style="stroke:#2F4858;stroke-width:0.5;" x1="53.5" x2="212.5" y1="1386" y2="1386"/><line style="stroke:#2F4858;stroke-width:0.5;" x1="53.5" x2="212.5" y1="1394" y2="1394"/></g><!--class CapacitacionInsuficienteException--><g id="elem_CapacitacionInsuficienteException"><rect codeLine="104" fill="#F6F8FF" height="48" id="CapacitacionInsuficienteException" rx="7.5" ry="7.5" style="stroke:#2F4858;stroke-width:0.5;" width="267" x="755" y="1268"/><ellipse cx="770" cy="1284" fill="#ADD1B2" rx="11" ry="11" style="stroke:#181818;stroke-width:1.0;"/><path d="M772.9688,1289.6406 Q772.3906,1289.9375 771.75,1290.0781 Q771.1094,1290.2344 770.4063,1290.2344 Q767.9063,1290.2344 766.5781,1288.5938 Q765.2656,1286.9375 765.2656,1283.8125 Q765.2656,1280.6875 766.5781,1279.0313 Q767.9063,1277.375 770.4063,1277.375 Q771.1094,1277.375 771.75,1277.5313 Q772.4063,1277.6875 772.9688,1277.9844 L772.9688,1280.7031 Q772.3438,1280.125 771.75,1279.8594 Q771.1563,1279.5781 770.5313,1279.5781 Q769.1875,1279.5781 768.5,1280.6563 Q767.8125,1281.7188 767.8125,1283.8125 Q767.8125,1285.9063 768.5,1286.9844 Q769.1875,1288.0469 770.5313,1288.0469 Q771.1563,1288.0469 771.75,1287.7813 Q772.3438,1287.5 772.9688,1286.9219 L772.9688,1289.6406 Z " fill="#000000"/><text fill="#000000" font-family="sans-serif" font-size="14" lengthAdjust="spacing" textLength="235" x="784" y="1288.8467">CapacitacionInsuficienteException</text><line style="stroke:#2F4858;stroke-width:0.5;" x1="756" x2="1021" y1="1300" y2="1300"/><line style="stroke:#2F4858;stroke-width:0.5;" x1="756" x2="1021" y1="1308" y2="1308"/></g><!--class DatosInvalidosException--><g id="elem_DatosInvalidosException"><rect codeLine="105" fill="#F6F8FF" height="48" id="DatosInvalidosException" rx="7.5" ry="7.5" style="stroke:#2F4858;stroke-width:0.5;" width="200" x="395" y="1019"/><ellipse cx="410" cy="1035" fill="#ADD1B2" rx="11" ry="11" style="stroke:#181818;stroke-width:1.0;"/><path d="M412.9688,1040.6406 Q412.3906,1040.9375 411.75,1041.0781 Q411.1094,1041.2344 410.4063,1041.2344 Q407.9063,1041.2344 406.5781,1039.5938 Q405.2656,1037.9375 405.2656,1034.8125 Q405.2656,1031.6875 406.5781,1030.0313 Q407.9063,1028.375 410.4063,1028.375 Q411.1094,1028.375 411.75,1028.5313 Q412.4063,1028.6875 412.9688,1028.9844 L412.9688,1031.7031 Q412.3438,1031.125 411.75,1030.8594 Q411.1563,1030.5781 410.5313,1030.5781 Q409.1875,1030.5781 408.5,1031.6563 Q407.8125,1032.7188 407.8125,1034.8125 Q407.8125,1036.9063 408.5,1037.9844 Q409.1875,1039.0469 410.5313,1039.0469 Q411.1563,1039.0469 411.75,1038.7813 Q412.3438,1038.5 412.9688,1037.9219 L412.9688,1040.6406 Z " fill="#000000"/><text fill="#000000" font-family="sans-serif" font-size="14" lengthAdjust="spacing" textLength="168" x="424" y="1039.8467">DatosInvalidosException</text><line style="stroke:#2F4858;stroke-width:0.5;" x1="396" x2="594" y1="1051" y2="1051"/><line style="stroke:#2F4858;stroke-width:0.5;" x1="396" x2="594" y1="1059" y2="1059"/></g><!--class EmpleadoNoEncontradoException--><g id="elem_EmpleadoNoEncontradoException"><rect codeLine="106" fill="#F6F8FF" height="48" id="EmpleadoNoEncontradoException" rx="7.5" ry="7.5" style="stroke:#2F4858;stroke-width:0.5;" width="268" x="361" y="1434"/><ellipse cx="376" cy="1450" fill="#ADD1B2" rx="11" ry="11" style="stroke:#181818;stroke-width:1.0;"/><path d="M378.9688,1455.6406 Q378.3906,1455.9375 377.75,1456.0781 Q377.1094,1456.2344 376.4063,1456.2344 Q373.9063,1456.2344 372.5781,1454.5938 Q371.2656,1452.9375 371.2656,1449.8125 Q371.2656,1446.6875 372.5781,1445.0313 Q373.9063,1443.375 376.4063,1443.375 Q377.1094,1443.375 377.75,1443.5313 Q378.4063,1443.6875 378.9688,1443.9844 L378.9688,1446.7031 Q378.3438,1446.125 377.75,1445.8594 Q377.1563,1445.5781 376.5313,1445.5781 Q375.1875,1445.5781 374.5,1446.6563 Q373.8125,1447.7188 373.8125,1449.8125 Q373.8125,1451.9063 374.5,1452.9844 Q375.1875,1454.0469 376.5313,1454.0469 Q377.1563,1454.0469 377.75,1453.7813 Q378.3438,1453.5 378.9688,1452.9219 L378.9688,1455.6406 Z " fill="#000000"/><text fill="#000000" font-family="sans-serif" font-size="14" lengthAdjust="spacing" textLength="236" x="390" y="1454.8467">EmpleadoNoEncontradoException</text><line style="stroke:#2F4858;stroke-width:0.5;" x1="362" x2="628" y1="1466" y2="1466"/><line style="stroke:#2F4858;stroke-width:0.5;" x1="362" x2="628" y1="1474" y2="1474"/></g><!--class TiqueteInvalidoException--><g id="elem_TiqueteInvalidoException"><rect codeLine="107" fill="#F6F8FF" height="48" id="TiqueteInvalidoException" rx="7.5" ry="7.5" style="stroke:#2F4858;stroke-width:0.5;" width="204" x="393" y="1351"/><ellipse cx="408" cy="1367" fill="#ADD1B2" rx="11" ry="11" style="stroke:#181818;stroke-width:1.0;"/><path d="M410.9688,1372.6406 Q410.3906,1372.9375 409.75,1373.0781 Q409.1094,1373.2344 408.4063,1373.2344 Q405.9063,1373.2344 404.5781,1371.5938 Q403.2656,1369.9375 403.2656,1366.8125 Q403.2656,1363.6875 404.5781,1362.0313 Q405.9063,1360.375 408.4063,1360.375 Q409.1094,1360.375 409.75,1360.5313 Q410.4063,1360.6875 410.9688,1360.9844 L410.9688,1363.7031 Q410.3438,1363.125 409.75,1362.8594 Q409.1563,1362.5781 408.5313,1362.5781 Q407.1875,1362.5781 406.5,1363.6563 Q405.8125,1364.7188 405.8125,1366.8125 Q405.8125,1368.9063 406.5,1369.9844 Q407.1875,1371.0469 408.5313,1371.0469 Q409.1563,1371.0469 409.75,1370.7813 Q410.3438,1370.5 410.9688,1369.9219 L410.9688,1372.6406 Z " fill="#000000"/><text fill="#000000" font-family="sans-serif" font-size="14" lengthAdjust="spacing" textLength="172" x="422" y="1371.8467">TiqueteInvalidoException</text><line style="stroke:#2F4858;stroke-width:0.5;" x1="394" x2="596" y1="1383" y2="1383"/><line style="stroke:#2F4858;stroke-width:0.5;" x1="394" x2="596" y1="1391" y2="1391"/></g><!--class TiqueteYaUtilizadoException--><g id="elem_TiqueteYaUtilizadoException"><rect codeLine="108" fill="#F6F8FF" height="48" id="TiqueteYaUtilizadoException" rx="7.5" ry="7.5" style="stroke:#2F4858;stroke-width:0.5;" width="228" x="381" y="1517"/><ellipse cx="396" cy="1533" fill="#ADD1B2" rx="11" ry="11" style="stroke:#181818;stroke-width:1.0;"/><path d="M398.9688,1538.6406 Q398.3906,1538.9375 397.75,1539.0781 Q397.1094,1539.2344 396.4063,1539.2344 Q393.9063,1539.2344 392.5781,1537.5938 Q391.2656,1535.9375 391.2656,1532.8125 Q391.2656,1529.6875 392.5781,1528.0313 Q393.9063,1526.375 396.4063,1526.375 Q397.1094,1526.375 397.75,1526.5313 Q398.4063,1526.6875 398.9688,1526.9844 L398.9688,1529.7031 Q398.3438,1529.125 397.75,1528.8594 Q397.1563,1528.5781 396.5313,1528.5781 Q395.1875,1528.5781 394.5,1529.6563 Q393.8125,1530.7188 393.8125,1532.8125 Q393.8125,1534.9063 394.5,1535.9844 Q395.1875,1537.0469 396.5313,1537.0469 Q397.1563,1537.0469 397.75,1536.7813 Q398.3438,1536.5 398.9688,1535.9219 L398.9688,1538.6406 Z " fill="#000000"/><text fill="#000000" font-family="sans-serif" font-size="14" lengthAdjust="spacing" textLength="196" x="410" y="1537.8467">TiqueteYaUtilizadoException</text><line style="stroke:#2F4858;stroke-width:0.5;" x1="382" x2="608" y1="1549" y2="1549"/><line style="stroke:#2F4858;stroke-width:0.5;" x1="382" x2="608" y1="1557" y2="1557"/></g><!--class IllegalStateException--><g id="elem_IllegalStateException"><rect fill="#F6F8FF" height="48" id="IllegalStateException" rx="7.5" ry="7.5" style="stroke:#2F4858;stroke-width:0.5;" width="174" x="46" y="1517"/><ellipse cx="61" cy="1533" fill="#ADD1B2" rx="11" ry="11" style="stroke:#181818;stroke-width:1.0;"/><path d="M63.9688,1538.6406 Q63.3906,1538.9375 62.75,1539.0781 Q62.1094,1539.2344 61.4063,1539.2344 Q58.9063,1539.2344 57.5781,1537.5938 Q56.2656,1535.9375 56.2656,1532.8125 Q56.2656,1529.6875 57.5781,1528.0313 Q58.9063,1526.375 61.4063,1526.375 Q62.1094,1526.375 62.75,1526.5313 Q63.4063,1526.6875 63.9688,1526.9844 L63.9688,1529.7031 Q63.3438,1529.125 62.75,1528.8594 Q62.1563,1528.5781 61.5313,1528.5781 Q60.1875,1528.5781 59.5,1529.6563 Q58.8125,1530.7188 58.8125,1532.8125 Q58.8125,1534.9063 59.5,1535.9844 Q60.1875,1537.0469 61.5313,1537.0469 Q62.1563,1537.0469 62.75,1536.7813 Q63.3438,1536.5 63.9688,1535.9219 L63.9688,1538.6406 Z " fill="#000000"/><text fill="#000000" font-family="sans-serif" font-size="14" lengthAdjust="spacing" textLength="142" x="75" y="1537.8467">IllegalStateException</text><line style="stroke:#2F4858;stroke-width:0.5;" x1="47" x2="219" y1="1549" y2="1549"/><line style="stroke:#2F4858;stroke-width:0.5;" x1="47" x2="219" y1="1557" y2="1557"/></g><!--reverse link Usuario to Cliente--><g id="link_Usuario_Cliente"><path d="M955.8,405.53 C1044.27,404.89 1198.09,403.79 1269.94,403.28 " fill="none" id="Usuario-backto-Cliente" style="stroke:#33658A;stroke-width:1.0;"/><polygon fill="none" points="955.64,412.53,935.59,405.67,955.54,398.53,955.64,412.53" style="stroke:#33658A;stroke-width:1.0;"/></g><!--reverse link Usuario to Empleado--><g id="link_Usuario_Empleado"><path d="M954.77,428.94 C997.7,444.03 1046,461 1046,461 C1046,461 1054,507 1054,507 C1054,507 1193,517 1193,517 C1193,517 1213,968 1213,968 C1213,968 1255.58,1015.91 1284.03,1047.91 " fill="none" id="Usuario-backto-Empleado" style="stroke:#33658A;stroke-width:1.0;"/><polygon fill="none" points="952.16,435.44,935.61,422.2,956.8,422.23,952.16,435.44" style="stroke:#33658A;stroke-width:1.0;"/></g><!--reverse link Empleado to Administrador--><g id="link_Empleado_Administrador"><path d="M1347.01,1119.96 C1370.56,1148.72 1397,1181 1397,1181 C1397,1181 1427,1369 1427,1369 C1427,1369 1595,1379 1595,1379 C1595,1379 1625,1440 1625,1440 C1625,1440 1645.65,1453.77 1665.49,1466.99 " fill="none" id="Empleado-backto-Administrador" style="stroke:#33658A;stroke-width:1.0;"/><polygon fill="none" points="1341.3,1124.05,1334.05,1104.14,1352.13,1115.18,1341.3,1124.05" style="stroke:#33658A;stroke-width:1.0;"/></g><!--link Administrador to Empleado--><g id="link_Administrador_Empleado"><path codeLine="39" d="M1665.49,1466.99 C1645.65,1453.77 1625,1440 1625,1440 C1625,1440 1595,1372 1595,1372 C1595,1372 1427,1336 1427,1336 C1427,1336 1397,1181 1397,1181 C1397,1181 1362.67,1139.09 1337.39,1108.22 " fill="none" id="Administrador-to-Empleado" style="stroke:#33658A;stroke-width:1.0;stroke-dasharray:7.0,7.0;"/><polygon fill="#33658A" points="1334.05,1104.14,1336.659,1113.637,1337.2185,1108.0079,1342.8476,1108.5674,1334.05,1104.14" style="stroke:#33658A;stroke-width:1.0;"/><text fill="#000000" font-family="sans-serif" font-size="13" lengthAdjust="spacing" textLength="47" x="1487.5" y="1332.0669">gestion</text></g><!--reverse link Empleado to Cajero--><g id="link_Empleado_Cajero"><path d="M1381.03,1075.28 C1464.1,1074.43 1599.51,1073.04 1664.46,1072.38 " fill="none" id="Empleado-backto-Cajero" style="stroke:#33658A;stroke-width:1.0;"/><polygon fill="none" points="1380.92,1082.28,1360.85,1075.49,1380.78,1068.28,1380.92,1082.28" style="stroke:#33658A;stroke-width:1.0;"/></g><!--reverse link Empleado to Cocinero--><g id="link_Empleado_Cocinero"><path d="M1347.01,1119.96 C1370.56,1148.72 1397,1181 1397,1181 C1397,1181 1427,1240 1427,1240 C1427,1240 1577.01,1284.27 1655.25,1307.35 " fill="none" id="Empleado-backto-Cocinero" style="stroke:#33658A;stroke-width:1.0;"/><polygon fill="none" points="1341.3,1124.05,1334.05,1104.14,1352.13,1115.18,1341.3,1124.05" style="stroke:#33658A;stroke-width:1.0;"/></g><!--reverse link Empleado to OperarioAtraccion--><g id="link_Empleado_OperarioAtraccion"><path d="M1378.37,1112.59 C1403.93,1126.47 1427,1139 1427,1139 C1427,1139 1553.45,1184.6 1634.7,1213.91 " fill="none" id="Empleado-backto-OperarioAtraccion" style="stroke:#33658A;stroke-width:1.0;"/><polygon fill="none" points="1374.77,1118.6,1360.53,1102.9,1381.45,1106.29,1374.77,1118.6" style="stroke:#33658A;stroke-width:1.0;"/></g><!--reverse link Empleado to ServicioGeneral--><g id="link_Empleado_ServicioGeneral"><path d="M1380.76,1090.11 C1452.04,1104.53 1562.05,1126.79 1632.91,1141.12 " fill="none" id="Empleado-backto-ServicioGeneral" style="stroke:#33658A;stroke-width:1.0;"/><polygon fill="none" points="1379.07,1096.91,1360.85,1086.09,1381.84,1083.19,1379.07,1096.91" style="stroke:#33658A;stroke-width:1.0;"/></g><!--reverse link Empleado to Capacitacion--><g id="link_Empleado_Capacitacion"><path codeLine="37" d="M1342.45,1114.4 C1367.01,1144.38 1397,1181 1397,1181 C1397,1181 1427,1295 1427,1295 C1427,1295 1595,1315 1595,1315 C1595,1315 1625,1380 1625,1380 C1625,1380 1905.28,1440.27 2030.64,1467.23 " fill="none" id="Empleado-backto-Capacitacion" style="stroke:#33658A;stroke-width:1.0;"/><polygon fill="none" points="1334.05,1104.14,1334.7597,1111.3161,1341.6567,1113.421,1340.947,1106.2449,1334.05,1104.14" style="stroke:#33658A;stroke-width:1.0;"/><text fill="#000000" font-family="sans-serif" font-size="13" lengthAdjust="spacing" textLength="95" x="1655" y="1376.0669">capacitaciones</text><text fill="#000000" font-family="sans-serif" font-size="13" lengthAdjust="spacing" textLength="8" x="1330.6866" y="1124.4333">1</text><text fill="#000000" font-family="sans-serif" font-size="13" lengthAdjust="spacing" textLength="23" x="1999.7803" y="1478.7278">0..*</text></g><!--link Administrador to Capacitacion--><g id="link_Administrador_Capacitacion"><path codeLine="38" d="M1766.03,1489.22 C1837.38,1487.19 1953.5,1483.88 2025.62,1481.83 " fill="none" id="Administrador-to-Capacitacion" style="stroke:#33658A;stroke-width:1.0;stroke-dasharray:7.0,7.0;"/><polygon fill="#33658A" points="2030.74,1481.69,2021.6294,1477.9487,2025.742,1481.8328,2021.8579,1485.9454,2030.74,1481.69" style="stroke:#33658A;stroke-width:1.0;"/><text fill="#000000" font-family="sans-serif" font-size="13" lengthAdjust="spacing" textLength="78" x="1855" y="1479.0669">autorizacion</text></g><!--link Cajero to Usuario--><g id="link_Cajero_Usuario"><path codeLine="40" d="M1681.47,1047.74 C1650.62,1010.37 1595,943 1595,943 C1595,943 1213,909 1213,909 C1213,909 1193,510 1193,510 C1193,510 1026.84,453.06 940.41,423.45 " fill="none" id="Cajero-to-Usuario" style="stroke:#33658A;stroke-width:1.0;stroke-dasharray:7.0,7.0;"/><polygon fill="#33658A" points="935.6,421.8,942.825,428.4932,940.3319,423.4154,945.4097,420.9222,935.6,421.8" style="stroke:#33658A;stroke-width:1.0;"/><text fill="#000000" font-family="sans-serif" font-size="13" lengthAdjust="spacing" textLength="132" x="1244" y="905.0669">aplicacionDescuento</text></g><!--reverse link ElementoParque to Atraccion--><g id="link_ElementoParque_Atraccion"><path d="M1399.15,725.67 C1478.08,757.6 1590.83,803.22 1653.97,828.77 " fill="none" id="ElementoParque-backto-Atraccion" style="stroke:#33658A;stroke-width:1.0;"/><polygon fill="none" points="1396.28,732.06,1380.36,718.07,1401.53,719.08,1396.28,732.06" style="stroke:#33658A;stroke-width:1.0;"/></g><!--reverse link LugarTrabajo to Atraccion--><g id="link_LugarTrabajo_Atraccion"><path d="M575.24,693.59 C603.74,683.74 629,675 629,675 C629,675 755,575 755,575 C755,575 1046,575 1046,575 C1046,575 1193,638 1193,638 C1193,638 1213,933 1213,933 C1213,933 1427,977 1427,977 C1427,977 1595,977 1595,977 C1595,977 1646.78,914.28 1678.13,876.31 " fill="none" id="LugarTrabajo-backto-Atraccion" style="stroke:#33658A;stroke-width:1.0;stroke-dasharray:7.0,7.0;"/><polygon fill="none" points="577.46,700.23,556.27,700.15,572.89,687,577.46,700.23" style="stroke:#33658A;stroke-width:1.0;"/></g><!--reverse link Atraccion to AtraccionCultural--><g id="link_Atraccion_AtraccionCultural"><path d="M1771.36,848.7 C1840.17,849.41 1946.31,850.51 2016.94,851.24 " fill="none" id="Atraccion-backto-AtraccionCultural" style="stroke:#33658A;stroke-width:1.0;"/><polygon fill="none" points="1771.21,855.7,1751.28,848.49,1771.35,841.7,1771.21,855.7" style="stroke:#33658A;stroke-width:1.0;"/></g><!--reverse link Atraccion to AtraccionMecanica--><g id="link_Atraccion_AtraccionMecanica"><path d="M1770.85,837.2 C1852.12,824.18 1978,804 1978,804 C1978,804 1993.59,799.13 2013.13,793.02 " fill="none" id="Atraccion-backto-AtraccionMecanica" style="stroke:#33658A;stroke-width:1.0;"/><polygon fill="none" points="1771.86,844.13,1751,840.39,1769.64,830.31,1771.86,844.13" style="stroke:#33658A;stroke-width:1.0;"/></g><!--reverse link ElementoParque to Espectaculo--><g id="link_ElementoParque_Espectaculo"><path d="M1403.31,689.29 C1477.87,688.72 1580.48,687.93 1643.82,687.44 " fill="none" id="ElementoParque-backto-Espectaculo" style="stroke:#33658A;stroke-width:1.0;"/><polygon fill="none" points="1403.13,696.29,1383.08,689.45,1403.02,682.29,1403.13,696.29" style="stroke:#33658A;stroke-width:1.0;"/></g><!--reverse link ElementoParque to CondicionClimatica--><g id="link_ElementoParque_CondicionClimatica"><path codeLine="51" d="M1396.06,667.07 C1547.59,626.22 1862.19,541.41 2010,501.57 " fill="none" id="ElementoParque-backto-CondicionClimatica" style="stroke:#33658A;stroke-width:1.0;"/><polygon fill="none" points="1383.24,670.53,1390.072,672.8374,1394.8296,667.4184,1387.9976,665.111,1383.24,670.53" style="stroke:#33658A;stroke-width:1.0;"/><text fill="#000000" font-family="sans-serif" font-size="13" lengthAdjust="spacing" textLength="113" x="1646" y="561.0669">climaNoPermitido</text><text fill="#000000" font-family="sans-serif" font-size="13" lengthAdjust="spacing" textLength="8" x="1391.2054" y="681.3556">1</text><text fill="#000000" font-family="sans-serif" font-size="13" lengthAdjust="spacing" textLength="23" x="1979.0508" y="516.1408">0..*</text></g><!--reverse link Atraccion to Empleado--><g id="link_Atraccion_Empleado"><path codeLine="52" d="M1677.19,887.72 C1645.76,939.07 1595,1022 1595,1022 C1595,1022 1442.24,1051.05 1360.79,1066.53 " fill="none" id="Atraccion-backto-Empleado" style="stroke:#33658A;stroke-width:1.0;"/><polygon fill="none" points="1684.15,876.34,1677.6077,879.3729,1677.891,886.5784,1684.4333,883.5455,1684.15,876.34" style="stroke:#33658A;stroke-width:1.0;"/><text fill="#000000" font-family="sans-serif" font-size="13" lengthAdjust="spacing" textLength="137" x="1442.5" y="1018.0669">empleadosAsignados</text><text fill="#000000" font-family="sans-serif" font-size="13" lengthAdjust="spacing" textLength="8" x="1671.2609" y="896.2324">1</text><text fill="#000000" font-family="sans-serif" font-size="13" lengthAdjust="spacing" textLength="23" x="1368.3816" y="1078.3487">0..*</text></g><!--link Atraccion to NivelExclusividad--><g id="link_Atraccion_NivelExclusividad"><path codeLine="53" d="M1751.14,830.11 C1779.5,819.46 1810,808 1810,808 C1810,808 1978,746 1978,746 C1978,746 1986,727 1986,727 C1986,727 2006.26,719.01 2028.9,710.09 " fill="none" id="Atraccion-NivelExclusividad" style="stroke:#33658A;stroke-width:1.0;"/><text fill="#000000" font-family="sans-serif" font-size="13" lengthAdjust="spacing" textLength="106" x="1841" y="742.0669">nivelExclusividad</text><text fill="#000000" font-family="sans-serif" font-size="13" lengthAdjust="spacing" textLength="8" x="1758.8715" y="840.6411">1</text><text fill="#000000" font-family="sans-serif" font-size="13" lengthAdjust="spacing" textLength="8" x="2004.7881" y="729.8731">1</text></g><!--reverse link Atraccion to Capacitacion--><g id="link_Atraccion_Capacitacion"><path codeLine="54" d="M1727.65,887.49 C1800.5,1006.62 2016.7,1360.14 2075.24,1455.86 " fill="none" id="Atraccion-backto-Capacitacion" style="stroke:#33658A;stroke-width:1.0;"/><polygon fill="none" points="1720.86,876.38,1720.5808,883.5857,1727.1249,886.6148,1727.404,879.4091,1720.86,876.38" style="stroke:#33658A;stroke-width:1.0;"/><text fill="#000000" font-family="sans-serif" font-size="13" lengthAdjust="spacing" textLength="166" x="1811" y="1022.0669">capacitacionesRequeridas</text><text fill="#000000" font-family="sans-serif" font-size="13" lengthAdjust="spacing" textLength="8" x="1716.0012" y="896.2811">1</text><text fill="#000000" font-family="sans-serif" font-size="13" lengthAdjust="spacing" textLength="23" x="2045.2546" y="1444.8362">0..*</text></g><!--link AtraccionMecanica to NivelRiesgo--><g id="link_AtraccionMecanica_NivelRiesgo"><path codeLine="55" d="M2171.7,769 C2231.43,769 2311.64,769 2364.41,769 " fill="none" id="AtraccionMecanica-NivelRiesgo" style="stroke:#33658A;stroke-width:1.0;"/><text fill="#000000" font-family="sans-serif" font-size="13" lengthAdjust="spacing" textLength="71" x="2224" y="765.0669">nivelRiesgo</text><text fill="#000000" font-family="sans-serif" font-size="13" lengthAdjust="spacing" textLength="8" x="2179.5083" y="781.7644">1</text><text fill="#000000" font-family="sans-serif" font-size="13" lengthAdjust="spacing" textLength="8" x="2348.3354" y="782.0836">1</text></g><!--reverse link Espectaculo to RangoFechaHora--><g id="link_Espectaculo_RangoFechaHora"><path codeLine="56" d="M1773.71,669.35 C1855.04,648.91 1978,618 1978,618 C1978,618 2010.78,601.9 2040.88,587.12 " fill="none" id="Espectaculo-backto-RangoFechaHora" style="stroke:#33658A;stroke-width:1.0;"/><polygon fill="none" points="1761.04,672.54,1767.8342,674.9563,1772.6778,669.6141,1765.8836,667.1978,1761.04,672.54" style="stroke:#33658A;stroke-width:1.0;"/><text fill="#000000" font-family="sans-serif" font-size="13" lengthAdjust="spacing" textLength="52" x="1868" y="614.0669">horarios</text><text fill="#000000" font-family="sans-serif" font-size="13" lengthAdjust="spacing" textLength="8" x="1769.0529" y="683.7237">1</text><text fill="#000000" font-family="sans-serif" font-size="13" lengthAdjust="spacing" textLength="23" x="2002.8601" y="606.9105">1..*</text></g><!--link NivelExclusividad to CategoriaTiquete--><g id="link_NivelExclusividad_CategoriaTiquete"><path codeLine="57" d="M2122.08,661.99 C2152.8,637.48 2196,603 2196,603 C2196,603 2353.1,313.41 2403.87,219.81 " fill="none" id="NivelExclusividad-to-CategoriaTiquete" style="stroke:#33658A;stroke-width:1.0;stroke-dasharray:7.0,7.0;"/><polygon fill="#33658A" points="2406.35,215.23,2398.5438,221.2352,2403.9667,219.6255,2405.5765,225.0484,2406.35,215.23" style="stroke:#33658A;stroke-width:1.0;"/><text fill="#000000" font-family="sans-serif" font-size="13" lengthAdjust="spacing" textLength="109" x="2205" y="381.0669">validacionAcceso</text></g><!--link Administrador to Atraccion--><g id="link_Administrador_Atraccion"><path codeLine="58" d="M1666.02,1466.99 C1645.92,1453.77 1625,1440 1625,1440 C1625,1440 1517.5,1231.5 1517.5,1231.5 C1517.5,1231.5 1517.5,1214.5 1517.5,1214.5 C1517.5,1214.5 1640.53,970.77 1685.93,880.83 " fill="none" id="Administrador-to-Atraccion" style="stroke:#33658A;stroke-width:1.0;stroke-dasharray:7.0,7.0;"/><polygon fill="#33658A" points="1688.29,876.15,1680.6714,882.3915,1686.0425,880.6164,1687.8176,885.9875,1688.29,876.15" style="stroke:#33658A;stroke-width:1.0;"/><text fill="#000000" font-family="sans-serif" font-size="13" lengthAdjust="spacing" textLength="47" x="1487.5" y="1227.5669">gestion</text></g><!--reverse link Tiquete to EntradaIndividual--><g id="link_Tiquete_EntradaIndividual"><path d="M1770.18,353.69 C1838.86,354.4 1945.62,355.51 2016.65,356.24 " fill="none" id="Tiquete-backto-EntradaIndividual" style="stroke:#33658A;stroke-width:1.0;"/><polygon fill="none" points="1769.66,360.69,1749.74,353.48,1769.81,346.69,1769.66,360.69" style="stroke:#33658A;stroke-width:1.0;"/></g><!--reverse link Tiquete to TiqueteGeneral--><g id="link_Tiquete_TiqueteGeneral"><path d="M1768.2,324.45 C1790.5,314.6 1810,306 1810,306 C1810,306 1986,232 1986,232 C1986,232 2006.26,224.01 2028.9,215.09 " fill="none" id="Tiquete-backto-TiqueteGeneral" style="stroke:#33658A;stroke-width:1.0;"/><polygon fill="none" points="1770.72,330.99,1749.59,332.66,1765.06,318.18,1770.72,330.99" style="stroke:#33658A;stroke-width:1.0;"/></g><!--reverse link Tiquete to TiqueteTemporada--><g id="link_Tiquete_TiqueteTemporada"><path d="M1751.6,311.9 C1779.83,287.78 1810,262 1810,262 C1810,262 1986,149 1986,149 C1986,149 2006.26,141.01 2028.9,132.09 " fill="none" id="Tiquete-backto-TiqueteTemporada" style="stroke:#33658A;stroke-width:1.0;"/><polygon fill="none" points="1756.08,317.28,1736.32,324.95,1746.98,306.64,1756.08,317.28" style="stroke:#33658A;stroke-width:1.0;"/></g><!--reverse link Tiquete to FastPass--><g id="link_Tiquete_FastPass"><path d="M1769.38,339.53 C1847.43,323.58 1975.44,297.42 2043.71,283.46 " fill="none" id="Tiquete-backto-FastPass" style="stroke:#33658A;stroke-width:1.0;"/><polygon fill="none" points="1770.73,346.4,1749.74,343.55,1767.93,332.69,1770.73,346.4" style="stroke:#33658A;stroke-width:1.0;"/></g><!--link EntradaIndividual to Atraccion--><g id="link_EntradaIndividual_Atraccion"><path codeLine="68" d="M2059.92,381.01 C2029.2,405.52 1986,440 1986,440 C1986,440 1978,684 1978,684 C1978,684 1810,725 1810,725 C1810,725 1759.38,783.47 1727.93,819.78 " fill="none" id="EntradaIndividual-Atraccion" style="stroke:#33658A;stroke-width:1.0;"/><text fill="#000000" font-family="sans-serif" font-size="13" lengthAdjust="spacing" textLength="117" x="1835.5" y="680.0669">atraccionAsociada</text><text fill="#000000" font-family="sans-serif" font-size="13" lengthAdjust="spacing" textLength="8" x="2042.9308" y="401.1683">1</text><text fill="#000000" font-family="sans-serif" font-size="13" lengthAdjust="spacing" textLength="8" x="1724.6178" y="809.0186">1</text></g><!--link TiqueteGeneral to CategoriaTiquete--><g id="link_TiqueteGeneral_CategoriaTiquete"><path codeLine="69" d="M2160.65,191 C2214.58,191 2289.56,191 2344.95,191 " fill="none" id="TiqueteGeneral-CategoriaTiquete" style="stroke:#33658A;stroke-width:1.0;"/><text fill="#000000" font-family="sans-serif" font-size="13" lengthAdjust="spacing" textLength="60" x="2229.5" y="187.0669">categoria</text><text fill="#000000" font-family="sans-serif" font-size="13" lengthAdjust="spacing" textLength="8" x="2168.7055" y="203.8945">1</text><text fill="#000000" font-family="sans-serif" font-size="13" lengthAdjust="spacing" textLength="8" x="2329.1193" y="203.8117">1</text></g><!--link TiqueteTemporada to CategoriaTiquete--><g id="link_TiqueteTemporada_CategoriaTiquete"><path codeLine="70" d="M2173.38,128.62 C2225.95,141.95 2293.83,159.15 2344.99,172.12 " fill="none" id="TiqueteTemporada-CategoriaTiquete" style="stroke:#33658A;stroke-width:1.0;"/><text fill="#000000" font-family="sans-serif" font-size="13" lengthAdjust="spacing" textLength="60" x="2229.5" y="134.0669">categoria</text><text fill="#000000" font-family="sans-serif" font-size="13" lengthAdjust="spacing" textLength="8" x="2181.0732" y="143.1972">1</text><text fill="#000000" font-family="sans-serif" font-size="13" lengthAdjust="spacing" textLength="8" x="2328.7905" y="183.0202">1</text></g><!--reverse link Cliente to Tiquete--><g id="link_Cliente_Tiquete"><path codeLine="71" d="M1363.34,396.3 C1440.17,386.46 1582.28,368.26 1655.4,358.9 " fill="none" id="Cliente-backto-Tiquete" style="stroke:#33658A;stroke-width:1.0;"/><polygon fill="none" points="1350.23,397.98,1356.6873,401.19,1362.1339,396.464,1355.6766,393.2541,1350.23,397.98" style="stroke:#33658A;stroke-width:1.0;"/><text fill="#000000" font-family="sans-serif" font-size="13" lengthAdjust="spacing" textLength="126" x="1448" y="364.0669">tiquetesComprados</text><text fill="#000000" font-family="sans-serif" font-size="13" lengthAdjust="spacing" textLength="8" x="1358.1085" y="410.5005">1</text><text fill="#000000" font-family="sans-serif" font-size="13" lengthAdjust="spacing" textLength="23" x="1624.5256" y="372.7586">0..*</text></g><!--link Cajero to Tiquete--><g id="link_Cajero_Tiquete"><path codeLine="72" d="M1664.42,1052.78 C1605.14,1022.84 1497.5,968.5 1497.5,968.5 C1497.5,968.5 1497.5,951.5 1497.5,951.5 C1497.5,951.5 1625,567 1625,567 C1625,567 1668.64,446.5 1690.42,386.34 " fill="none" id="Cajero-to-Tiquete" style="stroke:#33658A;stroke-width:1.0;stroke-dasharray:7.0,7.0;"/><polygon fill="#33658A" points="1692.21,381.42,1685.3873,388.5228,1690.5093,386.1219,1692.9103,391.2439,1692.21,381.42" style="stroke:#33658A;stroke-width:1.0;"/><text fill="#000000" font-family="sans-serif" font-size="13" lengthAdjust="spacing" textLength="87" x="1467.5" y="964.5669">registroVenta</text></g><!--reverse link LugarTrabajo to Cafeteria--><g id="link_LugarTrabajo_Cafeteria"><path d="M576.52,716.68 C656.65,712.38 776.8,705.94 841.8,702.45 " fill="none" id="LugarTrabajo-backto-Cafeteria" style="stroke:#33658A;stroke-width:1.0;stroke-dasharray:7.0,7.0;"/><polygon fill="none" points="576.66,723.68,556.31,717.76,575.91,709.7,576.66,723.68" style="stroke:#33658A;stroke-width:1.0;"/></g><!--reverse link LugarTrabajo to Taquilla--><g id="link_LugarTrabajo_Taquilla"><path d="M575.68,699.83 C657.71,678.04 782.3,644.95 846.33,627.94 " fill="none" id="LugarTrabajo-backto-Taquilla" style="stroke:#33658A;stroke-width:1.0;stroke-dasharray:7.0,7.0;"/><polygon fill="none" points="577.44,706.61,556.31,704.98,573.85,693.08,577.44,706.61" style="stroke:#33658A;stroke-width:1.0;"/></g><!--reverse link LugarTrabajo to Tienda--><g id="link_LugarTrabajo_Tienda"><path d="M576.19,733.7 C659.29,746.86 785.67,766.87 848.79,776.87 " fill="none" id="LugarTrabajo-backto-Tienda" style="stroke:#33658A;stroke-width:1.0;stroke-dasharray:7.0,7.0;"/><polygon fill="none" points="574.97,740.59,556.31,730.55,577.16,726.77,574.97,740.59" style="stroke:#33658A;stroke-width:1.0;"/></g><!--link AsignacionTurno to Empleado--><g id="link_AsignacionTurno_Empleado"><path codeLine="82" d="M156.09,802.19 C189.75,839.03 250,905 250,905 C250,905 1046,1003 1046,1003 C1046,1003 1182.98,1041.02 1259.22,1062.18 " fill="none" id="AsignacionTurno-Empleado" style="stroke:#33658A;stroke-width:1.0;"/><text fill="#000000" font-family="sans-serif" font-size="13" lengthAdjust="spacing" textLength="64" x="660" y="953.0669">empleado</text><text fill="#000000" font-family="sans-serif" font-size="13" lengthAdjust="spacing" textLength="8" x="152.7432" y="821.9975">1</text><text fill="#000000" font-family="sans-serif" font-size="13" lengthAdjust="spacing" textLength="8" x="1243.5166" y="1073.3488">1</text></g><!--link AsignacionTurno to LugarTrabajo--><g id="link_AsignacionTurno_LugarTrabajo"><path codeLine="83" d="M207.29,766.4 C274.1,755.82 371.62,740.38 433.94,730.51 " fill="none" id="AsignacionTurno-LugarTrabajo" style="stroke:#33658A;stroke-width:1.0;"/><text fill="#000000" font-family="sans-serif" font-size="13" lengthAdjust="spacing" textLength="79" x="251" y="744.0669">lugarTrabajo</text><text fill="#000000" font-family="sans-serif" font-size="13" lengthAdjust="spacing" textLength="8" x="214.9967" y="778.0698">1</text><text fill="#000000" font-family="sans-serif" font-size="13" lengthAdjust="spacing" textLength="8" x="418.0108" y="744.6419">1</text></g><!--link AsignacionTurno to Turno--><g id="link_AsignacionTurno_Turno"><path codeLine="84" d="M184.88,753.88 C216.05,739.1 250,723 250,723 C250,723 361,675 361,675 C361,675 418.96,657.13 458.36,644.99 " fill="none" id="AsignacionTurno-Turno" style="stroke:#33658A;stroke-width:1.0;"/><text fill="#000000" font-family="sans-serif" font-size="13" lengthAdjust="spacing" textLength="34" x="273.5" y="686.0669">turno</text><text fill="#000000" font-family="sans-serif" font-size="13" lengthAdjust="spacing" textLength="8" x="189.1493" y="742.8613">1</text><text fill="#000000" font-family="sans-serif" font-size="13" lengthAdjust="spacing" textLength="8" x="442.613" y="660.5942">1</text></g><!--reverse link Cafeteria to Empleado--><g id="link_Cafeteria_Empleado"><path codeLine="85" d="M948.02,715.33 C992.47,726.98 1046,741 1046,741 C1046,741 1193,819 1193,819 C1193,819 1213,1005 1213,1005 C1213,1005 1244.22,1028.09 1271.06,1047.94 " fill="none" id="Cafeteria-backto-Empleado" style="stroke:#33658A;stroke-width:1.0;"/><polygon fill="none" points="935.19,711.97,939.9793,717.361,946.7976,715.0135,942.0083,709.6226,935.19,711.97" style="stroke:#33658A;stroke-width:1.0;"/><text fill="#000000" font-family="sans-serif" font-size="13" lengthAdjust="spacing" textLength="137" x="1055" y="743.0669">empleadosAsignados</text><text fill="#000000" font-family="sans-serif" font-size="13" lengthAdjust="spacing" textLength="8" x="942.9519" y="727.0284">1</text><text fill="#000000" font-family="sans-serif" font-size="13" lengthAdjust="spacing" textLength="23" x="1236.3958" y="1036.7683">0..*</text></g><!--reverse link Taquilla to Empleado--><g id="link_Taquilla_Empleado"><path codeLine="86" d="M943.31,631.1 C988.58,642.96 1046,658 1046,658 C1046,658 1193,722 1193,722 C1193,722 1213,1005 1213,1005 C1213,1005 1244.22,1028.09 1271.06,1047.94 " fill="none" id="Taquilla-backto-Empleado" style="stroke:#33658A;stroke-width:1.0;"/><polygon fill="none" points="930.62,627.77,935.4078,633.1623,942.2268,630.8168,937.439,625.4245,930.62,627.77" style="stroke:#33658A;stroke-width:1.0;"/><text fill="#000000" font-family="sans-serif" font-size="13" lengthAdjust="spacing" textLength="137" x="1055" y="659.0669">empleadosAsignados</text><text fill="#000000" font-family="sans-serif" font-size="13" lengthAdjust="spacing" textLength="8" x="938.5469" y="642.9885">1</text><text fill="#000000" font-family="sans-serif" font-size="13" lengthAdjust="spacing" textLength="23" x="1264.7145" y="1036.7683">0..*</text></g><!--reverse link Tienda to Empleado--><g id="link_Tienda_Empleado"><path codeLine="87" d="M940.63,799.66 C986.29,814.54 1046,834 1046,834 C1046,834 1213,1005 1213,1005 C1213,1005 1244.22,1028.09 1271.06,1047.94 " fill="none" id="Tienda-backto-Empleado" style="stroke:#33658A;stroke-width:1.0;"/><polygon fill="none" points="928.19,795.61,932.6547,801.2727,939.599,799.3295,935.1343,793.6667,928.19,795.61" style="stroke:#33658A;stroke-width:1.0;"/><text fill="#000000" font-family="sans-serif" font-size="13" lengthAdjust="spacing" textLength="137" x="1055" y="840.0669">empleadosAsignados</text><text fill="#000000" font-family="sans-serif" font-size="13" lengthAdjust="spacing" textLength="8" x="935.9723" y="811.2708">1</text><text fill="#000000" font-family="sans-serif" font-size="13" lengthAdjust="spacing" textLength="23" x="1228.1993" y="1051.8852">0..*</text></g><!--reverse link Tienda to Capacitacion--><g id="link_Tienda_Capacitacion"><path codeLine="88" d="M940.63,799.66 C986.29,814.54 1046,834 1046,834 C1046,834 1054,991 1054,991 C1054,991 1193,1039 1193,1039 C1193,1039 1213,1122 1213,1122 C1213,1122 1397,1317 1397,1317 C1397,1317 1427,1404 1427,1404 C1427,1404 1595,1436 1595,1436 C1595,1436 1625,1533 1625,1533 C1625,1533 1780,1533 1780,1533 C1780,1533 1941.02,1505.47 2030.96,1490.09 " fill="none" id="Tienda-backto-Capacitacion" style="stroke:#33658A;stroke-width:1.0;"/><polygon fill="none" points="928.19,795.61,932.6547,801.2727,939.599,799.3295,935.1343,793.6667,928.19,795.61" style="stroke:#33658A;stroke-width:1.0;"/><text fill="#000000" font-family="sans-serif" font-size="13" lengthAdjust="spacing" textLength="166" x="1428" y="1400.0669">capacitacionesRequeridas</text><text fill="#000000" font-family="sans-serif" font-size="13" lengthAdjust="spacing" textLength="8" x="935.9723" y="793.5989">1</text><text fill="#000000" font-family="sans-serif" font-size="13" lengthAdjust="spacing" textLength="23" x="2000.1353" y="1504.0881">0..*</text></g><!--link LugarTrabajo to Empleado--><g id="link_LugarTrabajo_Empleado"><path codeLine="89" d="M556.27,700.15 C591.46,687.98 629,675 629,675 C629,675 659,548 659,548 C659,548 725,548 725,548 C725,548 1046,575 1046,575 C1046,575 1193,638 1193,638 C1193,638 1213,968 1213,968 C1213,968 1252.32,1012.24 1280.63,1044.09 " fill="none" id="LugarTrabajo-to-Empleado" style="stroke:#33658A;stroke-width:1.0;stroke-dasharray:7.0,7.0;"/><polygon fill="#33658A" points="1284.03,1047.91,1281.0404,1038.5259,1280.7082,1044.173,1275.0611,1043.8408,1284.03,1047.91" style="stroke:#33658A;stroke-width:1.0;"/><text fill="#000000" font-family="sans-serif" font-size="13" lengthAdjust="spacing" textLength="68" x="854.5" y="547.0669">asignacion</text></g><!--link LugarTrabajo to Capacitacion--><g id="link_LugarTrabajo_Capacitacion"><path codeLine="90" d="M556.07,744.89 C632.58,775.32 755,824 755,824 C755,824 1046,907 1046,907 C1046,907 1054,1036 1054,1036 C1054,1036 1193,1183 1193,1183 C1193,1183 1213,1342 1213,1342 C1213,1342 1625,1541 1625,1541 C1625,1541 1780,1541 1780,1541 C1780,1541 1978,1535 1978,1535 C1978,1535 2007.54,1520.5 2036.27,1506.38 " fill="none" id="LugarTrabajo-to-Capacitacion" style="stroke:#33658A;stroke-width:1.0;stroke-dasharray:7.0,7.0;"/><polygon fill="#33658A" points="2040.88,1504.12,2031.0382,1504.4917,2036.3908,1506.3217,2034.5609,1511.6744,2040.88,1504.12" style="stroke:#33658A;stroke-width:1.0;"/><text fill="#000000" font-family="sans-serif" font-size="13" lengthAdjust="spacing" textLength="172" x="1224" y="1338.0669">requerimientoCapacitacion</text></g><!--link Administrador to AsignacionTurno--><g id="link_Administrador_AsignacionTurno"><path codeLine="91" d="M1638.87,1479.36 C1557.85,1464.31 1427,1440 1427,1440 C1427,1440 1213,1385 1213,1385 C1213,1385 1054,1043 1054,1043 C1054,1043 1046,1003 1046,1003 C1046,1003 433.19,851.81 212.24,797.3 " fill="none" id="Administrador-to-AsignacionTurno" style="stroke:#33658A;stroke-width:1.0;stroke-dasharray:7.0,7.0;"/><polygon fill="#33658A" points="207.09,796.03,214.8846,802.0503,211.9474,797.2158,216.7819,794.2785,207.09,796.03" style="stroke:#33658A;stroke-width:1.0;"/><text fill="#000000" font-family="sans-serif" font-size="13" lengthAdjust="spacing" textLength="68" x="854.5" y="928.0669">asignacion</text></g><!--reverse link RuntimeException to AsignacionInvalidaException--><g id="link_RuntimeException_AsignacionInvalidaException"><path d="M232.06,1261.44 C278.49,1266.86 334.17,1273.35 382.23,1278.96 " fill="none" id="RuntimeException-backto-AsignacionInvalidaException" style="stroke:#33658A;stroke-width:1.0;"/><polygon fill="none" points="231.17,1268.38,212.11,1259.11,232.79,1254.48,231.17,1268.38" style="stroke:#33658A;stroke-width:1.0;"/></g><!--reverse link RuntimeException to AtraccionNoEncontradaException--><g id="link_RuntimeException_AtraccionNoEncontradaException"><path d="M232.02,1238.84 C272.58,1234.22 320.21,1228.79 363.66,1223.84 " fill="none" id="RuntimeException-backto-AtraccionNoEncontradaException" style="stroke:#33658A;stroke-width:1.0;"/><polygon fill="none" points="232.78,1245.8,212.11,1241.1,231.19,1231.89,232.78,1245.8" style="stroke:#33658A;stroke-width:1.0;"/></g><!--reverse link RuntimeException to AtraccionNoOperativaException--><g id="link_RuntimeException_AtraccionNoOperativaException"><path d="M219.6,1219.08 C283.92,1195.84 361,1168 361,1168 C361,1168 388.07,1159.45 417.79,1150.07 " fill="none" id="RuntimeException-backto-AtraccionNoOperativaException" style="stroke:#33658A;stroke-width:1.0;"/><polygon fill="none" points="221.76,1225.74,200.57,1225.95,217.01,1212.57,221.76,1225.74" style="stroke:#33658A;stroke-width:1.0;"/></g><!--reverse link AsignacionInvalidaException to CapacitacionInsuficienteException--><g id="link_AsignacionInvalidaException_CapacitacionInsuficienteException"><path d="M627.71,1292 C668.68,1292 713.86,1292 754.88,1292 " fill="none" id="AsignacionInvalidaException-backto-CapacitacionInsuficienteException" style="stroke:#33658A;stroke-width:1.0;"/><polygon fill="none" points="627.66,1299,607.66,1292,627.66,1285,627.66,1299" style="stroke:#33658A;stroke-width:1.0;"/></g><!--reverse link RuntimeException to DatosInvalidosException--><g id="link_RuntimeException_DatosInvalidosException"><path d="M183.86,1213.76 C250.68,1165.19 361,1085 361,1085 C361,1085 388.07,1076.45 417.79,1067.07 " fill="none" id="RuntimeException-backto-DatosInvalidosException" style="stroke:#33658A;stroke-width:1.0;"/><polygon fill="none" points="187.79,1219.56,167.49,1225.65,179.56,1208.23,187.79,1219.56" style="stroke:#33658A;stroke-width:1.0;"/></g><!--reverse link RuntimeException to EmpleadoNoEncontradoException--><g id="link_RuntimeException_EmpleadoNoEncontradoException"><path d="M183.34,1286.3 C250.11,1335.42 361,1417 361,1417 C361,1417 386.91,1424.99 415.86,1433.91 " fill="none" id="RuntimeException-backto-EmpleadoNoEncontradoException" style="stroke:#33658A;stroke-width:1.0;"/><polygon fill="none" points="178.97,1291.77,167.01,1274.28,187.27,1280.5,178.97,1291.77" style="stroke:#33658A;stroke-width:1.0;"/></g><!--reverse link RuntimeException to TiqueteInvalidoException--><g id="link_RuntimeException_TiqueteInvalidoException"><path d="M218.13,1281.13 C282.75,1305.04 361,1334 361,1334 C361,1334 386.91,1341.99 415.86,1350.91 " fill="none" id="RuntimeException-backto-TiqueteInvalidoException" style="stroke:#33658A;stroke-width:1.0;"/><polygon fill="none" points="215.38,1287.58,199.05,1274.07,220.24,1274.45,215.38,1287.58" style="stroke:#33658A;stroke-width:1.0;"/></g><!--reverse link IllegalStateException to TiqueteYaUtilizadoException--><g id="link_IllegalStateException_TiqueteYaUtilizadoException"><path d="M240.32,1541 C284.55,1541 335.96,1541 380.88,1541 " fill="none" id="IllegalStateException-backto-TiqueteYaUtilizadoException" style="stroke:#33658A;stroke-width:1.0;"/><polygon fill="none" points="240.23,1548,220.23,1541,240.23,1534,240.23,1548" style="stroke:#33658A;stroke-width:1.0;"/></g><!--SRC=[lLTjRzis4FxkNq4a7mOCgB6iI-S5GG3LBvk1DGiITy0-NgYpmfOcLP9AanRzxplgbP9emrc1sK0YaS_TFVTAsduKAWS3EtOF_6DcTA7IkPRQiDFLqdydjaL8eT0zvyXoBP_zIx1d7o3LduNAs1Qa3NTAbLmRXOQTdGSRYJ7wSsthzUitvxCas9nBiFQjDYcQ6lBpwfVP-Mm46R5-ivgjLW4inIqKqctmoILIP6g7oZ5EVz1C0XZtsjZN2QFFGEdbPN9ldG7khgxOwVAtvNnrNk4wVdtChulPs-IinAoqSdVkMM8F8Hn8mIVV0WB2Cze2npW9ycpXlqF3x3GfFtrZdO69nArZJZCZiWV7Kc6GEw7LPF83MmZ8o3HGZ1X8mYZnYFA2ML9S1WGjUsO69N2Ie9VS2CL53XBj92T-a25BzKueeQU5BS08NRA7sjCwgk-hhJ021AhsvbBuN31A3wgqnNhcGmkuooLIcSLCBEkzNfGRdGEAqyO6OwWAAYGWInGmxsJBAqczZ5ULKf0RJOsPZZvyGACFx6jEZN88yLUEnhD9F6jFOJ_q3isZ8CZlI2f1ne3D8pivEs7wrIjsyjDq-kD9pqTsmNZmIhba0tUdqwkX11HE6_6b2T8Otrg-O1bQLy7gyFZzFKdmgdCgrLBn0Yqlg1pYwPVeUrTJktmgC5e4DUAcH0pARO1jmnsjcBuc9hnlVg6h9PAuXmzw-cUHWTbKBrtnDChdD7cAC5NjpXZx3Zae2iG1xDBcrBt02wdtK6rg-jftylA9oyAAHv52sjku5MYpibpwVWwAfasP4t8wroeLfKzIxC1vebH7_lbQtw3P2IVA2kpgU8-sfesdGSKqQpQnDABzmqYJLqJ_HewHj8euUpoDWwrnYnGNGpfxXDfK3ObLWMqeTM4EyjRIEHl7-1PKfbV87-0FRNny7tGv6xpniUDXLpb1F1sICmupQbJOL0kauv5EWhHq9-4ShUSpYi6udRluTVqSQShQRgmRQmQ3DgmdRfzbL-3AKu0rbHhvM0IDCqJMxyDHk0Us8K-rrxmNk0BhRlp3630c5QGzFfscOVYWUKuidGQaYNGEw0SA8ndapL8ds3bqlEXm0ZT7xw11Ek4wkNQkTxcfcpBIFks8xoGDPhwQzDza0A9rKqtCicwwcqyuJ2ylryrwS5seveCFvgOmAZo7jsIP_0ndTNGsR-1J8QGy0aZHIG_1ob9kQ0o8HKlamE0xh24qJ4Aop-E0OBL0cQnPTc7wtk7SXl6x5LLX_f_K73_iUp4FHssC4hGfE4fomC9KTdU-7VNWDdhCg1xalqSdqdl-g2aRhvh5etEzxO3-SHIzaprnpEiV1ryZJRfMrUcpz3WNNcvl2-N43jkDyNteMYyLrzNi_M_ovTNQYSVZnCjelDE4ru5eC66wlAoLBROKD3y-nxeFkDzgMu3JjjxMzWNkDKKNH4U_GBmUqOtbbql-0- -fVEY7G4nuBILc8EyS176PVFiN]--></g></svg>