<?xml version="1.0" encoding="us-ascii" standalone="no"?><svg xmlns="http://www.w3.org/2000/svg" xmlns:xlink="http://www.w3.org/1999/xlink" contentStyleType="text/css" height="874px" preserveAspectRatio="none" style="width:1218px;height:874px;background:#FFFFFF;" version="1.1" viewBox="0 0 1218 874" width="1218px" zoomAndPan="magnify"><defs/><g><!--cluster UI--><g id="cluster_UI"><path d="M652.5,6 L804.5,6 A3.75,3.75 0 0 1 807,8.5 L814,28.2969 L946.5,28.2969 A2.5,2.5 0 0 1 949,30.7969 L949,116.5 A2.5,2.5 0 0 1 946.5,119 L652.5,119 A2.5,2.5 0 0 1 650,116.5 L650,8.5 A2.5,2.5 0 0 1 652.5,6 " fill="none" style="stroke:#000000;stroke-width:1.5;"/><line style="stroke:#000000;stroke-width:1.5;" x1="650" x2="814" y1="28.2969" y2="28.2969"/><text fill="#000000" font-family="sans-serif" font-size="14" font-weight="bold" lengthAdjust="spacing" textLength="151" x="654" y="20.9951">Interfaz de Usuario</text></g><!--cluster APP--><g id="cluster_APP"><path d="M8.5,184 L89.5,184 A3.75,3.75 0 0 1 92,186.5 L99,206.2969 L663.5,206.2969 A2.5,2.5 0 0 1 666,208.7969 L666,401.5 A2.5,2.5 0 0 1 663.5,404 L8.5,404 A2.5,2.5 0 0 1 6,401.5 L6,186.5 A2.5,2.5 0 0 1 8.5,184 " fill="none" style="stroke:#000000;stroke-width:1.5;"/><line style="stroke:#000000;stroke-width:1.5;" x1="6" x2="99" y1="206.2969" y2="206.2969"/><text fill="#000000" font-family="sans-serif" font-size="14" font-weight="bold" lengthAdjust="spacing" textLength="80" x="10" y="198.9951">Aplicaci&#243;n</text></g><!--cluster DOM--><g id="cluster_DOM"><path d="M773.5,629 L837.5,629 A3.75,3.75 0 0 1 840,631.5 L847,651.2969 L1208.5,651.2969 A2.5,2.5 0 0 1 1211,653.7969 L1211,864.5 A2.5,2.5 0 0 1 1208.5,867 L773.5,867 A2.5,2.5 0 0 1 771,864.5 L771,631.5 A2.5,2.5 0 0 1 773.5,629 " fill="none" style="stroke:#000000;stroke-width:1.5;"/><line style="stroke:#000000;stroke-width:1.5;" x1="771" x2="847" y1="651.2969" y2="651.2969"/><text fill="#000000" font-family="sans-serif" font-size="14" font-weight="bold" lengthAdjust="spacing" textLength="63" x="775" y="643.9951">Dominio</text></g><!--cluster INFRA--><g id="cluster_INFRA"><path d="M27.5,469 L147.5,469 A3.75,3.75 0 0 1 150,471.5 L157,491.2969 L728.5,491.2969 A2.5,2.5 0 0 1 731,493.7969 L731,739.5 A2.5,2.5 0 0 1 728.5,742 L27.5,742 A2.5,2.5 0 0 1 25,739.5 L25,471.5 A2.5,2.5 0 0 1 27.5,469 " fill="none" style="stroke:#000000;stroke-width:1.5;"/><line style="stroke:#000000;stroke-width:1.5;" x1="25" x2="157" y1="491.2969" y2="491.2969"/><text fill="#000000" font-family="sans-serif" font-size="14" font-weight="bold" lengthAdjust="spacing" textLength="119" x="29" y="483.9951">Infraestructura</text></g><!--entity ConsolaParque <<boundary>>--><g id="elem_ConsolaParque &lt;&lt;boundary&gt;&gt;"><rect fill="#F1F1F1" height="46.2969" rx="2.5" ry="2.5" style="stroke:#181818;stroke-width:0.5;" width="232" x="693" y="49"/><rect fill="#F1F1F1" height="10" style="stroke:#181818;stroke-width:0.5;" width="15" x="905" y="54"/><rect fill="#F1F1F1" height="2" style="stroke:#181818;stroke-width:0.5;" width="4" x="903" y="56"/><rect fill="#F1F1F1" height="2" style="stroke:#181818;stroke-width:0.5;" width="4" x="903" y="60"/><text fill="#000000" font-family="sans-serif" font-size="14" lengthAdjust="spacing" textLength="192" x="708" y="81.9951">ConsolaParque &#171;boundary&#187;</text></g><!--entity ServicioVentaTiquetes <<control>>--><g id="elem_ServicioVentaTiquetes &lt;&lt;control&gt;&gt;"><rect fill="#F1F1F1" height="46.2969" rx="2.5" ry="2.5" style="stroke:#181818;stroke-width:0.5;" width="264" x="30" y="227"/><rect fill="#F1F1F1" height="10" style="stroke:#181818;stroke-width:0.5;" width="15" x="274" y="232"/><rect fill="#F1F1F1" height="2" style="stroke:#181818;stroke-width:0.5;" width="4" x="272" y="234"/><rect fill="#F1F1F1" height="2" style="stroke:#181818;stroke-width:0.5;" width="4" x="272" y="238"/><text fill="#000000" font-family="sans-serif" font-size="14" lengthAdjust="spacing" textLength="224" x="45" y="259.9951">ServicioVentaTiquetes &#171;control&#187;</text></g><!--entity ServicioGestionEmpleados <<control>>--><g id="elem_ServicioGestionEmpleados &lt;&lt;control&gt;&gt;"><rect fill="#F1F1F1" height="46.2969" rx="2.5" ry="2.5" style="stroke:#181818;stroke-width:0.5;" width="294" x="329" y="227"/><rect fill="#F1F1F1" height="10" style="stroke:#181818;stroke-width:0.5;" width="15" x="603" y="232"/><rect fill="#F1F1F1" height="2" style="stroke:#181818;stroke-width:0.5;" width="4" x="601" y="234"/><rect fill="#F1F1F1" height="2" style="stroke:#181818;stroke-width:0.5;" width="4" x="601" y="238"/><text fill="#000000" font-family="sans-serif" font-size="14" lengthAdjust="spacing" textLength="254" x="344" y="259.9951">ServicioGestionEmpleados &#171;control&#187;</text></g><!--entity ServicioGestionElementosParque <<control>>--><g id="elem_ServicioGestionElementosParque &lt;&lt;control&gt;&gt;"><rect fill="#F1F1F1" height="46.2969" rx="2.5" ry="2.5" style="stroke:#181818;stroke-width:0.5;" width="340" x="30" y="334"/><rect fill="#F1F1F1" height="10" style="stroke:#181818;stroke-width:0.5;" width="15" x="350" y="339"/><rect fill="#F1F1F1" height="2" style="stroke:#181818;stroke-width:0.5;" width="4" x="348" y="341"/><rect fill="#F1F1F1" height="2" style="stroke:#181818;stroke-width:0.5;" width="4" x="348" y="345"/><text fill="#000000" font-family="sans-serif" font-size="14" lengthAdjust="spacing" textLength="300" x="45" y="366.9951">ServicioGestionElementosParque &#171;control&#187;</text></g><!--entity Tiquete <<entity>>--><g id="elem_Tiquete &lt;&lt;entity&gt;&gt;"><rect fill="#F1F1F1" height="46.2969" rx="2.5" ry="2.5" style="stroke:#181818;stroke-width:0.5;" width="153" x="814.5" y="672"/><rect fill="#F1F1F1" height="10" style="stroke:#181818;stroke-width:0.5;" width="15" x="947.5" y="677"/><rect fill="#F1F1F1" height="2" style="stroke:#181818;stroke-width:0.5;" width="4" x="945.5" y="679"/><rect fill="#F1F1F1" height="2" style="stroke:#181818;stroke-width:0.5;" width="4" x="945.5" y="683"/><text fill="#000000" font-family="sans-serif" font-size="14" lengthAdjust="spacing" textLength="113" x="829.5" y="704.9951">Tiquete &#171;entity&#187;</text></g><!--entity Empleado <<entity>>--><g id="elem_Empleado &lt;&lt;entity&gt;&gt;"><rect fill="#F1F1F1" height="46.2969" rx="2.5" ry="2.5" style="stroke:#181818;stroke-width:0.5;" width="169" x="1002.5" y="672"/><rect fill="#F1F1F1" height="10" style="stroke:#181818;stroke-width:0.5;" width="15" x="1151.5" y="677"/><rect fill="#F1F1F1" height="2" style="stroke:#181818;stroke-width:0.5;" width="4" x="1149.5" y="679"/><rect fill="#F1F1F1" height="2" style="stroke:#181818;stroke-width:0.5;" width="4" x="1149.5" y="683"/><text fill="#000000" font-family="sans-serif" font-size="14" lengthAdjust="spacing" textLength="129" x="1017.5" y="704.9951">Empleado &#171;entity&#187;</text></g><!--entity Atraccion <<entity>>--><g id="elem_Atraccion &lt;&lt;entity&gt;&gt;"><rect fill="#F1F1F1" height="46.2969" rx="2.5" ry="2.5" style="stroke:#181818;stroke-width:0.5;" width="164" x="803" y="797"/><rect fill="#F1F1F1" height="10" style="stroke:#181818;stroke-width:0.5;" width="15" x="947" y="802"/><rect fill="#F1F1F1" height="2" style="stroke:#181818;stroke-width:0.5;" width="4" x="945" y="804"/><rect fill="#F1F1F1" height="2" style="stroke:#181818;stroke-width:0.5;" width="4" x="945" y="808"/><text fill="#000000" font-family="sans-serif" font-size="14" lengthAdjust="spacing" textLength="124" x="818" y="829.9951">Atraccion &#171;entity&#187;</text></g><!--entity Espectaculo <<entity>>--><g id="elem_Espectaculo &lt;&lt;entity&gt;&gt;"><rect fill="#F1F1F1" height="46.2969" rx="2.5" ry="2.5" style="stroke:#181818;stroke-width:0.5;" width="185" x="1002.5" y="797"/><rect fill="#F1F1F1" height="10" style="stroke:#181818;stroke-width:0.5;" width="15" x="1167.5" y="802"/><rect fill="#F1F1F1" height="2" style="stroke:#181818;stroke-width:0.5;" width="4" x="1165.5" y="804"/><rect fill="#F1F1F1" height="2" style="stroke:#181818;stroke-width:0.5;" width="4" x="1165.5" y="808"/><text fill="#000000" font-family="sans-serif" font-size="14" lengthAdjust="spacing" textLength="145" x="1017.5" y="829.9951">Espectaculo &#171;entity&#187;</text></g><!--entity RepositorioTiquetes <<infrastructure>>--><g id="elem_RepositorioTiquetes &lt;&lt;infrastructure&gt;&gt;"><rect fill="#F1F1F1" height="46.2969" rx="2.5" ry="2.5" style="stroke:#181818;stroke-width:0.5;" width="294" x="49" y="512"/><rect fill="#F1F1F1" height="10" style="stroke:#181818;stroke-width:0.5;" width="15" x="323" y="517"/><rect fill="#F1F1F1" height="2" style="stroke:#181818;stroke-width:0.5;" width="4" x="321" y="519"/><rect fill="#F1F1F1" height="2" style="stroke:#181818;stroke-width:0.5;" width="4" x="321" y="523"/><text fill="#000000" font-family="sans-serif" font-size="14" lengthAdjust="spacing" textLength="254" x="64" y="544.9951">RepositorioTiquetes &#171;infrastructure&#187;</text></g><!--entity RepositorioEmpleados <<infrastructure>>--><g id="elem_RepositorioEmpleados &lt;&lt;infrastructure&gt;&gt;"><rect fill="#F1F1F1" height="46.2969" rx="2.5" ry="2.5" style="stroke:#181818;stroke-width:0.5;" width="310" x="378" y="512"/><rect fill="#F1F1F1" height="10" style="stroke:#181818;stroke-width:0.5;" width="15" x="668" y="517"/><rect fill="#F1F1F1" height="2" style="stroke:#181818;stroke-width:0.5;" width="4" x="666" y="519"/><rect fill="#F1F1F1" height="2" style="stroke:#181818;stroke-width:0.5;" width="4" x="666" y="523"/><text fill="#000000" font-family="sans-serif" font-size="14" lengthAdjust="spacing" textLength="270" x="393" y="544.9951">RepositorioEmpleados &#171;infrastructure&#187;</text></g><!--entity RepositorioElementosParque <<infrastructure>>--><g id="elem_RepositorioElementosParque &lt;&lt;infrastructure&gt;&gt;"><rect fill="#F1F1F1" height="46.2969" rx="2.5" ry="2.5" style="stroke:#181818;stroke-width:0.5;" width="356" x="49" y="672"/><rect fill="#F1F1F1" height="10" style="stroke:#181818;stroke-width:0.5;" width="15" x="385" y="677"/><rect fill="#F1F1F1" height="2" style="stroke:#181818;stroke-width:0.5;" width="4" x="383" y="679"/><rect fill="#F1F1F1" height="2" style="stroke:#181818;stroke-width:0.5;" width="4" x="383" y="683"/><text fill="#000000" font-family="sans-serif" font-size="14" lengthAdjust="spacing" textLength="316" x="64" y="704.9951">RepositorioElementosParque &#171;infrastructure&#187;</text></g><!--entity JSONMapper <<infrastructure>>--><g id="elem_JSONMapper &lt;&lt;infrastructure&gt;&gt;"><rect fill="#F1F1F1" height="46.2969" rx="2.5" ry="2.5" style="stroke:#181818;stroke-width:0.5;" width="239" x="439.5" y="672"/><rect fill="#F1F1F1" height="10" style="stroke:#181818;stroke-width:0.5;" width="15" x="658.5" y="677"/><rect fill="#F1F1F1" height="2" style="stroke:#181818;stroke-width:0.5;" width="4" x="656.5" y="679"/><rect fill="#F1F1F1" height="2" style="stroke:#181818;stroke-width:0.5;" width="4" x="656.5" y="683"/><text fill="#000000" font-family="sans-serif" font-size="14" lengthAdjust="spacing" textLength="199" x="454.5" y="704.9951">JSONMapper &#171;infrastructure&#187;</text></g><!--link UI to APP--><g id="link_UI_APP"><path d="M658,119.5767 C658,119.8745 658,120.1732 658,120.4727 C658,121.0716 658,121.6737 658,122.2789 C658,124.6997 658,127.1693 658,129.6779 C658,139.7126 658,150.3722 658,161.0313 C658,166.3608 658,171.6902 658,176.9412 C658,178.254 658,179.5619 658,180.8636 C658,181.5145 658,182.1639 658,182.8115 C658,183.1354 658,183.4588 658,183.7817 " fill="none" id="UI-to-APP" style="stroke:#181818;stroke-width:1.0;"/><polygon fill="#181818" points="658,183.7817,662,174.7817,658,178.7817,654,174.7817,658,183.7817" style="stroke:#181818;stroke-width:1.0;"/><text fill="#000000" font-family="sans-serif" font-size="13" lengthAdjust="spacing" textLength="128" x="659" y="156.0669">Solicita operaciones</text></g><!--link APP to DOM--><g id="link_APP_DOM"><path d="M666.2007,251.3271 C666.5506,251.3426 666.9107,251.3586 667.281,251.3753 C668.0214,251.4087 668.8022,251.4446 669.6218,251.4831 C676.1788,251.7918 685.2217,252.2707 695.9991,252.9783 C717.5538,254.3934 746.0463,256.7231 775.465,260.4338 C834.3025,267.855 896.845,280.8 915,303 C1001.14,408.31 970.35,518.92 865,605 C851.51,616.02 799.3,600.66 787,613 C783.9088,616.1038 781.4489,619.6436 779.5129,623.4684 C779.0289,624.4246 778.5776,625.3986 778.1574,626.3881 C777.9473,626.8828 777.7449,627.3814 777.5501,627.8836 C777.4527,628.1346 777.3572,628.3866 777.2636,628.6394 " fill="none" id="APP-to-DOM" style="stroke:#181818;stroke-width:1.0;"/><polygon fill="#181818" points="777.2636,628.6394,784.1405,621.589,779.0002,623.9507,776.6386,618.8104,777.2636,628.6394" style="stroke:#181818;stroke-width:1.0;"/><text fill="#000000" font-family="sans-serif" font-size="13" lengthAdjust="spacing" textLength="157" x="965" y="441.0669">Invoca l&#243;gica de dominio</text></g><!--link APP to INFRA--><g id="link_APP_INFRA"><path d="M666.005,285.8633 C666.0905,286.236 666.1767,286.611 666.2633,286.9883 C666.9566,290.0069 667.6839,293.1737 668.4416,296.4723 C674.5025,322.8616 682.5013,357.6869 690.5,392.5113 C694.4994,409.9234 698.4988,427.3354 702.2559,443.6925 C704.1345,451.871 705.9525,459.7859 707.6797,467.3051 C707.7876,467.7751 707.8952,468.2435 708.0024,468.7103 " fill="none" id="APP-to-INFRA" style="stroke:#181818;stroke-width:1.0;"/><polygon fill="#181818" points="708.0024,468.7103,709.8861,459.0433,706.8831,463.8372,702.0891,460.8343,708.0024,468.7103" style="stroke:#181818;stroke-width:1.0;"/><text fill="#000000" font-family="sans-serif" font-size="13" lengthAdjust="spacing" textLength="152" x="697" y="361.5669">Persiste/recupera datos</text></g><!--link INFRA to DOM--><g id="link_INFRA_DOM"><path d="M731.0643,558.7484 C731.1414,558.9659 731.2189,559.1846 731.2968,559.4045 C731.6085,560.2839 731.9269,561.182 732.2514,562.0977 C737.4441,576.7478 744.2281,595.8881 751.0113,615.0263 C757.7944,634.1644 764.5766,653.3003 769.7655,667.9417 C770.0898,668.8568 770.4079,669.7543 770.7193,670.6332 C770.7972,670.8529 770.8747,671.0715 770.9517,671.2889 " fill="none" id="INFRA-to-DOM" style="stroke:#181818;stroke-width:1.0;stroke-dasharray:7.0,7.0;"/><polygon fill="#181818" points="770.9517,671.2889,771.7156,661.4697,769.2815,666.5761,764.1751,664.142,770.9517,671.2889" style="stroke:#181818;stroke-width:1.0;"/><text fill="#000000" font-family="sans-serif" font-size="13" lengthAdjust="spacing" textLength="110" x="746" y="601.0669">Mapea entidades</text></g><!--SRC=[XP91Ri8m44NtESM8JLVGFK98KMchL08YADrKNKpj0LbrFAdj8D6AKt44BbOx0PeM97PH_FwVx- -vWJ4AorsfS6MnG9040ajquKE3KyvJWKc9uWDN19tCUB9B_8hOmbLe5NSWm8iClXE0rpisZZNcQ3yhWi7WdIiZqMw6mxTa-skJbbe956g_CxKypVD6FoUxLaBn2ncFpogOU7B1Hx3nbdMqQL6FvBnYSr-Kcb3oTL1J4OpPdVAry5Qy4HVA76uscewRQ8SqGHGibDySHXo7__-VUeiYZ3Pd0bUIy2Wg_LUpRRUyj1WYsqhuocAT8viypD8coOnATifpABzLaOgYeuOEmrfekwMhx5bH5nLFy-baZ6L9zYAnJPAm5ztki7xVFimvlBho21mK6BiXbyIZYCIU-v2PDGi4lT-jmeB4BPFDMvoufeS-v6JhxRor9Ahe1n93uAGvx_MEZY4V8SIQ9KfoFm00]--></g></svg>