<?xml version="1.0" encoding="us-ascii" standalone="no"?><svg xmlns="http://www.w3.org/2000/svg" xmlns:xlink="http://www.w3.org/1999/xlink" contentStyleType="text/css" height="400px" preserveAspectRatio="none" style="width:654px;height:400px;background:#FEFEFE;" version="1.1" viewBox="0 0 654 400" width="654px" zoomAndPan="magnify"><defs/><g><rect fill="#FEFEFE" height="400" style="stroke:none;stroke-width:1.0;" width="654" x="0" y="0"/><line style="stroke:#181818;stroke-width:0.5;stroke-dasharray:5.0,5.0;" x1="34" x2="34" y1="81.2969" y2="319.2266"/><line style="stroke:#181818;stroke-width:0.5;stroke-dasharray:5.0,5.0;" x1="223.5" x2="223.5" y1="81.2969" y2="319.2266"/><line style="stroke:#181818;stroke-width:0.5;stroke-dasharray:5.0,5.0;" x1="429" x2="429" y1="81.2969" y2="319.2266"/><line style="stroke:#181818;stroke-width:0.5;stroke-dasharray:5.0,5.0;" x1="601.5" x2="601.5" y1="81.2969" y2="319.2266"/><text fill="#000000" font-family="sans-serif" font-size="14" lengthAdjust="spacing" textLength="52" x="5" y="77.9951">Usuario</text><ellipse cx="34" cy="13.5" fill="#E2E2F0" rx="8" ry="8" style="stroke:#181818;stroke-width:0.5;"/><path d="M34,21.5 L34,48.5 M21,29.5 L47,29.5 M34,48.5 L21,63.5 M34,48.5 L47,63.5 " fill="none" style="stroke:#181818;stroke-width:0.5;"/><text fill="#000000" font-family="sans-serif" font-size="14" lengthAdjust="spacing" textLength="52" x="5" y="331.2217">Usuario</text><ellipse cx="34" cy="343.0234" fill="#E2E2F0" rx="8" ry="8" style="stroke:#181818;stroke-width:0.5;"/><path d="M34,351.0234 L34,378.0234 M21,359.0234 L47,359.0234 M34,378.0234 L21,393.0234 M34,378.0234 L47,393.0234 " fill="none" style="stroke:#181818;stroke-width:0.5;"/><rect fill="#E2E2F0" height="46.5938" rx="7.5" ry="7.5" style="stroke:#181818;stroke-width:0.5;" width="119" x="164.5" y="33.7031"/><text fill="#000000" font-family="sans-serif" font-size="14" lengthAdjust="spacing" textLength="105" x="171.5" y="53.6982">ConsolaParque</text><text fill="#000000" font-family="sans-serif" font-size="14" lengthAdjust="spacing" textLength="43" x="202.5" y="69.9951">(Vista)</text><rect fill="#E2E2F0" height="46.5938" rx="7.5" ry="7.5" style="stroke:#181818;stroke-width:0.5;" width="119" x="164.5" y="318.2266"/><text fill="#000000" font-family="sans-serif" font-size="14" lengthAdjust="spacing" textLength="105" x="171.5" y="338.2217">ConsolaParque</text><text fill="#000000" font-family="sans-serif" font-size="14" lengthAdjust="spacing" textLength="43" x="202.5" y="354.5186">(Vista)</text><rect fill="#E2E2F0" height="46.5938" rx="7.5" ry="7.5" style="stroke:#181818;stroke-width:0.5;" width="168" x="345" y="33.7031"/><text fill="#000000" font-family="sans-serif" font-size="14" lengthAdjust="spacing" textLength="154" x="352" y="53.6982">ServicioVentaTiquetes</text><text fill="#000000" font-family="sans-serif" font-size="14" lengthAdjust="spacing" textLength="79" x="389.5" y="69.9951">(Aplicaci&#243;n)</text><rect fill="#E2E2F0" height="46.5938" rx="7.5" ry="7.5" style="stroke:#181818;stroke-width:0.5;" width="168" x="345" y="318.2266"/><text fill="#000000" font-family="sans-serif" font-size="14" lengthAdjust="spacing" textLength="154" x="352" y="338.2217">ServicioVentaTiquetes</text><text fill="#000000" font-family="sans-serif" font-size="14" lengthAdjust="spacing" textLength="79" x="389.5" y="354.5186">(Aplicaci&#243;n)</text><rect fill="#E2E2F0" height="46.5938" rx="7.5" ry="7.5" style="stroke:#181818;stroke-width:0.5;" width="81" x="561.5" y="33.7031"/><text fill="#000000" font-family="sans-serif" font-size="14" lengthAdjust="spacing" textLength="53" x="575.5" y="53.6982">Tiquete</text><text fill="#000000" font-family="sans-serif" font-size="14" lengthAdjust="spacing" textLength="67" x="568.5" y="69.9951">(Dominio)</text><rect fill="#E2E2F0" height="46.5938" rx="7.5" ry="7.5" style="stroke:#181818;stroke-width:0.5;" width="81" x="561.5" y="318.2266"/><text fill="#000000" font-family="sans-serif" font-size="14" lengthAdjust="spacing" textLength="53" x="575.5" y="338.2217">Tiquete</text><text fill="#000000" font-family="sans-serif" font-size="14" lengthAdjust="spacing" textLength="67" x="568.5" y="354.5186">(Dominio)</text><rect fill="#EEEEEE" height="3" rx="7.5" ry="7.5" style="stroke:#EEEEEE;stroke-width:1.0;" width="647.5" x="0" y="111.8633"/><line style="stroke:#000000;stroke-width:1.0;" x1="0" x2="647.5" y1="111.8633" y2="111.8633"/><line style="stroke:#000000;stroke-width:1.0;" x1="0" x2="647.5" y1="114.8633" y2="114.8633"/><rect fill="#EEEEEE" height="23.1328" rx="7.5" ry="7.5" style="stroke:#000000;stroke-width:2.0;" width="218" x="214.75" y="101.2969"/><text fill="#000000" font-family="sans-serif" font-size="13" font-weight="bold" lengthAdjust="spacing" textLength="199" x="220.75" y="117.3638">Registro de uso de tiquete</text><polygon fill="#33658A" points="212,151.5625,222,155.5625,212,159.5625,216,155.5625" style="stroke:#33658A;stroke-width:1.0;"/><line style="stroke:#33658A;stroke-width:1.0;" x1="34" x2="218" y1="155.5625" y2="155.5625"/><text fill="#000000" font-family="sans-serif" font-size="13" lengthAdjust="spacing" textLength="166" x="46" y="150.4966">Presenta tiquete para uso</text><polygon fill="#33658A" points="417,180.6953,427,184.6953,417,188.6953,421,184.6953" style="stroke:#33658A;stroke-width:1.0;"/><line style="stroke:#33658A;stroke-width:1.0;" x1="224" x2="423" y1="184.6953" y2="184.6953"/><text fill="#000000" font-family="sans-serif" font-size="13" lengthAdjust="spacing" textLength="181" x="236" y="179.6294">registrarUsoTiquete(tiquete)</text><polygon fill="#33658A" points="590,209.8281,600,213.8281,590,217.8281,594,213.8281" style="stroke:#33658A;stroke-width:1.0;"/><line style="stroke:#33658A;stroke-width:1.0;" x1="429" x2="596" y1="213.8281" y2="213.8281"/><text fill="#000000" font-family="sans-serif" font-size="13" lengthAdjust="spacing" textLength="149" x="441" y="208.7622">marcarComoUtilizado()</text><polygon fill="#33658A" points="440,238.9609,430,242.9609,440,246.9609,436,242.9609" style="stroke:#33658A;stroke-width:1.0;"/><line style="stroke:#33658A;stroke-width:1.0;stroke-dasharray:2.0,2.0;" x1="434" x2="601" y1="242.9609" y2="242.9609"/><text fill="#000000" font-family="sans-serif" font-size="13" lengthAdjust="spacing" textLength="121" x="455" y="237.895">Estado actualizado</text><polygon fill="#33658A" points="235,268.0938,225,272.0938,235,276.0938,231,272.0938" style="stroke:#33658A;stroke-width:1.0;"/><line style="stroke:#33658A;stroke-width:1.0;stroke-dasharray:2.0,2.0;" x1="229" x2="428" y1="272.0938" y2="272.0938"/><text fill="#000000" font-family="sans-serif" font-size="13" lengthAdjust="spacing" textLength="131" x="261" y="267.0278">Confirmaci&#243;n de uso</text><polygon fill="#33658A" points="45,297.2266,35,301.2266,45,305.2266,41,301.2266" style="stroke:#33658A;stroke-width:1.0;"/><line style="stroke:#33658A;stroke-width:1.0;" x1="39" x2="223" y1="301.2266" y2="301.2266"/><text fill="#000000" font-family="sans-serif" font-size="13" lengthAdjust="spacing" textLength="138" x="60" y="296.1606">Muestra confirmaci&#243;n</text><!--SRC=[LP51JiCm44NtFiMeRDf55wWgGf6259MoGwgWxOhDuBZ1gkC9OuTIhiKHk1XsuhQf8YLn_lipVoPkhss3Z3MyeznNJAqj5sI8uUPf6I_XpeJHLlbZew0XSuo7WUO-iAI3jXNiqBYXqfMKn5OntCu7Gi5CXzHhDhkRtnS3iLGxR8rVgszV65tPMbaFCjmK2vG-U3QkHTOa0k-rr0q6OBGWwyZW2lcpLMzslDNEusG4wA1xlQPV5N-50sr3NLphOF7A1LVH62rHwhzVstjFuBKzEOBXaMfjDVLm-Yn4diEBga9RfZ0FjAvx-5w6F1Tf19W-zEaoMB5oCSoPYjk8Jj41aJnboO3xuiWRHwdfEFacueH5In8pg94bye9gsdXjz4_uP-E9I39ChwelGx-I82oxnHuTrBma3XlVQQxxRQKnBs7JX1ayjof61Jd4_m40]--></g></svg>