<?xml version="1.0" encoding="us-ascii" standalone="no"?><svg xmlns="http://www.w3.org/2000/svg" xmlns:xlink="http://www.w3.org/1999/xlink" contentStyleType="text/css" height="458px" preserveAspectRatio="none" style="width:868px;height:458px;background:#FEFEFE;" version="1.1" viewBox="0 0 868 458" width="868px" zoomAndPan="magnify"><defs/><g><rect fill="#FEFEFE" height="458" style="stroke:none;stroke-width:1.0;" width="868" x="0" y="0"/><line style="stroke:#181818;stroke-width:0.5;stroke-dasharray:5.0,5.0;" x1="55" x2="55" y1="81.2969" y2="377.4922"/><line style="stroke:#181818;stroke-width:0.5;stroke-dasharray:5.0,5.0;" x1="345" x2="345" y1="81.2969" y2="377.4922"/><line style="stroke:#181818;stroke-width:0.5;stroke-dasharray:5.0,5.0;" x1="611.5" x2="611.5" y1="81.2969" y2="377.4922"/><line style="stroke:#181818;stroke-width:0.5;stroke-dasharray:5.0,5.0;" x1="791.5" x2="791.5" y1="81.2969" y2="377.4922"/><text fill="#000000" font-family="sans-serif" font-size="14" lengthAdjust="spacing" textLength="95" x="5" y="77.9951">Administrador</text><ellipse cx="55.5" cy="13.5" fill="#E2E2F0" rx="8" ry="8" style="stroke:#181818;stroke-width:0.5;"/><path d="M55.5,21.5 L55.5,48.5 M42.5,29.5 L68.5,29.5 M55.5,48.5 L42.5,63.5 M55.5,48.5 L68.5,63.5 " fill="none" style="stroke:#181818;stroke-width:0.5;"/><text fill="#000000" font-family="sans-serif" font-size="14" lengthAdjust="spacing" textLength="95" x="5" y="389.4873">Administrador</text><ellipse cx="55.5" cy="401.2891" fill="#E2E2F0" rx="8" ry="8" style="stroke:#181818;stroke-width:0.5;"/><path d="M55.5,409.2891 L55.5,436.2891 M42.5,417.2891 L68.5,417.2891 M55.5,436.2891 L42.5,451.2891 M55.5,436.2891 L68.5,451.2891 " fill="none" style="stroke:#181818;stroke-width:0.5;"/><rect fill="#E2E2F0" height="46.5938" rx="7.5" ry="7.5" style="stroke:#181818;stroke-width:0.5;" width="119" x="286" y="33.7031"/><text fill="#000000" font-family="sans-serif" font-size="14" lengthAdjust="spacing" textLength="105" x="293" y="53.6982">ConsolaParque</text><text fill="#000000" font-family="sans-serif" font-size="14" lengthAdjust="spacing" textLength="43" x="324" y="69.9951">(Vista)</text><rect fill="#E2E2F0" height="46.5938" rx="7.5" ry="7.5" style="stroke:#181818;stroke-width:0.5;" width="119" x="286" y="376.4922"/><text fill="#000000" font-family="sans-serif" font-size="14" lengthAdjust="spacing" textLength="105" x="293" y="396.4873">ConsolaParque</text><text fill="#000000" font-family="sans-serif" font-size="14" lengthAdjust="spacing" textLength="43" x="324" y="412.7842">(Vista)</text><rect fill="#E2E2F0" height="46.5938" rx="7.5" ry="7.5" style="stroke:#181818;stroke-width:0.5;" width="198" x="512.5" y="33.7031"/><text fill="#000000" font-family="sans-serif" font-size="14" lengthAdjust="spacing" textLength="184" x="519.5" y="53.6982">ServicioGestionEmpleados</text><text fill="#000000" font-family="sans-serif" font-size="14" lengthAdjust="spacing" textLength="79" x="572" y="69.9951">(Aplicaci&#243;n)</text><rect fill="#E2E2F0" height="46.5938" rx="7.5" ry="7.5" style="stroke:#181818;stroke-width:0.5;" width="198" x="512.5" y="376.4922"/><text fill="#000000" font-family="sans-serif" font-size="14" lengthAdjust="spacing" textLength="184" x="519.5" y="396.4873">ServicioGestionEmpleados</text><text fill="#000000" font-family="sans-serif" font-size="14" lengthAdjust="spacing" textLength="79" x="572" y="412.7842">(Aplicaci&#243;n)</text><rect fill="#E2E2F0" height="46.5938" rx="7.5" ry="7.5" style="stroke:#181818;stroke-width:0.5;" width="130" x="726.5" y="33.7031"/><text fill="#000000" font-family="sans-serif" font-size="14" lengthAdjust="spacing" textLength="116" x="733.5" y="53.6982">AsignacionTurno</text><text fill="#000000" font-family="sans-serif" font-size="14" lengthAdjust="spacing" textLength="67" x="758" y="69.9951">(Dominio)</text><rect fill="#E2E2F0" height="46.5938" rx="7.5" ry="7.5" style="stroke:#181818;stroke-width:0.5;" width="130" x="726.5" y="376.4922"/><text fill="#000000" font-family="sans-serif" font-size="14" lengthAdjust="spacing" textLength="116" x="733.5" y="396.4873">AsignacionTurno</text><text fill="#000000" font-family="sans-serif" font-size="14" lengthAdjust="spacing" textLength="67" x="758" y="412.7842">(Dominio)</text><rect fill="#EEEEEE" height="3" rx="7.5" ry="7.5" style="stroke:#EEEEEE;stroke-width:1.0;" width="861.5" x="0" y="111.8633"/><line style="stroke:#000000;stroke-width:1.0;" x1="0" x2="861.5" y1="111.8633" y2="111.8633"/><line style="stroke:#000000;stroke-width:1.0;" x1="0" x2="861.5" y1="114.8633" y2="114.8633"/><rect fill="#EEEEEE" height="23.1328" rx="7.5" ry="7.5" style="stroke:#000000;stroke-width:2.0;" width="260" x="300.75" y="101.2969"/><text fill="#000000" font-family="sans-serif" font-size="13" font-weight="bold" lengthAdjust="spacing" textLength="241" x="306.75" y="117.3638">Asignaci&#243;n de turno a empleado</text><polygon fill="#33658A" points="333.5,151.5625,343.5,155.5625,333.5,159.5625,337.5,155.5625" style="stroke:#33658A;stroke-width:1.0;"/><line style="stroke:#33658A;stroke-width:1.0;" x1="55.5" x2="339.5" y1="155.5625" y2="155.5625"/><text fill="#000000" font-family="sans-serif" font-size="13" lengthAdjust="spacing" textLength="135" x="133" y="150.4966">Solicita asignar turno</text><polygon fill="#33658A" points="66.5,180.6953,56.5,184.6953,66.5,188.6953,62.5,184.6953" style="stroke:#33658A;stroke-width:1.0;"/><line style="stroke:#33658A;stroke-width:1.0;" x1="60.5" x2="344.5" y1="184.6953" y2="184.6953"/><text fill="#000000" font-family="sans-serif" font-size="13" lengthAdjust="spacing" textLength="266" x="67.5" y="179.6294">Solicita datos de empleado, fecha y turno</text><polygon fill="#33658A" points="333.5,209.8281,343.5,213.8281,333.5,217.8281,337.5,213.8281" style="stroke:#33658A;stroke-width:1.0;"/><line style="stroke:#33658A;stroke-width:1.0;" x1="55.5" x2="339.5" y1="213.8281" y2="213.8281"/><text fill="#000000" font-family="sans-serif" font-size="13" lengthAdjust="spacing" textLength="87" x="157" y="208.7622">Ingresa datos</text><polygon fill="#33658A" points="599.5,238.9609,609.5,242.9609,599.5,246.9609,603.5,242.9609" style="stroke:#33658A;stroke-width:1.0;"/><line style="stroke:#33658A;stroke-width:1.0;" x1="345.5" x2="605.5" y1="242.9609" y2="242.9609"/><text fill="#000000" font-family="sans-serif" font-size="13" lengthAdjust="spacing" textLength="242" x="357.5" y="237.895">asignarTurno(empleado, fecha, turno)</text><polygon fill="#33658A" points="779.5,268.0938,789.5,272.0938,779.5,276.0938,783.5,272.0938" style="stroke:#33658A;stroke-width:1.0;"/><line style="stroke:#33658A;stroke-width:1.0;" x1="611.5" x2="785.5" y1="272.0938" y2="272.0938"/><text fill="#000000" font-family="sans-serif" font-size="13" lengthAdjust="spacing" textLength="156" x="623.5" y="267.0278">new AsignacionTurno(...)</text><polygon fill="#33658A" points="622.5,297.2266,612.5,301.2266,622.5,305.2266,618.5,301.2266" style="stroke:#33658A;stroke-width:1.0;"/><line style="stroke:#33658A;stroke-width:1.0;stroke-dasharray:2.0,2.0;" x1="616.5" x2="790.5" y1="301.2266" y2="301.2266"/><text fill="#000000" font-family="sans-serif" font-size="13" lengthAdjust="spacing" textLength="105" x="649" y="296.1606">Instancia creada</text><polygon fill="#33658A" points="356.5,326.3594,346.5,330.3594,356.5,334.3594,352.5,330.3594" style="stroke:#33658A;stroke-width:1.0;"/><line style="stroke:#33658A;stroke-width:1.0;stroke-dasharray:2.0,2.0;" x1="350.5" x2="610.5" y1="330.3594" y2="330.3594"/><text fill="#000000" font-family="sans-serif" font-size="13" lengthAdjust="spacing" textLength="84" x="436.5" y="325.2935">Confirmaci&#243;n</text><polygon fill="#33658A" points="66.5,355.4922,56.5,359.4922,66.5,363.4922,62.5,359.4922" style="stroke:#33658A;stroke-width:1.0;"/><line style="stroke:#33658A;stroke-width:1.0;" x1="60.5" x2="344.5" y1="359.4922" y2="359.4922"/><text fill="#000000" font-family="sans-serif" font-size="13" lengthAdjust="spacing" textLength="138" x="131.5" y="354.4263">Muestra confirmaci&#243;n</text><!--SRC=[TL7DIiD04BxlKmnwQK4B8eeKAWJ_y208YYSlusPR5pSpSNPZxNFv2BwOiqcZYL02OJVVxqpYcwSQ1IjuGVks4cwelE300llNL_anyPSHFBcqgHtK73RvCi3YAvQyzhI29OOuH5fBoq9EuEXa01GYlDvc7H-VdfmL0x1qIsn2UdIVgGX-HPMZ15PVJWpQf9gYh3pvc4I3nQWgUUjhLDhU1LFaWFSexurxficJqd2w1nYXFOxP3qu-zC8tBYRFT5NLmQbdL65H1s_H-kylwkGzT-nGH6seDAR7HeXLUCcv77UYzgCnYmNqHFNJ2I5b013SDX8M2pCQ2mxFkyPpU62juXEgOVQGJcnQDDD6kW6znCGnX_KX1x1qzXLXitNO5NXBAt5nQ_2NqszWtXTffvlySp_epAUcfsTfovm3kJNyszXaDfjDJNk4mr78BMakMOzWHVrnOFXNLV_tqalLBNRdIkuQbyzWX-mV]--></g></svg>