<?xml version="1.0" encoding="us-ascii" standalone="no"?><svg xmlns="http://www.w3.org/2000/svg" xmlns:xlink="http://www.w3.org/1999/xlink" contentStyleType="text/css" height="458px" preserveAspectRatio="none" style="width:879px;height:458px;background:#FEFEFE;" version="1.1" viewBox="0 0 879 458" width="879px" zoomAndPan="magnify"><defs/><g><rect fill="#FEFEFE" height="458" style="stroke:none;stroke-width:1.0;" width="879" x="0" y="0"/><line style="stroke:#181818;stroke-width:0.5;stroke-dasharray:5.0,5.0;" x1="34" x2="34" y1="81.2969" y2="377.4922"/><line style="stroke:#181818;stroke-width:0.5;stroke-dasharray:5.0,5.0;" x1="251.5" x2="251.5" y1="81.2969" y2="377.4922"/><line style="stroke:#181818;stroke-width:0.5;stroke-dasharray:5.0,5.0;" x1="546" x2="546" y1="81.2969" y2="377.4922"/><line style="stroke:#181818;stroke-width:0.5;stroke-dasharray:5.0,5.0;" x1="735.5" x2="735.5" y1="81.2969" y2="377.4922"/><line style="stroke:#181818;stroke-width:0.5;stroke-dasharray:5.0,5.0;" x1="826.5" x2="826.5" y1="81.2969" y2="377.4922"/><text fill="#000000" font-family="sans-serif" font-size="14" lengthAdjust="spacing" textLength="52" x="5" y="77.9951">Usuario</text><ellipse cx="34" cy="13.5" fill="#E2E2F0" rx="8" ry="8" style="stroke:#181818;stroke-width:0.5;"/><path d="M34,21.5 L34,48.5 M21,29.5 L47,29.5 M34,48.5 L21,63.5 M34,48.5 L47,63.5 " fill="none" style="stroke:#181818;stroke-width:0.5;"/><text fill="#000000" font-family="sans-serif" font-size="14" lengthAdjust="spacing" textLength="52" x="5" y="389.4873">Usuario</text><ellipse cx="34" cy="401.2891" fill="#E2E2F0" rx="8" ry="8" style="stroke:#181818;stroke-width:0.5;"/><path d="M34,409.2891 L34,436.2891 M21,417.2891 L47,417.2891 M34,436.2891 L21,451.2891 M34,436.2891 L47,451.2891 " fill="none" style="stroke:#181818;stroke-width:0.5;"/><rect fill="#E2E2F0" height="46.5938" rx="7.5" ry="7.5" style="stroke:#181818;stroke-width:0.5;" width="119" x="192.5" y="33.7031"/><text fill="#000000" font-family="sans-serif" font-size="14" lengthAdjust="spacing" textLength="105" x="199.5" y="53.6982">ConsolaParque</text><text fill="#000000" font-family="sans-serif" font-size="14" lengthAdjust="spacing" textLength="43" x="230.5" y="69.9951">(Vista)</text><rect fill="#E2E2F0" height="46.5938" rx="7.5" ry="7.5" style="stroke:#181818;stroke-width:0.5;" width="119" x="192.5" y="376.4922"/><text fill="#000000" font-family="sans-serif" font-size="14" lengthAdjust="spacing" textLength="105" x="199.5" y="396.4873">ConsolaParque</text><text fill="#000000" font-family="sans-serif" font-size="14" lengthAdjust="spacing" textLength="43" x="230.5" y="412.7842">(Vista)</text><rect fill="#E2E2F0" height="46.5938" rx="7.5" ry="7.5" style="stroke:#181818;stroke-width:0.5;" width="168" x="462" y="33.7031"/><text fill="#000000" font-family="sans-serif" font-size="14" lengthAdjust="spacing" textLength="154" x="469" y="53.6982">ServicioVentaTiquetes</text><text fill="#000000" font-family="sans-serif" font-size="14" lengthAdjust="spacing" textLength="79" x="506.5" y="69.9951">(Aplicaci&#243;n)</text><rect fill="#E2E2F0" height="46.5938" rx="7.5" ry="7.5" style="stroke:#181818;stroke-width:0.5;" width="168" x="462" y="376.4922"/><text fill="#000000" font-family="sans-serif" font-size="14" lengthAdjust="spacing" textLength="154" x="469" y="396.4873">ServicioVentaTiquetes</text><text fill="#000000" font-family="sans-serif" font-size="14" lengthAdjust="spacing" textLength="79" x="506.5" y="412.7842">(Aplicaci&#243;n)</text><rect fill="#E2E2F0" height="46.5938" rx="7.5" ry="7.5" style="stroke:#181818;stroke-width:0.5;" width="81" x="695.5" y="33.7031"/><text fill="#000000" font-family="sans-serif" font-size="14" lengthAdjust="spacing" textLength="53" x="709.5" y="53.6982">Tiquete</text><text fill="#000000" font-family="sans-serif" font-size="14" lengthAdjust="spacing" textLength="67" x="702.5" y="69.9951">(Dominio)</text><rect fill="#E2E2F0" height="46.5938" rx="7.5" ry="7.5" style="stroke:#181818;stroke-width:0.5;" width="81" x="695.5" y="376.4922"/><text fill="#000000" font-family="sans-serif" font-size="14" lengthAdjust="spacing" textLength="53" x="709.5" y="396.4873">Tiquete</text><text fill="#000000" font-family="sans-serif" font-size="14" lengthAdjust="spacing" textLength="67" x="702.5" y="412.7842">(Dominio)</text><rect fill="#E2E2F0" height="46.5938" rx="7.5" ry="7.5" style="stroke:#181818;stroke-width:0.5;" width="81" x="786.5" y="33.7031"/><text fill="#000000" font-family="sans-serif" font-size="14" lengthAdjust="spacing" textLength="64" x="795" y="53.6982">Atraccion</text><text fill="#000000" font-family="sans-serif" font-size="14" lengthAdjust="spacing" textLength="67" x="793.5" y="69.9951">(Dominio)</text><rect fill="#E2E2F0" height="46.5938" rx="7.5" ry="7.5" style="stroke:#181818;stroke-width:0.5;" width="81" x="786.5" y="376.4922"/><text fill="#000000" font-family="sans-serif" font-size="14" lengthAdjust="spacing" textLength="64" x="795" y="396.4873">Atraccion</text><text fill="#000000" font-family="sans-serif" font-size="14" lengthAdjust="spacing" textLength="67" x="793.5" y="412.7842">(Dominio)</text><rect fill="#EEEEEE" height="3" rx="7.5" ry="7.5" style="stroke:#EEEEEE;stroke-width:1.0;" width="872.5" x="0" y="111.8633"/><line style="stroke:#000000;stroke-width:1.0;" x1="0" x2="872.5" y1="111.8633" y2="111.8633"/><line style="stroke:#000000;stroke-width:1.0;" x1="0" x2="872.5" y1="114.8633" y2="114.8633"/><rect fill="#EEEEEE" height="23.1328" rx="7.5" ry="7.5" style="stroke:#000000;stroke-width:2.0;" width="262" x="305.25" y="101.2969"/><text fill="#000000" font-family="sans-serif" font-size="13" font-weight="bold" lengthAdjust="spacing" textLength="243" x="311.25" y="117.3638">Validaci&#243;n de acceso a atracci&#243;n</text><polygon fill="#33658A" points="240,151.5625,250,155.5625,240,159.5625,244,155.5625" style="stroke:#33658A;stroke-width:1.0;"/><line style="stroke:#33658A;stroke-width:1.0;" x1="34" x2="246" y1="155.5625" y2="155.5625"/><text fill="#000000" font-family="sans-serif" font-size="13" lengthAdjust="spacing" textLength="194" x="46" y="150.4966">Presenta tiquete para acceder</text><polygon fill="#33658A" points="534,180.6953,544,184.6953,534,188.6953,538,184.6953" style="stroke:#33658A;stroke-width:1.0;"/><line style="stroke:#33658A;stroke-width:1.0;" x1="252" x2="540" y1="184.6953" y2="184.6953"/><text fill="#000000" font-family="sans-serif" font-size="13" lengthAdjust="spacing" textLength="270" x="264" y="179.6294">validarAccesoAtraccion(tiquete, atraccion)</text><polygon fill="#33658A" points="724,209.8281,734,213.8281,724,217.8281,728,213.8281" style="stroke:#33658A;stroke-width:1.0;"/><line style="stroke:#33658A;stroke-width:1.0;" x1="546" x2="730" y1="213.8281" y2="213.8281"/><text fill="#000000" font-family="sans-serif" font-size="13" lengthAdjust="spacing" textLength="166" x="558" y="208.7622">esValidoParaFecha(fecha)</text><polygon fill="#33658A" points="557,238.9609,547,242.9609,557,246.9609,553,242.9609" style="stroke:#33658A;stroke-width:1.0;"/><line style="stroke:#33658A;stroke-width:1.0;stroke-dasharray:2.0,2.0;" x1="551" x2="735" y1="242.9609" y2="242.9609"/><text fill="#000000" font-family="sans-serif" font-size="13" lengthAdjust="spacing" textLength="63" x="609.5" y="237.895">Resultado</text><polygon fill="#33658A" points="815,268.0938,825,272.0938,815,276.0938,819,272.0938" style="stroke:#33658A;stroke-width:1.0;"/><line style="stroke:#33658A;stroke-width:1.0;" x1="546" x2="821" y1="272.0938" y2="272.0938"/><text fill="#000000" font-family="sans-serif" font-size="13" lengthAdjust="spacing" textLength="177" x="598" y="267.0278">cumpleRequisitosPersonal()</text><polygon fill="#33658A" points="557,297.2266,547,301.2266,557,305.2266,553,301.2266" style="stroke:#33658A;stroke-width:1.0;"/><line style="stroke:#33658A;stroke-width:1.0;stroke-dasharray:2.0,2.0;" x1="551" x2="826" y1="301.2266" y2="301.2266"/><text fill="#000000" font-family="sans-serif" font-size="13" lengthAdjust="spacing" textLength="63" x="655" y="296.1606">Resultado</text><polygon fill="#33658A" points="263,326.3594,253,330.3594,263,334.3594,259,330.3594" style="stroke:#33658A;stroke-width:1.0;"/><line style="stroke:#33658A;stroke-width:1.0;stroke-dasharray:2.0,2.0;" x1="257" x2="545" y1="330.3594" y2="330.3594"/><text fill="#000000" font-family="sans-serif" font-size="13" lengthAdjust="spacing" textLength="179" x="309.5" y="325.2935">Acceso permitido/denegado</text><polygon fill="#33658A" points="45,355.4922,35,359.4922,45,363.4922,41,359.4922" style="stroke:#33658A;stroke-width:1.0;"/><line style="stroke:#33658A;stroke-width:1.0;" x1="39" x2="251" y1="359.4922" y2="359.4922"/><text fill="#000000" font-family="sans-serif" font-size="13" lengthAdjust="spacing" textLength="116" x="85" y="354.4263">Muestra resultado</text><!--SRC=[ZPBBQkGm44Nt-eeYsNH3GXX2GZ3qWCbCTWDD7htAfY9NTul8AgSav_5T-OJviIdvbNPMWq5OgdFlLPKTdrreKB269xJFE-4sLDViMU3uvdT-J9m8xmAbZuQWOV-HDmUrkCUAtrpOmHPzFAnqbfObaC2FYuD2AS9lGzRv-UN5LNbGh6YBhK_tz9vAxtQXff30wa9Yq2RLFCGMnR5HFZdh6bJWw9f3P8zhb9UM7iDYusB2vH5WXEvrJj-HlEg6D-gBzqubYQAgoiOxYzRz_GozTWJdya6XWbzSk-2uXuVZELicGQiEuJiz5OnPhM23tbLzieu0j4AH0G5xAX-lLcPe7Kv_zbqLi1QAkGb8VJZaANRoIWVMGPaU-oZWjGkIiWkOxh0Ov2TZ88Ub6KNPOEYj08hTLLadZJTazxZOvdLf1W9EPt6t5FLhwYyoSvjo2x1jtNYwfPVMHPSuhaaY1_IBfPce__3ycaZV6JGajKjwqREA0kqoFKrZ66C1VrgA6W8oElu3]--></g></svg>