<?xml version="1.0" encoding="us-ascii" standalone="no"?><svg xmlns="http://www.w3.org/2000/svg" xmlns:xlink="http://www.w3.org/1999/xlink" contentStyleType="text/css" height="558px" preserveAspectRatio="none" style="width:1176px;height:558px;background:#FEFEFE;" version="1.1" viewBox="0 0 1176 558" width="1176px" zoomAndPan="magnify"><defs/><g><rect fill="#FEFEFE" height="558" style="stroke:none;stroke-width:1.0;" width="1176" x="0" y="0"/><line style="stroke:#181818;stroke-width:0.5;stroke-dasharray:5.0,5.0;" x1="34" x2="34" y1="81.2969" y2="477.8906"/><line style="stroke:#181818;stroke-width:0.5;stroke-dasharray:5.0,5.0;" x1="318.5" x2="318.5" y1="81.2969" y2="477.8906"/><line style="stroke:#181818;stroke-width:0.5;stroke-dasharray:5.0,5.0;" x1="711" x2="711" y1="81.2969" y2="477.8906"/><line style="stroke:#181818;stroke-width:0.5;stroke-dasharray:5.0,5.0;" x1="943.5" x2="943.5" y1="81.2969" y2="477.8906"/><line style="stroke:#181818;stroke-width:0.5;stroke-dasharray:5.0,5.0;" x1="1079.5" x2="1079.5" y1="81.2969" y2="477.8906"/><text fill="#000000" font-family="sans-serif" font-size="14" lengthAdjust="spacing" textLength="52" x="5" y="77.9951">Usuario</text><ellipse cx="34" cy="13.5" fill="#E2E2F0" rx="8" ry="8" style="stroke:#181818;stroke-width:0.5;"/><path d="M34,21.5 L34,48.5 M21,29.5 L47,29.5 M34,48.5 L21,63.5 M34,48.5 L47,63.5 " fill="none" style="stroke:#181818;stroke-width:0.5;"/><text fill="#000000" font-family="sans-serif" font-size="14" lengthAdjust="spacing" textLength="52" x="5" y="489.8857">Usuario</text><ellipse cx="34" cy="501.6875" fill="#E2E2F0" rx="8" ry="8" style="stroke:#181818;stroke-width:0.5;"/><path d="M34,509.6875 L34,536.6875 M21,517.6875 L47,517.6875 M34,536.6875 L21,551.6875 M34,536.6875 L47,551.6875 " fill="none" style="stroke:#181818;stroke-width:0.5;"/><rect fill="#E2E2F0" height="46.5938" rx="7.5" ry="7.5" style="stroke:#181818;stroke-width:0.5;" width="119" x="259.5" y="33.7031"/><text fill="#000000" font-family="sans-serif" font-size="14" lengthAdjust="spacing" textLength="105" x="266.5" y="53.6982">ConsolaParque</text><text fill="#000000" font-family="sans-serif" font-size="14" lengthAdjust="spacing" textLength="43" x="297.5" y="69.9951">(Vista)</text><rect fill="#E2E2F0" height="46.5938" rx="7.5" ry="7.5" style="stroke:#181818;stroke-width:0.5;" width="119" x="259.5" y="476.8906"/><text fill="#000000" font-family="sans-serif" font-size="14" lengthAdjust="spacing" textLength="105" x="266.5" y="496.8857">ConsolaParque</text><text fill="#000000" font-family="sans-serif" font-size="14" lengthAdjust="spacing" textLength="43" x="297.5" y="513.1826">(Vista)</text><rect fill="#E2E2F0" height="46.5938" rx="7.5" ry="7.5" style="stroke:#181818;stroke-width:0.5;" width="168" x="627" y="33.7031"/><text fill="#000000" font-family="sans-serif" font-size="14" lengthAdjust="spacing" textLength="154" x="634" y="53.6982">ServicioVentaTiquetes</text><text fill="#000000" font-family="sans-serif" font-size="14" lengthAdjust="spacing" textLength="79" x="671.5" y="69.9951">(Aplicaci&#243;n)</text><rect fill="#E2E2F0" height="46.5938" rx="7.5" ry="7.5" style="stroke:#181818;stroke-width:0.5;" width="168" x="627" y="476.8906"/><text fill="#000000" font-family="sans-serif" font-size="14" lengthAdjust="spacing" textLength="154" x="634" y="496.8857">ServicioVentaTiquetes</text><text fill="#000000" font-family="sans-serif" font-size="14" lengthAdjust="spacing" textLength="79" x="671.5" y="513.1826">(Aplicaci&#243;n)</text><rect fill="#E2E2F0" height="46.5938" rx="7.5" ry="7.5" style="stroke:#181818;stroke-width:0.5;" width="81" x="903.5" y="33.7031"/><text fill="#000000" font-family="sans-serif" font-size="14" lengthAdjust="spacing" textLength="53" x="917.5" y="53.6982">Tiquete</text><text fill="#000000" font-family="sans-serif" font-size="14" lengthAdjust="spacing" textLength="67" x="910.5" y="69.9951">(Dominio)</text><rect fill="#E2E2F0" height="46.5938" rx="7.5" ry="7.5" style="stroke:#181818;stroke-width:0.5;" width="81" x="903.5" y="476.8906"/><text fill="#000000" font-family="sans-serif" font-size="14" lengthAdjust="spacing" textLength="53" x="917.5" y="496.8857">Tiquete</text><text fill="#000000" font-family="sans-serif" font-size="14" lengthAdjust="spacing" textLength="67" x="910.5" y="513.1826">(Dominio)</text><rect fill="#E2E2F0" height="46.5938" rx="7.5" ry="7.5" style="stroke:#181818;stroke-width:0.5;" width="170" x="994.5" y="33.7031"/><text fill="#000000" font-family="sans-serif" font-size="14" lengthAdjust="spacing" textLength="156" x="1001.5" y="53.6982">TiqueteRepositoryJson</text><text fill="#000000" font-family="sans-serif" font-size="14" lengthAdjust="spacing" textLength="94" x="1032.5" y="69.9951">(Persistencia)</text><rect fill="#E2E2F0" height="46.5938" rx="7.5" ry="7.5" style="stroke:#181818;stroke-width:0.5;" width="170" x="994.5" y="476.8906"/><text fill="#000000" font-family="sans-serif" font-size="14" lengthAdjust="spacing" textLength="156" x="1001.5" y="496.8857">TiqueteRepositoryJson</text><text fill="#000000" font-family="sans-serif" font-size="14" lengthAdjust="spacing" textLength="94" x="1032.5" y="513.1826">(Persistencia)</text><rect fill="#EEEEEE" height="3" rx="7.5" ry="7.5" style="stroke:#EEEEEE;stroke-width:1.0;" width="1169.5" x="0" y="111.8633"/><line style="stroke:#000000;stroke-width:1.0;" x1="0" x2="1169.5" y1="111.8633" y2="111.8633"/><line style="stroke:#000000;stroke-width:1.0;" x1="0" x2="1169.5" y1="114.8633" y2="114.8633"/><rect fill="#EEEEEE" height="23.1328" rx="7.5" ry="7.5" style="stroke:#000000;stroke-width:2.0;" width="144" x="512.75" y="101.2969"/><text fill="#000000" font-family="sans-serif" font-size="13" font-weight="bold" lengthAdjust="spacing" textLength="125" x="518.75" y="117.3638">Venta de tiquete</text><polygon fill="#33658A" points="307,151.5625,317,155.5625,307,159.5625,311,155.5625" style="stroke:#33658A;stroke-width:1.0;"/><line style="stroke:#33658A;stroke-width:1.0;" x1="34" x2="313" y1="155.5625" y2="155.5625"/><text fill="#000000" font-family="sans-serif" font-size="13" lengthAdjust="spacing" textLength="155" x="99" y="150.4966">Solicita venta de tiquete</text><polygon fill="#33658A" points="45,180.6953,35,184.6953,45,188.6953,41,184.6953" style="stroke:#33658A;stroke-width:1.0;"/><line style="stroke:#33658A;stroke-width:1.0;" x1="39" x2="318" y1="184.6953" y2="184.6953"/><text fill="#000000" font-family="sans-serif" font-size="13" lengthAdjust="spacing" textLength="199" x="77" y="179.6294">Solicita datos comprador y tipo</text><polygon fill="#33658A" points="307,209.8281,317,213.8281,307,217.8281,311,213.8281" style="stroke:#33658A;stroke-width:1.0;"/><line style="stroke:#33658A;stroke-width:1.0;" x1="34" x2="313" y1="213.8281" y2="213.8281"/><text fill="#000000" font-family="sans-serif" font-size="13" lengthAdjust="spacing" textLength="87" x="133" y="208.7622">Ingresa datos</text><polygon fill="#33658A" points="699,238.9609,709,242.9609,699,246.9609,703,242.9609" style="stroke:#33658A;stroke-width:1.0;"/><line style="stroke:#33658A;stroke-width:1.0;" x1="319" x2="705" y1="242.9609" y2="242.9609"/><text fill="#000000" font-family="sans-serif" font-size="13" lengthAdjust="spacing" textLength="368" x="331" y="237.895">venderTiqueteGeneral(comprador, categoria, precioBase)</text><line style="stroke:#33658A;stroke-width:1.0;" x1="711" x2="753" y1="272.0938" y2="272.0938"/><line style="stroke:#33658A;stroke-width:1.0;" x1="753" x2="753" y1="272.0938" y2="285.0938"/><line style="stroke:#33658A;stroke-width:1.0;" x1="712" x2="753" y1="285.0938" y2="285.0938"/><polygon fill="#33658A" points="722,281.0938,712,285.0938,722,289.0938,718,285.0938" style="stroke:#33658A;stroke-width:1.0;"/><text fill="#000000" font-family="sans-serif" font-size="13" lengthAdjust="spacing" textLength="219" x="718" y="267.0278">validar datos y calcular precio final</text><polygon fill="#33658A" points="932,310.2266,942,314.2266,932,318.2266,936,314.2266" style="stroke:#33658A;stroke-width:1.0;"/><line style="stroke:#33658A;stroke-width:1.0;" x1="711" x2="938" y1="314.2266" y2="314.2266"/><text fill="#000000" font-family="sans-serif" font-size="13" lengthAdjust="spacing" textLength="148" x="753.5" y="309.1606">new TiqueteGeneral(...)</text><polygon fill="#33658A" points="722,339.3594,712,343.3594,722,347.3594,718,343.3594" style="stroke:#33658A;stroke-width:1.0;"/><line style="stroke:#33658A;stroke-width:1.0;stroke-dasharray:2.0,2.0;" x1="716" x2="943" y1="343.3594" y2="343.3594"/><text fill="#000000" font-family="sans-serif" font-size="13" lengthAdjust="spacing" textLength="105" x="775" y="338.2935">Instancia creada</text><polygon fill="#33658A" points="1067.5,368.4922,1077.5,372.4922,1067.5,376.4922,1071.5,372.4922" style="stroke:#33658A;stroke-width:1.0;"/><line style="stroke:#33658A;stroke-width:1.0;" x1="711" x2="1073.5" y1="372.4922" y2="372.4922"/><text fill="#000000" font-family="sans-serif" font-size="13" lengthAdjust="spacing" textLength="126" x="832.25" y="367.4263">guardarTiquetes(...)</text><polygon fill="#33658A" points="722,397.625,712,401.625,722,405.625,718,401.625" style="stroke:#33658A;stroke-width:1.0;"/><line style="stroke:#33658A;stroke-width:1.0;stroke-dasharray:2.0,2.0;" x1="716" x2="1078.5" y1="401.625" y2="401.625"/><text fill="#000000" font-family="sans-serif" font-size="13" lengthAdjust="spacing" textLength="149" x="820.75" y="396.5591">Confirmaci&#243;n guardado</text><polygon fill="#33658A" points="330,426.7578,320,430.7578,330,434.7578,326,430.7578" style="stroke:#33658A;stroke-width:1.0;"/><line style="stroke:#33658A;stroke-width:1.0;stroke-dasharray:2.0,2.0;" x1="324" x2="710" y1="430.7578" y2="430.7578"/><text fill="#000000" font-family="sans-serif" font-size="13" lengthAdjust="spacing" textLength="164" x="433" y="425.6919">Retorna tiquete generado</text><polygon fill="#33658A" points="45,455.8906,35,459.8906,45,463.8906,41,459.8906" style="stroke:#33658A;stroke-width:1.0;"/><line style="stroke:#33658A;stroke-width:1.0;" x1="39" x2="318" y1="459.8906" y2="459.8906"/><text fill="#000000" font-family="sans-serif" font-size="13" lengthAdjust="spacing" textLength="261" x="46" y="454.8247">Muestra confirmaci&#243;n y datos del tiquete</text><!--SRC=[RPBTQjn038Nl_HGYlSb2ib12IbdOmZRz8OL2ID9SzKOTQrsHsP6h6MVhv-eZzCKgs-EDlIa6Oy-Sx-YCDF6HGusAE_Y1xh5IQK9v9LuKNdtws3r5F2Wy1qfjJL2BRxkVoLxyYQNiELImHH-dExsb4msayFfoih5HbNskTN7nvlBjPh9PqXORd-xfTzfuhiAEGW9dBz82NJBcMsnGMGhJ9tPSembEhYH4yNY3-gkXx-7qWMF2nGbWXFvphhuZVR8VUJ1Vl6T34aMZDhLdXux__Wa3EmhdU2OC-20x3Yo3E2__LtjBjKIs-EsNAC786z9emIWupZaxIL6irz2diaP06bXOhujyQ3X_Dvnd1NTYMTc4JqVoeXTqoWnDj2KcYU1aLwkDJQ4roAg-TByEbLBCmBFZs8zLLxKapQVxJ3PazAS7upDmcAWIPJo3MicGznXfKOm6HsRekKJDyLg3lMkyBGmeR3cWdx6vy0e2xU4enNAvN1Hv3SvdXQw37QHhEJWbB77csGrW1PMrmhACjs9mwxQEhEp6RLbtmst9L2aJm-Tctf8DFk1XdbKVrCGl9_MrePZKuitSszoPalneyWy0]--></g></svg>