<?xml version="1.0" encoding="us-ascii" standalone="no"?><svg xmlns="http://www.w3.org/2000/svg" xmlns:xlink="http://www.w3.org/1999/xlink" contentStyleType="text/css" height="415px" preserveAspectRatio="none" style="width:776px;height:415px;background:#FFFFFF;" version="1.1" viewBox="0 0 776 415" width="776px" zoomAndPan="magnify"><defs/><g><line style="stroke:#181818;stroke-width:0.5;stroke-dasharray:5.0,5.0;" x1="34" x2="34" y1="81.2969" y2="334.3594"/><line style="stroke:#181818;stroke-width:0.5;stroke-dasharray:5.0,5.0;" x1="225.5" x2="225.5" y1="81.2969" y2="334.3594"/><line style="stroke:#181818;stroke-width:0.5;stroke-dasharray:5.0,5.0;" x1="395" x2="395" y1="81.2969" y2="334.3594"/><line style="stroke:#181818;stroke-width:0.5;stroke-dasharray:5.0,5.0;" x1="547" x2="547" y1="81.2969" y2="334.3594"/><line style="stroke:#181818;stroke-width:0.5;stroke-dasharray:5.0,5.0;" x1="693" x2="693" y1="81.2969" y2="334.3594"/><text fill="#000000" font-family="sans-serif" font-size="14" lengthAdjust="spacing" textLength="52" x="5" y="77.9951">Usuario</text><ellipse cx="34" cy="13.5" fill="#E2E2F0" rx="8" ry="8" style="stroke:#181818;stroke-width:0.5;"/><path d="M34,21.5 L34,48.5 M21,29.5 L47,29.5 M34,48.5 L21,63.5 M34,48.5 L47,63.5 " fill="none" style="stroke:#181818;stroke-width:0.5;"/><text fill="#000000" font-family="sans-serif" font-size="14" lengthAdjust="spacing" textLength="52" x="5" y="346.3545">Usuario</text><ellipse cx="34" cy="358.1563" fill="#E2E2F0" rx="8" ry="8" style="stroke:#181818;stroke-width:0.5;"/><path d="M34,366.1563 L34,393.1563 M21,374.1563 L47,374.1563 M34,393.1563 L21,408.1563 M34,393.1563 L47,408.1563 " fill="none" style="stroke:#181818;stroke-width:0.5;"/><rect fill="#E2E2F0" height="46.5938" rx="2.5" ry="2.5" style="stroke:#181818;stroke-width:0.5;" width="119" x="166.5" y="33.7031"/><text fill="#000000" font-family="sans-serif" font-size="14" lengthAdjust="spacing" textLength="105" x="173.5" y="53.6982">ConsolaParque</text><text fill="#000000" font-family="sans-serif" font-size="14" lengthAdjust="spacing" textLength="23" x="214.5" y="69.9951">(UI)</text><rect fill="#E2E2F0" height="46.5938" rx="2.5" ry="2.5" style="stroke:#181818;stroke-width:0.5;" width="119" x="166.5" y="333.3594"/><text fill="#000000" font-family="sans-serif" font-size="14" lengthAdjust="spacing" textLength="105" x="173.5" y="353.3545">ConsolaParque</text><text fill="#000000" font-family="sans-serif" font-size="14" lengthAdjust="spacing" textLength="23" x="214.5" y="369.6514">(UI)</text><rect fill="#E2E2F0" height="30.2969" rx="2.5" ry="2.5" style="stroke:#181818;stroke-width:0.5;" width="168" x="311" y="50"/><text fill="#000000" font-family="sans-serif" font-size="14" lengthAdjust="spacing" textLength="154" x="318" y="69.9951">ServicioVentaTiquetes</text><rect fill="#E2E2F0" height="30.2969" rx="2.5" ry="2.5" style="stroke:#181818;stroke-width:0.5;" width="168" x="311" y="333.3594"/><text fill="#000000" font-family="sans-serif" font-size="14" lengthAdjust="spacing" textLength="154" x="318" y="353.3545">ServicioVentaTiquetes</text><rect fill="#E2E2F0" height="30.2969" rx="2.5" ry="2.5" style="stroke:#181818;stroke-width:0.5;" width="117" x="489" y="50"/><text fill="#000000" font-family="sans-serif" font-size="14" lengthAdjust="spacing" textLength="103" x="496" y="69.9951">TiqueteFactory</text><rect fill="#E2E2F0" height="30.2969" rx="2.5" ry="2.5" style="stroke:#181818;stroke-width:0.5;" width="117" x="489" y="333.3594"/><text fill="#000000" font-family="sans-serif" font-size="14" lengthAdjust="spacing" textLength="103" x="496" y="353.3545">TiqueteFactory</text><rect fill="#E2E2F0" height="30.2969" rx="2.5" ry="2.5" style="stroke:#181818;stroke-width:0.5;" width="154" x="616" y="50"/><text fill="#000000" font-family="sans-serif" font-size="14" lengthAdjust="spacing" textLength="140" x="623" y="69.9951">RepositorioTiquetes</text><rect fill="#E2E2F0" height="30.2969" rx="2.5" ry="2.5" style="stroke:#181818;stroke-width:0.5;" width="154" x="616" y="333.3594"/><text fill="#000000" font-family="sans-serif" font-size="14" lengthAdjust="spacing" textLength="140" x="623" y="353.3545">RepositorioTiquetes</text><polygon fill="#181818" points="214,108.4297,224,112.4297,214,116.4297,218,112.4297" style="stroke:#181818;stroke-width:1.0;"/><line style="stroke:#181818;stroke-width:1.0;" x1="34" x2="220" y1="112.4297" y2="112.4297"/><text fill="#000000" font-family="sans-serif" font-size="13" lengthAdjust="spacing" textLength="168" x="41" y="107.3638">Solicita compra de tiquete</text><polygon fill="#181818" points="383,137.5625,393,141.5625,383,145.5625,387,141.5625" style="stroke:#181818;stroke-width:1.0;"/><line style="stroke:#181818;stroke-width:1.0;" x1="226" x2="389" y1="141.5625" y2="141.5625"/><text fill="#000000" font-family="sans-serif" font-size="13" lengthAdjust="spacing" textLength="137" x="233" y="136.4966">venderTiquete(datos)</text><polygon fill="#181818" points="535.5,166.6953,545.5,170.6953,535.5,174.6953,539.5,170.6953" style="stroke:#181818;stroke-width:1.0;"/><line style="stroke:#181818;stroke-width:1.0;" x1="395" x2="541.5" y1="170.6953" y2="170.6953"/><text fill="#000000" font-family="sans-serif" font-size="13" lengthAdjust="spacing" textLength="126" x="402" y="165.6294">crearTiquete(datos)</text><polygon fill="#181818" points="406,195.8281,396,199.8281,406,203.8281,402,199.8281" style="stroke:#181818;stroke-width:1.0;"/><line style="stroke:#181818;stroke-width:1.0;stroke-dasharray:2.0,2.0;" x1="400" x2="546.5" y1="199.8281" y2="199.8281"/><text fill="#000000" font-family="sans-serif" font-size="13" lengthAdjust="spacing" textLength="47" x="412" y="194.7622">Tiquete</text><polygon fill="#181818" points="681,224.9609,691,228.9609,681,232.9609,685,228.9609" style="stroke:#181818;stroke-width:1.0;"/><line style="stroke:#181818;stroke-width:1.0;" x1="395" x2="687" y1="228.9609" y2="228.9609"/><text fill="#000000" font-family="sans-serif" font-size="13" lengthAdjust="spacing" textLength="154" x="402" y="223.895">guardarTiquete(Tiquete)</text><polygon fill="#181818" points="406,254.0938,396,258.0938,406,262.0938,402,258.0938" style="stroke:#181818;stroke-width:1.0;"/><line style="stroke:#181818;stroke-width:1.0;stroke-dasharray:2.0,2.0;" x1="400" x2="692" y1="258.0938" y2="258.0938"/><text fill="#000000" font-family="sans-serif" font-size="13" lengthAdjust="spacing" textLength="82" x="412" y="253.0278">confirmaci&#243;n</text><polygon fill="#181818" points="237,283.2266,227,287.2266,237,291.2266,233,287.2266" style="stroke:#181818;stroke-width:1.0;"/><line style="stroke:#181818;stroke-width:1.0;" x1="231" x2="394" y1="287.2266" y2="287.2266"/><text fill="#000000" font-family="sans-serif" font-size="13" lengthAdjust="spacing" textLength="145" x="243" y="282.1606">mostrarConfirmacion()</text><polygon fill="#181818" points="45,312.3594,35,316.3594,45,320.3594,41,316.3594" style="stroke:#181818;stroke-width:1.0;"/><line style="stroke:#181818;stroke-width:1.0;" x1="39" x2="225" y1="316.3594" y2="316.3594"/><text fill="#000000" font-family="sans-serif" font-size="13" lengthAdjust="spacing" textLength="166" x="51" y="311.2935">Muestra tiquete generado</text><!--SRC=[NP0nRiCm34LtdOB8P0-vW8Ok0G9uA10aTQSkXCG60cBHeUG0FLUFq8jLIkWMoYI9__7pK-Wo2unfGGbiPfGSN9WnPjZiE2Q-u07bkj17xCQXtm0c68UMEv7SoeFVAMPy2mNEbExaghIy8dkiex_keDvRxaWpfr3gWHlNMZT68yFsfGIoSE9BQSm8ZgTP43n1VZIPSQZGciN2ZQ8dKSlEO-RKcrMkgAQnu8Jm6LGHjesdGerDpMdXN6BwVnSzUrFL9nF7yJF8X2xyVCV6gcuuSSg2ilk3E7QzBgUVOU5reKgjkyEP8Wbw_WK0]--></g></svg>