<?xml version="1.0" encoding="us-ascii" standalone="no"?><svg xmlns="http://www.w3.org/2000/svg" xmlns:xlink="http://www.w3.org/1999/xlink" contentStyleType="text/css" height="396px" preserveAspectRatio="none" style="width:1940px;height:396px;background:#FEFEFE;" version="1.1" viewBox="0 0 1940 396" width="1940px" zoomAndPan="magnify"><defs/><g><rect fill="#FEFEFE" height="396" style="stroke:none;stroke-width:1.0;" width="1940" x="0" y="0"/><!--cluster dominio--><g id="cluster_dominio"><path d="M13.5,6 L66.5,6 A11.25,11.25 0 0 1 74,13.5 L81,28.2969 L1924.5,28.2969 A7.5,7.5 0 0 1 1932,35.7969 L1932,380.5 A7.5,7.5 0 0 1 1924.5,388 L13.5,388 A7.5,7.5 0 0 1 6,380.5 L6,13.5 A7.5,7.5 0 0 1 13.5,6 " fill="none" style="stroke:#000000;stroke-width:1.5;"/><line style="stroke:#000000;stroke-width:1.5;" x1="6" x2="81" y1="28.2969" y2="28.2969"/><text fill="#000000" font-family="sans-serif" font-size="14" font-weight="bold" lengthAdjust="spacing" textLength="62" x="10" y="20.9951">dominio</text></g><!--cluster excepciones--><g id="cluster_excepciones"><path d="M37.5,49 L128.5,49 A11.25,11.25 0 0 1 136,56.5 L143,71.2969 L1900.5,71.2969 A7.5,7.5 0 0 1 1908,78.7969 L1908,356.5 A7.5,7.5 0 0 1 1900.5,364 L37.5,364 A7.5,7.5 0 0 1 30,356.5 L30,56.5 A7.5,7.5 0 0 1 37.5,49 " fill="none" style="stroke:#000000;stroke-width:1.5;"/><line style="stroke:#000000;stroke-width:1.5;" x1="30" x2="143" y1="71.2969" y2="71.2969"/><text fill="#000000" font-family="sans-serif" font-size="14" font-weight="bold" lengthAdjust="spacing" textLength="100" x="34" y="63.9951">excepciones</text></g><!--class RuntimeException--><g id="elem_RuntimeException"><rect codeLine="8" fill="#F1F1F1" height="48" id="RuntimeException" rx="7.5" ry="7.5" style="stroke:#181818;stroke-width:0.5;" width="158" x="1041" y="84"/><ellipse cx="1056" cy="100" fill="#ADD1B2" rx="11" ry="11" style="stroke:#181818;stroke-width:1.0;"/><path d="M1058.9688,105.6406 Q1058.3906,105.9375 1057.75,106.0781 Q1057.1094,106.2344 1056.4063,106.2344 Q1053.9063,106.2344 1052.5781,104.5938 Q1051.2656,102.9375 1051.2656,99.8125 Q1051.2656,96.6875 1052.5781,95.0313 Q1053.9063,93.375 1056.4063,93.375 Q1057.1094,93.375 1057.75,93.5313 Q1058.4063,93.6875 1058.9688,93.9844 L1058.9688,96.7031 Q1058.3438,96.125 1057.75,95.8594 Q1057.1563,95.5781 1056.5313,95.5781 Q1055.1875,95.5781 1054.5,96.6563 Q1053.8125,97.7188 1053.8125,99.8125 Q1053.8125,101.9063 1054.5,102.9844 Q1055.1875,104.0469 1056.5313,104.0469 Q1057.1563,104.0469 1057.75,103.7813 Q1058.3438,103.5 1058.9688,102.9219 L1058.9688,105.6406 Z " fill="#000000"/><text fill="#000000" font-family="sans-serif" font-size="14" lengthAdjust="spacing" textLength="126" x="1070" y="104.8467">RuntimeException</text><line style="stroke:#181818;stroke-width:0.5;" x1="1042" x2="1198" y1="116" y2="116"/><line style="stroke:#181818;stroke-width:0.5;" x1="1042" x2="1198" y1="124" y2="124"/></g><!--class IllegalStateException--><g id="elem_IllegalStateException"><rect codeLine="9" fill="#F1F1F1" height="48" id="IllegalStateException" rx="7.5" ry="7.5" style="stroke:#181818;stroke-width:0.5;" width="174" x="243" y="84"/><ellipse cx="258" cy="100" fill="#ADD1B2" rx="11" ry="11" style="stroke:#181818;stroke-width:1.0;"/><path d="M260.9688,105.6406 Q260.3906,105.9375 259.75,106.0781 Q259.1094,106.2344 258.4063,106.2344 Q255.9063,106.2344 254.5781,104.5938 Q253.2656,102.9375 253.2656,99.8125 Q253.2656,96.6875 254.5781,95.0313 Q255.9063,93.375 258.4063,93.375 Q259.1094,93.375 259.75,93.5313 Q260.4063,93.6875 260.9688,93.9844 L260.9688,96.7031 Q260.3438,96.125 259.75,95.8594 Q259.1563,95.5781 258.5313,95.5781 Q257.1875,95.5781 256.5,96.6563 Q255.8125,97.7188 255.8125,99.8125 Q255.8125,101.9063 256.5,102.9844 Q257.1875,104.0469 258.5313,104.0469 Q259.1563,104.0469 259.75,103.7813 Q260.3438,103.5 260.9688,102.9219 L260.9688,105.6406 Z " fill="#000000"/><text fill="#000000" font-family="sans-serif" font-size="14" lengthAdjust="spacing" textLength="142" x="272" y="104.8467">IllegalStateException</text><line style="stroke:#181818;stroke-width:0.5;" x1="244" x2="416" y1="116" y2="116"/><line style="stroke:#181818;stroke-width:0.5;" x1="244" x2="416" y1="124" y2="124"/></g><!--class AsignacionInvalidaException--><g id="elem_AsignacionInvalidaException"><rect codeLine="10" fill="#F1F1F1" height="48" id="AsignacionInvalidaException" rx="7.5" ry="7.5" style="stroke:#181818;stroke-width:0.5;" width="225" x="309.5" y="192"/><ellipse cx="324.5" cy="208" fill="#ADD1B2" rx="11" ry="11" style="stroke:#181818;stroke-width:1.0;"/><path d="M327.4688,213.6406 Q326.8906,213.9375 326.25,214.0781 Q325.6094,214.2344 324.9063,214.2344 Q322.4063,214.2344 321.0781,212.5938 Q319.7656,210.9375 319.7656,207.8125 Q319.7656,204.6875 321.0781,203.0313 Q322.4063,201.375 324.9063,201.375 Q325.6094,201.375 326.25,201.5313 Q326.9063,201.6875 327.4688,201.9844 L327.4688,204.7031 Q326.8438,204.125 326.25,203.8594 Q325.6563,203.5781 325.0313,203.5781 Q323.6875,203.5781 323,204.6563 Q322.3125,205.7188 322.3125,207.8125 Q322.3125,209.9063 323,210.9844 Q323.6875,212.0469 325.0313,212.0469 Q325.6563,212.0469 326.25,211.7813 Q326.8438,211.5 327.4688,210.9219 L327.4688,213.6406 Z " fill="#000000"/><text fill="#000000" font-family="sans-serif" font-size="14" lengthAdjust="spacing" textLength="193" x="338.5" y="212.8467">AsignacionInvalidaException</text><line style="stroke:#181818;stroke-width:0.5;" x1="310.5" x2="533.5" y1="224" y2="224"/><line style="stroke:#181818;stroke-width:0.5;" x1="310.5" x2="533.5" y1="232" y2="232"/></g><!--class AtraccionNoEncontradaException--><g id="elem_AtraccionNoEncontradaException"><rect codeLine="11" fill="#F1F1F1" height="48" id="AtraccionNoEncontradaException" rx="7.5" ry="7.5" style="stroke:#181818;stroke-width:0.5;" width="262" x="570" y="192"/><ellipse cx="585" cy="208" fill="#ADD1B2" rx="11" ry="11" style="stroke:#181818;stroke-width:1.0;"/><path d="M587.9688,213.6406 Q587.3906,213.9375 586.75,214.0781 Q586.1094,214.2344 585.4063,214.2344 Q582.9063,214.2344 581.5781,212.5938 Q580.2656,210.9375 580.2656,207.8125 Q580.2656,204.6875 581.5781,203.0313 Q582.9063,201.375 585.4063,201.375 Q586.1094,201.375 586.75,201.5313 Q587.4063,201.6875 587.9688,201.9844 L587.9688,204.7031 Q587.3438,204.125 586.75,203.8594 Q586.1563,203.5781 585.5313,203.5781 Q584.1875,203.5781 583.5,204.6563 Q582.8125,205.7188 582.8125,207.8125 Q582.8125,209.9063 583.5,210.9844 Q584.1875,212.0469 585.5313,212.0469 Q586.1563,212.0469 586.75,211.7813 Q587.3438,211.5 587.9688,210.9219 L587.9688,213.6406 Z " fill="#000000"/><text fill="#000000" font-family="sans-serif" font-size="14" lengthAdjust="spacing" textLength="230" x="599" y="212.8467">AtraccionNoEncontradaException</text><line style="stroke:#181818;stroke-width:0.5;" x1="571" x2="831" y1="224" y2="224"/><line style="stroke:#181818;stroke-width:0.5;" x1="571" x2="831" y1="232" y2="232"/></g><!--class AtraccionNoOperativaException--><g id="elem_AtraccionNoOperativaException"><rect codeLine="12" fill="#F1F1F1" height="48" id="AtraccionNoOperativaException" rx="7.5" ry="7.5" style="stroke:#181818;stroke-width:0.5;" width="248" x="867" y="192"/><ellipse cx="882" cy="208" fill="#ADD1B2" rx="11" ry="11" style="stroke:#181818;stroke-width:1.0;"/><path d="M884.9688,213.6406 Q884.3906,213.9375 883.75,214.0781 Q883.1094,214.2344 882.4063,214.2344 Q879.9063,214.2344 878.5781,212.5938 Q877.2656,210.9375 877.2656,207.8125 Q877.2656,204.6875 878.5781,203.0313 Q879.9063,201.375 882.4063,201.375 Q883.1094,201.375 883.75,201.5313 Q884.4063,201.6875 884.9688,201.9844 L884.9688,204.7031 Q884.3438,204.125 883.75,203.8594 Q883.1563,203.5781 882.5313,203.5781 Q881.1875,203.5781 880.5,204.6563 Q879.8125,205.7188 879.8125,207.8125 Q879.8125,209.9063 880.5,210.9844 Q881.1875,212.0469 882.5313,212.0469 Q883.1563,212.0469 883.75,211.7813 Q884.3438,211.5 884.9688,210.9219 L884.9688,213.6406 Z " fill="#000000"/><text fill="#000000" font-family="sans-serif" font-size="14" lengthAdjust="spacing" textLength="216" x="896" y="212.8467">AtraccionNoOperativaException</text><line style="stroke:#181818;stroke-width:0.5;" x1="868" x2="1114" y1="224" y2="224"/><line style="stroke:#181818;stroke-width:0.5;" x1="868" x2="1114" y1="232" y2="232"/></g><!--class CapacitacionInsuficienteException--><g id="elem_CapacitacionInsuficienteException"><rect codeLine="13" fill="#F1F1F1" height="48" id="CapacitacionInsuficienteException" rx="7.5" ry="7.5" style="stroke:#181818;stroke-width:0.5;" width="267" x="288.5" y="300"/><ellipse cx="303.5" cy="316" fill="#ADD1B2" rx="11" ry="11" style="stroke:#181818;stroke-width:1.0;"/><path d="M306.4688,321.6406 Q305.8906,321.9375 305.25,322.0781 Q304.6094,322.2344 303.9063,322.2344 Q301.4063,322.2344 300.0781,320.5938 Q298.7656,318.9375 298.7656,315.8125 Q298.7656,312.6875 300.0781,311.0313 Q301.4063,309.375 303.9063,309.375 Q304.6094,309.375 305.25,309.5313 Q305.9063,309.6875 306.4688,309.9844 L306.4688,312.7031 Q305.8438,312.125 305.25,311.8594 Q304.6563,311.5781 304.0313,311.5781 Q302.6875,311.5781 302,312.6563 Q301.3125,313.7188 301.3125,315.8125 Q301.3125,317.9063 302,318.9844 Q302.6875,320.0469 304.0313,320.0469 Q304.6563,320.0469 305.25,319.7813 Q305.8438,319.5 306.4688,318.9219 L306.4688,321.6406 Z " fill="#000000"/><text fill="#000000" font-family="sans-serif" font-size="14" lengthAdjust="spacing" textLength="235" x="317.5" y="320.8467">CapacitacionInsuficienteException</text><line style="stroke:#181818;stroke-width:0.5;" x1="289.5" x2="554.5" y1="332" y2="332"/><line style="stroke:#181818;stroke-width:0.5;" x1="289.5" x2="554.5" y1="340" y2="340"/></g><!--class DatosInvalidosException--><g id="elem_DatosInvalidosException"><rect codeLine="14" fill="#F1F1F1" height="48" id="DatosInvalidosException" rx="7.5" ry="7.5" style="stroke:#181818;stroke-width:0.5;" width="200" x="1150" y="192"/><ellipse cx="1165" cy="208" fill="#ADD1B2" rx="11" ry="11" style="stroke:#181818;stroke-width:1.0;"/><path d="M1167.9688,213.6406 Q1167.3906,213.9375 1166.75,214.0781 Q1166.1094,214.2344 1165.4063,214.2344 Q1162.9063,214.2344 1161.5781,212.5938 Q1160.2656,210.9375 1160.2656,207.8125 Q1160.2656,204.6875 1161.5781,203.0313 Q1162.9063,201.375 1165.4063,201.375 Q1166.1094,201.375 1166.75,201.5313 Q1167.4063,201.6875 1167.9688,201.9844 L1167.9688,204.7031 Q1167.3438,204.125 1166.75,203.8594 Q1166.1563,203.5781 1165.5313,203.5781 Q1164.1875,203.5781 1163.5,204.6563 Q1162.8125,205.7188 1162.8125,207.8125 Q1162.8125,209.9063 1163.5,210.9844 Q1164.1875,212.0469 1165.5313,212.0469 Q1166.1563,212.0469 1166.75,211.7813 Q1167.3438,211.5 1167.9688,210.9219 L1167.9688,213.6406 Z " fill="#000000"/><text fill="#000000" font-family="sans-serif" font-size="14" lengthAdjust="spacing" textLength="168" x="1179" y="212.8467">DatosInvalidosException</text><line style="stroke:#181818;stroke-width:0.5;" x1="1151" x2="1349" y1="224" y2="224"/><line style="stroke:#181818;stroke-width:0.5;" x1="1151" x2="1349" y1="232" y2="232"/></g><!--class EmpleadoNoEncontradoException--><g id="elem_EmpleadoNoEncontradoException"><rect codeLine="15" fill="#F1F1F1" height="48" id="EmpleadoNoEncontradoException" rx="7.5" ry="7.5" style="stroke:#181818;stroke-width:0.5;" width="268" x="1385" y="192"/><ellipse cx="1400" cy="208" fill="#ADD1B2" rx="11" ry="11" style="stroke:#181818;stroke-width:1.0;"/><path d="M1402.9688,213.6406 Q1402.3906,213.9375 1401.75,214.0781 Q1401.1094,214.2344 1400.4063,214.2344 Q1397.9063,214.2344 1396.5781,212.5938 Q1395.2656,210.9375 1395.2656,207.8125 Q1395.2656,204.6875 1396.5781,203.0313 Q1397.9063,201.375 1400.4063,201.375 Q1401.1094,201.375 1401.75,201.5313 Q1402.4063,201.6875 1402.9688,201.9844 L1402.9688,204.7031 Q1402.3438,204.125 1401.75,203.8594 Q1401.1563,203.5781 1400.5313,203.5781 Q1399.1875,203.5781 1398.5,204.6563 Q1397.8125,205.7188 1397.8125,207.8125 Q1397.8125,209.9063 1398.5,210.9844 Q1399.1875,212.0469 1400.5313,212.0469 Q1401.1563,212.0469 1401.75,211.7813 Q1402.3438,211.5 1402.9688,210.9219 L1402.9688,213.6406 Z " fill="#000000"/><text fill="#000000" font-family="sans-serif" font-size="14" lengthAdjust="spacing" textLength="236" x="1414" y="212.8467">EmpleadoNoEncontradoException</text><line style="stroke:#181818;stroke-width:0.5;" x1="1386" x2="1652" y1="224" y2="224"/><line style="stroke:#181818;stroke-width:0.5;" x1="1386" x2="1652" y1="232" y2="232"/></g><!--class TiqueteInvalidoException--><g id="elem_TiqueteInvalidoException"><rect codeLine="16" fill="#F1F1F1" height="48" id="TiqueteInvalidoException" rx="7.5" ry="7.5" style="stroke:#181818;stroke-width:0.5;" width="204" x="1688" y="192"/><ellipse cx="1703" cy="208" fill="#ADD1B2" rx="11" ry="11" style="stroke:#181818;stroke-width:1.0;"/><path d="M1705.9688,213.6406 Q1705.3906,213.9375 1704.75,214.0781 Q1704.1094,214.2344 1703.4063,214.2344 Q1700.9063,214.2344 1699.5781,212.5938 Q1698.2656,210.9375 1698.2656,207.8125 Q1698.2656,204.6875 1699.5781,203.0313 Q1700.9063,201.375 1703.4063,201.375 Q1704.1094,201.375 1704.75,201.5313 Q1705.4063,201.6875 1705.9688,201.9844 L1705.9688,204.7031 Q1705.3438,204.125 1704.75,203.8594 Q1704.1563,203.5781 1703.5313,203.5781 Q1702.1875,203.5781 1701.5,204.6563 Q1700.8125,205.7188 1700.8125,207.8125 Q1700.8125,209.9063 1701.5,210.9844 Q1702.1875,212.0469 1703.5313,212.0469 Q1704.1563,212.0469 1704.75,211.7813 Q1705.3438,211.5 1705.9688,210.9219 L1705.9688,213.6406 Z " fill="#000000"/><text fill="#000000" font-family="sans-serif" font-size="14" lengthAdjust="spacing" textLength="172" x="1717" y="212.8467">TiqueteInvalidoException</text><line style="stroke:#181818;stroke-width:0.5;" x1="1689" x2="1891" y1="224" y2="224"/><line style="stroke:#181818;stroke-width:0.5;" x1="1689" x2="1891" y1="232" y2="232"/></g><!--class TiqueteYaUtilizadoException--><g id="elem_TiqueteYaUtilizadoException"><rect codeLine="17" fill="#F1F1F1" height="48" id="TiqueteYaUtilizadoException" rx="7.5" ry="7.5" style="stroke:#181818;stroke-width:0.5;" width="228" x="46" y="192"/><ellipse cx="61" cy="208" fill="#ADD1B2" rx="11" ry="11" style="stroke:#181818;stroke-width:1.0;"/><path d="M63.9688,213.6406 Q63.3906,213.9375 62.75,214.0781 Q62.1094,214.2344 61.4063,214.2344 Q58.9063,214.2344 57.5781,212.5938 Q56.2656,210.9375 56.2656,207.8125 Q56.2656,204.6875 57.5781,203.0313 Q58.9063,201.375 61.4063,201.375 Q62.1094,201.375 62.75,201.5313 Q63.4063,201.6875 63.9688,201.9844 L63.9688,204.7031 Q63.3438,204.125 62.75,203.8594 Q62.1563,203.5781 61.5313,203.5781 Q60.1875,203.5781 59.5,204.6563 Q58.8125,205.7188 58.8125,207.8125 Q58.8125,209.9063 59.5,210.9844 Q60.1875,212.0469 61.5313,212.0469 Q62.1563,212.0469 62.75,211.7813 Q63.3438,211.5 63.9688,210.9219 L63.9688,213.6406 Z " fill="#000000"/><text fill="#000000" font-family="sans-serif" font-size="14" lengthAdjust="spacing" textLength="196" x="75" y="212.8467">TiqueteYaUtilizadoException</text><line style="stroke:#181818;stroke-width:0.5;" x1="47" x2="273" y1="224" y2="224"/><line style="stroke:#181818;stroke-width:0.5;" x1="47" x2="273" y1="232" y2="232"/></g><!--class MotivoNoOperativa--><g id="elem_MotivoNoOperativa"><rect codeLine="18" fill="#F1F1F1" height="48" id="MotivoNoOperativa" rx="7.5" ry="7.5" style="stroke:#181818;stroke-width:0.5;" width="161" x="46.5" y="84"/><ellipse cx="61.5" cy="100" fill="#EB937F" rx="11" ry="11" style="stroke:#181818;stroke-width:1.0;"/><path d="M65.6094,106 L57.8906,106 L57.8906,93.6094 L65.6094,93.6094 L65.6094,95.7656 L60.3438,95.7656 L60.3438,98.4375 L65.1094,98.4375 L65.1094,100.5938 L60.3438,100.5938 L60.3438,103.8438 L65.6094,103.8438 L65.6094,106 Z " fill="#000000"/><text fill="#000000" font-family="sans-serif" font-size="14" lengthAdjust="spacing" textLength="129" x="75.5" y="104.8467">MotivoNoOperativa</text><line style="stroke:#181818;stroke-width:0.5;" x1="47.5" x2="206.5" y1="116" y2="116"/><line style="stroke:#181818;stroke-width:0.5;" x1="47.5" x2="206.5" y1="124" y2="124"/></g><!--reverse link RuntimeException to AsignacionInvalidaException--><g id="link_RuntimeException_AsignacionInvalidaException"><path d="M1020.82,123.52 C858.27,147.31 553,192 553,192 C553,192 545.68,193.28 534.51,195.25 " fill="none" id="RuntimeException-backto-AsignacionInvalidaException" style="stroke:#33658A;stroke-width:1.0;"/><polygon fill="none" points="1020.06,116.56,1040.86,120.58,1022.09,130.41,1020.06,116.56" style="stroke:#33658A;stroke-width:1.0;"/></g><!--reverse link RuntimeException to AtraccionNoEncontradaException--><g id="link_RuntimeException_AtraccionNoEncontradaException"><path d="M1021.3,133.97 C951.88,151.53 859.65,174.86 792,191.98 " fill="none" id="RuntimeException-backto-AtraccionNoEncontradaException" style="stroke:#33658A;stroke-width:1.0;"/><polygon fill="none" points="1019.59,127.18,1040.7,129.06,1023.02,140.75,1019.59,127.18" style="stroke:#33658A;stroke-width:1.0;"/></g><!--reverse link RuntimeException to AtraccionNoOperativaException--><g id="link_RuntimeException_AtraccionNoOperativaException"><path d="M1076.35,144.87 C1057.54,160.33 1036.08,177.96 1019.38,191.68 " fill="none" id="RuntimeException-backto-AtraccionNoOperativaException" style="stroke:#33658A;stroke-width:1.0;"/><polygon fill="none" points="1072.11,139.29,1092.01,132,1081,150.11,1072.11,139.29" style="stroke:#33658A;stroke-width:1.0;"/></g><!--reverse link AsignacionInvalidaException to CapacitacionInsuficienteException--><g id="link_AsignacionInvalidaException_CapacitacionInsuficienteException"><path d="M422,260.02 C422,273.58 422,288.04 422,299.68 " fill="none" id="AsignacionInvalidaException-backto-CapacitacionInsuficienteException" style="stroke:#33658A;stroke-width:1.0;"/><polygon fill="none" points="415,260,422,240,429,260,415,260" style="stroke:#33658A;stroke-width:1.0;"/></g><!--reverse link RuntimeException to DatosInvalidosException--><g id="link_RuntimeException_DatosInvalidosException"><path d="M1163.99,144.87 C1182.95,160.33 1204.57,177.96 1221.4,191.68 " fill="none" id="RuntimeException-backto-DatosInvalidosException" style="stroke:#33658A;stroke-width:1.0;"/><polygon fill="none" points="1159.28,150.06,1148.21,132,1168.13,139.21,1159.28,150.06" style="stroke:#33658A;stroke-width:1.0;"/></g><!--reverse link RuntimeException to EmpleadoNoEncontradoException--><g id="link_RuntimeException_EmpleadoNoEncontradoException"><path d="M1218.95,135.29 C1284.4,152.68 1369.42,175.26 1432.23,191.95 " fill="none" id="RuntimeException-backto-EmpleadoNoEncontradoException" style="stroke:#33658A;stroke-width:1.0;"/><polygon fill="none" points="1216.84,141.97,1199.31,130.07,1220.43,128.44,1216.84,141.97" style="stroke:#33658A;stroke-width:1.0;"/></g><!--reverse link RuntimeException to TiqueteInvalidoException--><g id="link_RuntimeException_TiqueteInvalidoException"><path d="M1219.29,123.96 C1377.96,147.86 1671,192 1671,192 C1671,192 1677.65,193.28 1687.8,195.25 " fill="none" id="RuntimeException-backto-TiqueteInvalidoException" style="stroke:#33658A;stroke-width:1.0;"/><polygon fill="none" points="1217.97,130.84,1199.24,120.94,1220.06,116.99,1217.97,130.84" style="stroke:#33658A;stroke-width:1.0;"/></g><!--reverse link IllegalStateException to TiqueteYaUtilizadoException--><g id="link_IllegalStateException_TiqueteYaUtilizadoException"><path d="M276.14,142.58 C250.4,158.63 220.24,177.44 197.11,191.86 " fill="none" id="IllegalStateException-backto-TiqueteYaUtilizadoException" style="stroke:#33658A;stroke-width:1.0;"/><polygon fill="none" points="272.44,136.64,293.11,132,279.85,148.52,272.44,136.64" style="stroke:#33658A;stroke-width:1.0;"/></g><!--SRC=[dP9FIyGm4CNl_HG1xu8iArxBMc4FAkXwy3WcitNOT2Ocq_sZ-DrDfPQ2wq8b40Y_UMycBqaRuW0H6lC2TbD7QTajn4iqPpTLjueqL7XYr4D04yGVkiE8fLTmiYEkpHfy6fDlIokHCPgB-GYKCSgkxpMRNSwloX5qk8RMwmhtMdggkK5MO_E6iGXvKgZHE6c8ISvnRp5O4iPaFWfZh8UKp4FBIWrM7TGC1x3q7clmZmfwX9OfTuFERSbRyEHWg35v66HtmhhK2BRJtad5LZWV_wk_3nX1QJj5le0S3Ma_VMhNPAcBxBV5YLiERjUWadeiQS8OLHCyvkym2a4co5VqrgBYJ-VfocTuKlBqVhJjNw-Ft3RcLdBYCWg_-Fm2]--></g></svg>