<?xml version="1.0" encoding="us-ascii" standalone="no"?><svg xmlns="http://www.w3.org/2000/svg" xmlns:xlink="http://www.w3.org/1999/xlink" contentStyleType="text/css" height="601px" preserveAspectRatio="none" style="width:917px;height:601px;background:#FEFEFE;" version="1.1" viewBox="0 0 917 601" width="917px" zoomAndPan="magnify"><defs/><g><rect fill="#FEFEFE" height="601" style="stroke:none;stroke-width:1.0;" width="917" x="0" y="0"/><!--cluster infraestructura--><g id="cluster_infraestructura"><path d="M13.5,6 L123.5,6 A11.25,11.25 0 0 1 131,13.5 L138,28.2969 L711.5,28.2969 A7.5,7.5 0 0 1 719,35.7969 L719,585.5 A7.5,7.5 0 0 1 711.5,593 L13.5,593 A7.5,7.5 0 0 1 6,585.5 L6,13.5 A7.5,7.5 0 0 1 13.5,6 " fill="none" style="stroke:#000000;stroke-width:1.5;"/><line style="stroke:#000000;stroke-width:1.5;" x1="6" x2="138" y1="28.2969" y2="28.2969"/><text fill="#000000" font-family="sans-serif" font-size="14" font-weight="bold" lengthAdjust="spacing" textLength="119" x="10" y="20.9951">infraestructura</text></g><!--cluster persistencia--><g id="cluster_persistencia"><path d="M130.5,49 L218.5,49 A11.25,11.25 0 0 1 226,56.5 L233,71.2969 L593.5,71.2969 A7.5,7.5 0 0 1 601,78.7969 L601,189.5 A7.5,7.5 0 0 1 593.5,197 L130.5,197 A7.5,7.5 0 0 1 123,189.5 L123,56.5 A7.5,7.5 0 0 1 130.5,49 " fill="none" style="stroke:#000000;stroke-width:1.5;"/><line style="stroke:#000000;stroke-width:1.5;" x1="123" x2="233" y1="71.2969" y2="71.2969"/><text fill="#000000" font-family="sans-serif" font-size="14" font-weight="bold" lengthAdjust="spacing" textLength="97" x="127" y="63.9951">persistencia</text></g><!--cluster dto--><g id="cluster_dto"><path d="M157.5,470 L174.5,470 A11.25,11.25 0 0 1 182,477.5 L189,492.2969 L290.5,492.2969 A7.5,7.5 0 0 1 298,499.7969 L298,561.5 A7.5,7.5 0 0 1 290.5,569 L157.5,569 A7.5,7.5 0 0 1 150,561.5 L150,477.5 A7.5,7.5 0 0 1 157.5,470 " fill="none" style="stroke:#000000;stroke-width:1.5;"/><line style="stroke:#000000;stroke-width:1.5;" x1="150" x2="189" y1="492.2969" y2="492.2969"/><text fill="#000000" font-family="sans-serif" font-size="14" font-weight="bold" lengthAdjust="spacing" textLength="26" x="154" y="484.9951">dto</text></g><!--cluster mapper--><g id="cluster_mapper"><path d="M222.5,246 L273.5,246 A11.25,11.25 0 0 1 281,253.5 L288,268.2969 L687.5,268.2969 A7.5,7.5 0 0 1 695,275.7969 L695,370.5 A7.5,7.5 0 0 1 687.5,378 L222.5,378 A7.5,7.5 0 0 1 215,370.5 L215,253.5 A7.5,7.5 0 0 1 222.5,246 " fill="none" style="stroke:#000000;stroke-width:1.5;"/><line style="stroke:#000000;stroke-width:1.5;" x1="215" x2="288" y1="268.2969" y2="268.2969"/><text fill="#000000" font-family="sans-serif" font-size="14" font-weight="bold" lengthAdjust="spacing" textLength="60" x="219" y="260.9951">mapper</text></g><!--cluster dominio--><g id="cluster_dominio"><path d="M750.5,427 L803.5,427 A11.25,11.25 0 0 1 811,434.5 L818,449.2969 L901.5,449.2969 A7.5,7.5 0 0 1 909,456.7969 L909,585.5 A7.5,7.5 0 0 1 901.5,593 L750.5,593 A7.5,7.5 0 0 1 743,585.5 L743,434.5 A7.5,7.5 0 0 1 750.5,427 " fill="none" style="stroke:#000000;stroke-width:1.5;"/><line style="stroke:#000000;stroke-width:1.5;" x1="743" x2="818" y1="449.2969" y2="449.2969"/><text fill="#000000" font-family="sans-serif" font-size="14" font-weight="bold" lengthAdjust="spacing" textLength="62" x="747" y="441.9951">dominio</text></g><!--cluster tiquete--><g id="cluster_tiquete"><path d="M774.5,470 L821.5,470 A11.25,11.25 0 0 1 829,477.5 L836,492.2969 L877.5,492.2969 A7.5,7.5 0 0 1 885,499.7969 L885,561.5 A7.5,7.5 0 0 1 877.5,569 L774.5,569 A7.5,7.5 0 0 1 767,561.5 L767,477.5 A7.5,7.5 0 0 1 774.5,470 " fill="none" style="stroke:#000000;stroke-width:1.5;"/><line style="stroke:#000000;stroke-width:1.5;" x1="767" x2="836" y1="492.2969" y2="492.2969"/><text fill="#000000" font-family="sans-serif" font-size="14" font-weight="bold" lengthAdjust="spacing" textLength="56" x="771" y="484.9951">tiquete</text></g><!--class TiqueteRepositoryJson--><g id="elem_TiqueteRepositoryJson"><rect codeLine="8" fill="#F1F1F1" height="96.8906" id="TiqueteRepositoryJson" rx="7.5" ry="7.5" style="stroke:#181818;stroke-width:0.5;" width="445" x="139.5" y="84"/><ellipse cx="279.75" cy="100" fill="#ADD1B2" rx="11" ry="11" style="stroke:#181818;stroke-width:1.0;"/><path d="M282.7188,105.6406 Q282.1406,105.9375 281.5,106.0781 Q280.8594,106.2344 280.1563,106.2344 Q277.6563,106.2344 276.3281,104.5938 Q275.0156,102.9375 275.0156,99.8125 Q275.0156,96.6875 276.3281,95.0313 Q277.6563,93.375 280.1563,93.375 Q280.8594,93.375 281.5,93.5313 Q282.1563,93.6875 282.7188,93.9844 L282.7188,96.7031 Q282.0938,96.125 281.5,95.8594 Q280.9063,95.5781 280.2813,95.5781 Q278.9375,95.5781 278.25,96.6563 Q277.5625,97.7188 277.5625,99.8125 Q277.5625,101.9063 278.25,102.9844 Q278.9375,104.0469 280.2813,104.0469 Q280.9063,104.0469 281.5,103.7813 Q282.0938,103.5 282.7188,102.9219 L282.7188,105.6406 Z " fill="#000000"/><text fill="#000000" font-family="sans-serif" font-size="14" lengthAdjust="spacing" textLength="156" x="300.25" y="104.8467">TiqueteRepositoryJson</text><line style="stroke:#181818;stroke-width:0.5;" x1="140.5" x2="583.5" y1="116" y2="116"/><line style="stroke:#181818;stroke-width:0.5;" x1="140.5" x2="583.5" y1="124" y2="124"/><ellipse cx="150.5" cy="137.6484" fill="#84BE84" rx="3" ry="3" style="stroke:#038048;stroke-width:1.0;"/><text fill="#000000" font-family="sans-serif" font-size="14" lengthAdjust="spacing" textLength="261" x="159.5" y="140.9951">guardarTiquetes(List&lt;Tiquete&gt;): void</text><ellipse cx="150.5" cy="153.9453" fill="#84BE84" rx="3" ry="3" style="stroke:#038048;stroke-width:1.0;"/><text fill="#000000" font-family="sans-serif" font-size="14" lengthAdjust="spacing" textLength="223" x="159.5" y="157.292">cargarTiquetes(): List&lt;Tiquete&gt;</text><ellipse cx="150.5" cy="170.2422" fill="#84BE84" rx="3" ry="3" style="stroke:#038048;stroke-width:1.0;"/><text fill="#000000" font-family="sans-serif" font-size="14" lengthAdjust="spacing" textLength="419" x="159.5" y="173.5889">cargarTiquetes(Function&lt;String, Atraccion&gt;): List&lt;Tiquete&gt;</text></g><!--class TiqueteDTO--><g id="elem_TiqueteDTO"><rect codeLine="15" fill="#F1F1F1" height="48" id="TiqueteDTO" rx="7.5" ry="7.5" style="stroke:#181818;stroke-width:0.5;" width="116" x="166" y="505"/><ellipse cx="181" cy="521" fill="#ADD1B2" rx="11" ry="11" style="stroke:#181818;stroke-width:1.0;"/><path d="M183.9688,526.6406 Q183.3906,526.9375 182.75,527.0781 Q182.1094,527.2344 181.4063,527.2344 Q178.9063,527.2344 177.5781,525.5938 Q176.2656,523.9375 176.2656,520.8125 Q176.2656,517.6875 177.5781,516.0313 Q178.9063,514.375 181.4063,514.375 Q182.1094,514.375 182.75,514.5313 Q183.4063,514.6875 183.9688,514.9844 L183.9688,517.7031 Q183.3438,517.125 182.75,516.8594 Q182.1563,516.5781 181.5313,516.5781 Q180.1875,516.5781 179.5,517.6563 Q178.8125,518.7188 178.8125,520.8125 Q178.8125,522.9063 179.5,523.9844 Q180.1875,525.0469 181.5313,525.0469 Q182.1563,525.0469 182.75,524.7813 Q183.3438,524.5 183.9688,523.9219 L183.9688,526.6406 Z " fill="#000000"/><text fill="#000000" font-family="sans-serif" font-size="14" lengthAdjust="spacing" textLength="84" x="195" y="525.8467">TiqueteDTO</text><line style="stroke:#181818;stroke-width:0.5;" x1="167" x2="281" y1="537" y2="537"/><line style="stroke:#181818;stroke-width:0.5;" x1="167" x2="281" y1="545" y2="545"/></g><!--class TiqueteMapper--><g id="elem_TiqueteMapper"><rect codeLine="18" fill="#F1F1F1" height="80.5938" id="TiqueteMapper" rx="7.5" ry="7.5" style="stroke:#181818;stroke-width:0.5;" width="448" x="231" y="281"/><ellipse cx="398.25" cy="297" fill="#ADD1B2" rx="11" ry="11" style="stroke:#181818;stroke-width:1.0;"/><path d="M401.2188,302.6406 Q400.6406,302.9375 400,303.0781 Q399.3594,303.2344 398.6563,303.2344 Q396.1563,303.2344 394.8281,301.5938 Q393.5156,299.9375 393.5156,296.8125 Q393.5156,293.6875 394.8281,292.0313 Q396.1563,290.375 398.6563,290.375 Q399.3594,290.375 400,290.5313 Q400.6563,290.6875 401.2188,290.9844 L401.2188,293.7031 Q400.5938,293.125 400,292.8594 Q399.4063,292.5781 398.7813,292.5781 Q397.4375,292.5781 396.75,293.6563 Q396.0625,294.7188 396.0625,296.8125 Q396.0625,298.9063 396.75,299.9844 Q397.4375,301.0469 398.7813,301.0469 Q399.4063,301.0469 400,300.7813 Q400.5938,300.5 401.2188,299.9219 L401.2188,302.6406 Z " fill="#000000"/><text fill="#000000" font-family="sans-serif" font-size="14" lengthAdjust="spacing" textLength="105" x="418.75" y="301.8467">TiqueteMapper</text><line style="stroke:#181818;stroke-width:0.5;" x1="232" x2="678" y1="313" y2="313"/><line style="stroke:#181818;stroke-width:0.5;" x1="232" x2="678" y1="321" y2="321"/><ellipse cx="242" cy="334.6484" fill="#84BE84" rx="3" ry="3" style="stroke:#038048;stroke-width:1.0;"/><text fill="#000000" font-family="sans-serif" font-size="14" lengthAdjust="spacing" textLength="201" x="251" y="337.9951">toDTO(Tiquete): TiqueteDTO</text><ellipse cx="242" cy="350.9453" fill="#84BE84" rx="3" ry="3" style="stroke:#038048;stroke-width:1.0;"/><text fill="#000000" font-family="sans-serif" font-size="14" lengthAdjust="spacing" textLength="422" x="251" y="354.292">fromDTO(TiqueteDTO, Function&lt;String, Atraccion&gt;): Tiquete</text></g><!--class Tiquete--><g id="elem_Tiquete"><rect codeLine="24" fill="#F1F1F1" height="48" id="Tiquete" rx="7.5" ry="7.5" style="stroke:#181818;stroke-width:0.5;" width="85" x="783.5" y="505"/><ellipse cx="798.5" cy="521" fill="#ADD1B2" rx="11" ry="11" style="stroke:#181818;stroke-width:1.0;"/><path d="M801.4688,526.6406 Q800.8906,526.9375 800.25,527.0781 Q799.6094,527.2344 798.9063,527.2344 Q796.4063,527.2344 795.0781,525.5938 Q793.7656,523.9375 793.7656,520.8125 Q793.7656,517.6875 795.0781,516.0313 Q796.4063,514.375 798.9063,514.375 Q799.6094,514.375 800.25,514.5313 Q800.9063,514.6875 801.4688,514.9844 L801.4688,517.7031 Q800.8438,517.125 800.25,516.8594 Q799.6563,516.5781 799.0313,516.5781 Q797.6875,516.5781 797,517.6563 Q796.3125,518.7188 796.3125,520.8125 Q796.3125,522.9063 797,523.9844 Q797.6875,525.0469 799.0313,525.0469 Q799.6563,525.0469 800.25,524.7813 Q800.8438,524.5 801.4688,523.9219 L801.4688,526.6406 Z " fill="#000000"/><text fill="#000000" font-family="sans-serif" font-size="14" lengthAdjust="spacing" textLength="53" x="812.5" y="525.8467">Tiquete</text><line style="stroke:#181818;stroke-width:0.5;" x1="784.5" x2="867.5" y1="537" y2="537"/><line style="stroke:#181818;stroke-width:0.5;" x1="784.5" x2="867.5" y1="545" y2="545"/></g><!--link TiqueteRepositoryJson to TiqueteDTO--><g id="link_TiqueteRepositoryJson_TiqueteDTO"><path codeLine="26" d="M231.97,181.01 C156.42,208.62 76,238 76,238 C76,238 76,386 76,386 C76,386 153.22,460.09 196.11,501.24 " fill="none" id="TiqueteRepositoryJson-to-TiqueteDTO" style="stroke:#33658A;stroke-width:1.0;"/><polygon fill="#33658A" points="199.89,504.87,196.1699,495.7507,196.2839,501.4065,190.6282,501.5205,199.89,504.87" style="stroke:#33658A;stroke-width:1.0;"/><text fill="#000000" font-family="sans-serif" font-size="13" lengthAdjust="spacing" textLength="137" x="77" y="326.0669">usa para persistencia</text></g><!--link TiqueteRepositoryJson to TiqueteMapper--><g id="link_TiqueteRepositoryJson_TiqueteMapper"><path codeLine="27" d="M385.71,181.17 C400.27,210.45 418.79,247.68 433.02,276.29 " fill="none" id="TiqueteRepositoryJson-to-TiqueteMapper" style="stroke:#33658A;stroke-width:1.0;"/><polygon fill="#33658A" points="435.26,280.81,434.8254,270.9707,433.0297,276.335,427.6654,274.5393,435.26,280.81" style="stroke:#33658A;stroke-width:1.0;"/><text fill="#000000" font-family="sans-serif" font-size="13" lengthAdjust="spacing" textLength="129" x="409" y="226.0669">usa para conversi&#243;n</text></g><!--link TiqueteMapper to TiqueteDTO--><g id="link_TiqueteMapper_TiqueteDTO"><path codeLine="28" d="M410.46,362.12 C364.36,403.14 293.62,466.06 253.84,501.45 " fill="none" id="TiqueteMapper-to-TiqueteDTO" style="stroke:#33658A;stroke-width:1.0;"/><polygon fill="#33658A" points="250.09,504.79,259.4677,501.7803,253.8199,501.4602,254.1401,495.8124,250.09,504.79" style="stroke:#33658A;stroke-width:1.0;"/><text fill="#000000" font-family="sans-serif" font-size="13" lengthAdjust="spacing" textLength="69" x="374" y="407.0669">conversi&#243;n</text></g><!--link TiqueteMapper to Tiquete--><g id="link_TiqueteMapper_Tiquete"><path codeLine="29" d="M526.53,362.12 C601.28,403.52 716.33,467.25 779.87,502.45 " fill="none" id="TiqueteMapper-to-Tiquete" style="stroke:#33658A;stroke-width:1.0;"/><polygon fill="#33658A" points="784.35,504.93,778.4252,497.0626,779.9792,502.5018,774.54,504.0558,784.35,504.93" style="stroke:#33658A;stroke-width:1.0;"/><text fill="#000000" font-family="sans-serif" font-size="13" lengthAdjust="spacing" textLength="69" x="608" y="407.0669">conversi&#243;n</text></g><!--SRC=[ZPBTIWCn48Nlzoa6lAdO5gHKf9J2elP2547x0cCskuRkPjR9fBL8dyf7yCLCsqLJj_wm43OvtvcSIUBcnjR8MC4Zgdd1v6rsGIKn74slDb_YFedIM2shMaDDvMepYJJtX1ajZIqWnzB5ohQa8hQQuNGO2IapBPkz1eEpuNaQYPdEqPSoqo-IbgQmbRO2AWoQapeanKA3iJcZTi9UYMVirvgTSQAjCWYl2O0gqJcOcMUlHT_hcfmHujMr8xlL0KuAZvmXDupht8G2usOsEHx1Waos8nLo4O51ssCFGbDlbHYoumVXS3PTI8LHgR0oEU1V9-iVUyk4sYrTpkv-iLHOXnDfksw_raDYeL2bqqWXL5Hwg-TCLKI4toxytbP3VcieeyfOGttPgUrOWJryKxtU94e58_0EOVDA8BxmlyrDtv5VaLriIho_sMGVQktvBtIV-m00]--></g></svg>